/* XPM */
static char *fd967d0feffc429ae668aa4cec943140retGaYnUnVhaanNj[] = {
/* columns rows colors chars-per-pixel */
"90 90 5 1 ",
"  c gray15",
". c #535353",
"X c #717171",
"o c gray78",
"O c gray94",
/* pixels */
"                                                                                          ",
"                                                                                          ",
"                                                                                          ",
"                                                                                          ",
"                                                                                          ",
"         .................................................................................",
"        ..................................................................................",
"       ...................................................................................",
"      ....................................................................................",
"      ........XXXXXXXXXXXXXXXXXXXXXXXXXXXXXXXXXXXXXXXXXXXXXXXXXXXXXXXXXXXXXXXXXXXXXXXXXXXX",
"     .......XXXXXXXXXXXXXXXXXXXXXXXXXXXXXXXXXXXXXXXXXXXXXXXXXXXXXXXXXXXXXXXXXXXXXXXXXXXXXX",
"     ......XXXXXXXXXXXXXXXXXXXXXXXXXXXXXXXXXXXXXXXXXXXXXXXXXXXXXXXXXXXXXXXXXXXXXXXXXXXXXXX",
"     .....XXXXXXXXXXXXXXXXXXXXXXXXXXXXXXXXXXXXXXXXXXXXXXXXXXXXXXXXXXXXXXXXXXXXXXXXXXXXXXXX",
"     .....XXXXXXXXXXXXXXXXXXXXXXXXXXXXXXXXXXXXXXXXXXXXXXXXXXXXXXXXXXXXXXXXXXXXXXXXXXXXXXXX",
"     ....XXXXXXXXXXOOOOOOOOOOOOOOOOOOOOOOOOOOOOOOOOOOOOOOOOOOOOOOOOOOOOOOOOOOOOOOOOOOOOOOO",
"     ....XXXXXXXXOOOOOOOOOOOOOOOOOOOOOOOOOOOOOOOOOOOOOOOOOOOOOOOOOOOOOOOOOOOOOOOOOOOOOOOOO",
"     ....XXXXXXXOOOOOOOOOOOOOOOOOOOOOOOOOOOOOOOOOOOOOOOOOOOOOOOOOOOOOOOOOOOOOOOOOOOOOOOOOO",
"     ....XXXXXXOOOOOOOOOOOOOOOOOOOOOOOOOOOOOOOOOOOOOOOOOOOOOOOOOOOOOOOOOOOOOOOOOOOOOOOOOOO",
"     ....XXXXXXOOOOOOOOOOOOOOOOOOOOOOOOOOOOOOOOOOOOOOOOOOOOOOOOOOOOOOOOOOOOOOOOOOOOOOOOOOO",
"     ....XXXXXOOOOOOOOOOoooooooooooooooooooooooooooooooooooooooooooooooooooooooooooooooooo",
"     ....XXXXXOOOOOOOOoooooooooooooooooooooooooooooooooooooooooooooooooooooooooooooooooooo",
"     ....XXXXXOOOOOOOooooooooooooooooooooooooooooooooooooooooooooooooooooooooooooooooooooo",
"     ....XXXXXOOOOOOoooooooooooooooooooooooooooooooooooooooooooooooooooooooooooooooooooooo",
"     ....XXXXXOOOOOOoooooooooooooooooooooooooooooooooooooooooooooooooooooooooooooooooooooo",
"     ....XXXXXOOOOOooooooooooooooooooooooooooooooooooooooooooooooooooooooooooooooooooooooo",
"     ....XXXXXOOOOOooooooooooooooooooooooooooooooooooooooooooooooooooooooooooooooooooooooo",
"     ....XXXXXOOOOOooooooooooooooooooooooooooooooooooooooooooooooooooooooooooooooooooooooo",
"     ....XXXXXOOOOOooooooooooooooooooooooooooooooooooooooooooooooooooooooooooooooooooooooo",
"     ....XXXXXOOOOOooooooooooooooooooooooooooooooooooooooooooooooooooooooooooooooooooooooo",
"     ....XXXXXOOOOOooooooooooooooooooooooooooooooooooooooooooooooooooooooooooooooooooooooo",
"     ....XXXXXOOOOOooooooooooooooooooooooooooooooooooooooooooooooooooooooooooooooooooooooo",
"     ....XXXXXOOOOOooooooooooooooooooooooooooooooooooooooooooooooooooooooooooooooooooooooo",
"     ....XXXXXOOOOOooooooooooooooooooooooooooooooooooooooooooooooooooooooooooooooooooooooo",
"     ....XXXXXOOOOOooooooooooooooooooooooooooooooooooooooooooooooooooooooooooooooooooooooo",
"     ....XXXXXOOOOOooooooooooooooooooooooooooooooooooooooooooooooooooooooooooooooooooooooo",
"     ....XXXXXOOOOOooooooooooooooooooooooooooooooooooooooooooooooooooooooooooooooooooooooo",
"     ....XXXXXOOOOOooooooooooooooooooooooooooooooooooooooooooooooooooooooooooooooooooooooo",
"     ....XXXXXOOOOOooooooooooooooooooooooooooooooooooooooooooooooooooooooooooooooooooooooo",
"     ....XXXXXOOOOOooooooooooooooooooooooooooooooooooooooooooooooooooooooooooooooooooooooo",
"     ....XXXXXOOOOOooooooooooooooooooooooooooooooooooooooooooooooooooooooooooooooooooooooo",
"     ....XXXXXOOOOOooooooooooooooooooooooooooooooooooooooooooooooooooooooooooooooooooooooo",
"     ....XXXXXOOOOOooooooooooooooooooooooooooooooooooooooooooooooooooooooooooooooooooooooo",
"     ....XXXXXOOOOOooooooooooooooooooooooooooooooooooooooooooooooooooooooooooooooooooooooo",
"     ....XXXXXOOOOOooooooooooooooooooooooooooooooooooooooooooooooooooooooooooooooooooooooo",
"     ....XXXXXOOOOOooooooooooooooooooooooooooooooooooooooooooooooooooooooooooooooooooooooo",
"     ....XXXXXOOOOOooooooooooooooooooooooooooooooooooooooooooooooooooooooooooooooooooooooo",
"     ....XXXXXOOOOOooooooooooooooooooooooooooooooooooooooooooooooooooooooooooooooooooooooo",
"     ....XXXXXOOOOOooooooooooooooooooooooooooooooooooooooooooooooooooooooooooooooooooooooo",
"     ....XXXXXOOOOOooooooooooooooooooooooooooooooooooooooooooooooooooooooooooooooooooooooo",
"     ....XXXXXOOOOOooooooooooooooooooooooooooooooooooooooooooooooooooooooooooooooooooooooo",
"     ....XXXXXOOOOOooooooooooooooooooooooooooooooooooooooooooooooooooooooooooooooooooooooo",
"     ....XXXXXOOOOOooooooooooooooooooooooooooooooooooooooooooooooooooooooooooooooooooooooo",
"     ....XXXXXOOOOOooooooooooooooooooooooooooooooooooooooooooooooooooooooooooooooooooooooo",
"     ....XXXXXOOOOOooooooooooooooooooooooooooooooooooooooooooooooooooooooooooooooooooooooo",
"     ....XXXXXOOOOOooooooooooooooooooooooooooooooooooooooooooooooooooooooooooooooooooooooo",
"     ....XXXXXOOOOOooooooooooooooooooooooooooooooooooooooooooooooooooooooooooooooooooooooo",
"     ....XXXXXOOOOOooooooooooooooooooooooooooooooooooooooooooooooooooooooooooooooooooooooo",
"     ....XXXXXOOOOOooooooooooooooooooooooooooooooooooooooooooooooooooooooooooooooooooooooo",
"     ....XXXXXOOOOOooooooooooooooooooooooooooooooooooooooooooooooooooooooooooooooooooooooo",
"     ....XXXXXOOOOOooooooooooooooooooooooooooooooooooooooooooooooooooooooooooooooooooooooo",
"     ....XXXXXOOOOOooooooooooooooooooooooooooooooooooooooooooooooooooooooooooooooooooooooo",
"     ....XXXXXOOOOOooooooooooooooooooooooooooooooooooooooooooooooooooooooooooooooooooooooo",
"     ....XXXXXOOOOOooooooooooooooooooooooooooooooooooooooooooooooooooooooooooooooooooooooo",
"     ....XXXXXOOOOOooooooooooooooooooooooooooooooooooooooooooooooooooooooooooooooooooooooo",
"     ....XXXXXOOOOOooooooooooooooooooooooooooooooooooooooooooooooooooooooooooooooooooooooo",
"     ....XXXXXOOOOOooooooooooooooooooooooooooooooooooooooooooooooooooooooooooooooooooooooo",
"     ....XXXXXOOOOOooooooooooooooooooooooooooooooooooooooooooooooooooooooooooooooooooooooo",
"     ....XXXXXOOOOOooooooooooooooooooooooooooooooooooooooooooooooooooooooooooooooooooooooo",
"     ....XXXXXOOOOOooooooooooooooooooooooooooooooooooooooooooooooooooooooooooooooooooooooo",
"     ....XXXXXOOOOOooooooooooooooooooooooooooooooooooooooooooooooooooooooooooooooooooooooo",
"     ....XXXXXOOOOOooooooooooooooooooooooooooooooooooooooooooooooooooooooooooooooooooooooo",
"     ....XXXXXOOOOOooooooooooooooooooooooooooooooooooooooooooooooooooooooooooooooooooooooo",
"     ....XXXXXOOOOOooooooooooooooooooooooooooooooooooooooooooooooooooooooooooooooooooooooo",
"     ....XXXXXOOOOOooooooooooooooooooooooooooooooooooooooooooooooooooooooooooooooooooooooo",
"     ....XXXXXOOOOOooooooooooooooooooooooooooooooooooooooooooooooooooooooooooooooooooooooo",
"     ....XXXXXOOOOOooooooooooooooooooooooooooooooooooooooooooooooooooooooooooooooooooooooo",
"     ....XXXXXOOOOOooooooooooooooooooooooooooooooooooooooooooooooooooooooooooooooooooooooo",
"     ....XXXXXOOOOOooooooooooooooooooooooooooooooooooooooooooooooooooooooooooooooooooooooo",
"     ....XXXXXOOOOOooooooooooooooooooooooooooooooooooooooooooooooooooooooooooooooooooooooo",
"     ....XXXXXOOOOOooooooooooooooooooooooooooooooooooooooooooooooooooooooooooooooooooooooo",
"     ....XXXXXOOOOOooooooooooooooooooooooooooooooooooooooooooooooooooooooooooooooooooooooo",
"     ....XXXXXOOOOOooooooooooooooooooooooooooooooooooooooooooooooooooooooooooooooooooooooo",
"     ....XXXXXOOOOOooooooooooooooooooooooooooooooooooooooooooooooooooooooooooooooooooooooo",
"     ....XXXXXOOOOOooooooooooooooooooooooooooooooooooooooooooooooooooooooooooooooooooooooo",
"     ....XXXXXOOOOOooooooooooooooooooooooooooooooooooooooooooooooooooooooooooooooooooooooo",
"     ....XXXXXOOOOOooooooooooooooooooooooooooooooooooooooooooooooooooooooooooooooooooooooo",
"     ....XXXXXOOOOOooooooooooooooooooooooooooooooooooooooooooooooooooooooooooooooooooooooo",
"     ....XXXXXOOOOOooooooooooooooooooooooooooooooooooooooooooooooooooooooooooooooooooooooo",
"     ....XXXXXOOOOOooooooooooooooooooooooooooooooooooooooooooooooooooooooooooooooooooooooo",
"     ....XXXXXOOOOOooooooooooooooooooooooooooooooooooooooooooooooooooooooooooooooooooooooo"
};
