/* XPM */
static char *b3d7d67cb55143bba2a2720554de55dbaK45xA3NiIQZRAEk[] = {
/* columns rows colors chars-per-pixel */
"15 90 2 1 ",
"  c #00334C",
". c gray92",
/* pixels */
"...............",
"...............",
"...............",
"...............",
"...............",
"...............",
"....   ........",
"......    .....",
".........  ....",
".......... ....",
".........  ....",
"........  .....",
"........ ......",
"....... .......",
"...... ........",
"..... .........",
"....  .........",
"....   ........",
"....... .......",
".......  ......",
"........ ......",
"........ ......",
"........ ......",
"........ ......",
"........ ......",
".......  ......",
"....... .......",
"...... ........",
".....  ........",
"....  .........",
"...  ..........",
"...  ..........",
".....  ........",
"......  .......",
".......  ......",
"........ ......",
"........ ......",
"........ ......",
"........ ......",
"........ ......",
".......  ......",
".....   .......",
".....  ........",
"......  .......",
".......   .....",
"......... .....",
".........  ....",
".......... ....",
".......... ....",
".......... ....",
".......... ....",
"..........  ...",
"........... ...",
"........... ...",
"........... ...",
".......... ....",
".......... ....",
"........  .....",
"......   ......",
"....   ........",
".....   .......",
"....... .......",
"........ ......",
"........ ......",
"........ ......",
"........ ......",
"........ ......",
"........ ......",
"........ ......",
"........ ......",
"........ ......",
".......  ......",
"....... .......",
"..      .......",
"..    .........",
".....   .......",
".......  ......",
"........  .....",
"......... .....",
"......... .....",
"......... .....",
"......... .....",
"......... .....",
"......... .....",
"........  .....",
".......  ......",
"...............",
"...............",
"...............",
"..............."
};
