/* XPM */
static char *_08b25a329aa4c8fa1a38982a13d71e2angh3OWwNb3QD8Px[] = {
/* columns rows colors chars-per-pixel */
"90 90 3 1 ",
"  c black",
". c #1E594A",
"X c #6CA66C",
/* pixels */
"                                                                                          ",
"                                                                                          ",
"                                                                                          ",
"                                                                                          ",
"                                                                                          ",
"                                                                                          ",
"                                                                                          ",
"                                                                                          ",
"                                                                                          ",
"                                                                                          ",
"                                                                                          ",
"                                                                                          ",
"                                                                                          ",
"                                                                                          ",
"                                                                                          ",
"                                                                                          ",
"                                      ........                                            ",
"                                     ..XXXXXXX...                                         ",
"                                     .XXXXXXXXXX..                                        ",
"                                    ..XXXXXXXXXXX.                                        ",
"                                    .XXXXXXXXXXXX..                                       ",
"                                   ..XXXXXXXXXXXXX.                                       ",
"                                   .XXXXXXXXXXXXXX.                                       ",
"                                   .XXXXXXXXXXXXXX.                                       ",
"                                   .XXXXXXXXXXXXXXX.                                      ",
"                                   .XXXXXXXXXXXXXXX.                                      ",
"                                   .XXXXXXXXXXXXXXX.                                      ",
"                                  ..XXXXXXXXXXXXXXXX.                                     ",
"                                  .XXXXXXXXXXXXXXXXX.                                     ",
"                                  .XXXXXXXXXXXXXXXXX..                                    ",
"                                 ..XXXXXXXXXXXXXXXXXX..        ............               ",
"                                 .XXXXXXXXXXXXXXXXXXXX..........XXXXXXXXXX....            ",
"                                ..XXXXXXXXXXXXXXXXXXXXXXXXXXXXXXXXXXXXXXXXXXXX..          ",
"                                .XXXXXXXXXXXXXXXXXXXXXXXXXXXXXXXXXXXXXXXXXXXXXX.          ",
"                               ..XXXXXXXXXXXXXXXXXXXXXXXXXXXXXXXXXXXXXXXXXXXXXXX.         ",
"                               .XXXXXXXXXXXXXXXXXXXXXXXXXXXXXXXXXXXXXXXXXXXXXXXX.         ",
"                              ..XXXXXXXXXXXXXXXXXXXXXXXXXXXXXXXXXXXXXXXXXXXXXXXX.         ",
"                             ..XXXXXXXXXXXXXXXXXXXXXXXXXXXXXXXXXXXXXXXXXXXXXXXXX.         ",
"                       .......XXXXXXXXXXXXXXXXXXXXXXXXXXXXXXXXXXXXXXXXXXXXXXXXXX.         ",
"                ........XXXXXXXXXXXXXXXXXXXXXXXXXXXXXXXXXXXXXXXXXXXXXXXXXXXXXXX.          ",
"             ....XXXXXXXXXXXXXXXXXXXXXXXXXXXXXXXXXXXXXXXXXXXXXXXXXXXXXXXXXXXXXX.          ",
"            ..XXXXXXXXXXXXXXXXXXXXXXXXXXXXXXXXXXXXXXXXXXXXXXXXXXXXXXXXXXXXXXXX.           ",
"           ..XXXXXXXXXXXXXXXXXXXXXXXXXXXXXXXXXXXXXXXXXXXXXXXXXXXXXXXXXXXXXXXX..           ",
"           .XXXXXXXXXXXXXXXXXXXXXXXXXXXXXXXXXXXXXXXXXXXXXXXXXXXXXXXXXXXXXXXXX.            ",
"           .XXXXXXXXXXXXXXXXXXXXXXXXXXXXXXXXXXXXXXXXXXXXXXXXXXXXXXXXXXXXXXXX.             ",
"           .XXXXXXXXXXXXXXXXXXXXXXXXXXXXXXXXXXXXXXXXXXXXXXXXXXXXXXXXXXXXXX..              ",
"           ..XXXXXXXXXXXXXXXXXXXXXXXXXXXXXXXXXXXXXXXXXXXXXXXXXXXXXX.......                ",
"            ..XXXXXXXXXXXXXXXXXXXXXXXXXXXXXXXXXXXXXXXXXXXXXXXX.....                       ",
"             ...XXXXXXXXXXXXXXXXXXXXXXXXXXXXXXXXXXXXXXXXXXXXXX.                           ",
"               ...XXXXXXXXXXXXXXXXXXXXXXXXXXXXXXXXXXXXXXXXXXXX.                           ",
"                 .......XXXXXXXXXXXXXXXXXXXXXXXXXXXXXXXXXXXXXX.                           ",
"                       ..XXXXXXXXXXXXXXXXXXXXXXXXXXXXXXXXXXXXXX..                         ",
"                         .XXXXXXXXXXXXXXXXXXXXXXXXXXXXXXXXXXXXXX..                        ",
"                         .XXXXXXXXXXXXXXXXXXXXXXXXXXXXXXXXXXXXXXX..                       ",
"                         .XXXXXXXXXXXXXXXXXXXXXXXXXXXXXXXXXXXXXXXX.                       ",
"                         .XXXXXXXXXXXXXXXXXXXXXXXXXXXXXXXXXXXXXXXX..                      ",
"                         .XXXXXXXXXXXXXXXXXXXXXXXXXXXXXXXXXXXXXXXXX.                      ",
"                         .XXXXXXXXXXXXXXXXXXXXXXXXXXXXXXXXXXXXXXXXX.                      ",
"                         .XXXXXXXXXXXXXXXXXXXXXXXXXXXXXXXXXXXXXXXXX..                     ",
"                        ..XXXXXXXXXXXXXXXXXXXXXXXXXXXXXXXXXXXXXXXXXX.                     ",
"                        .XXXXXXXXXXXXXXXXXXXXXXXXXXXXXXXXXXXXXXXXXXX.                     ",
"                       ..XXXXXXXXXXXXXXXXXXXXXXXXXXXXXXXXXXXXXXXXXXX.                     ",
"                       .XXXXXXXXXXXXXXXXXXXXXXXXXXXXXXXXXXXXXXXXXXXX.                     ",
"                       .XXXXXXXXXXXXXXXXX...........XXXXXXXXXXXXXXXX.                     ",
"                       .XXXXXXXXXXXXXXX...         ..XXXXXXXXXXXXXXX.                     ",
"                       .XXXXXXXXXXXXXX..            ..XXXXXXXXXXXXXX.                     ",
"                       .XXXXXXXXXXXXX.               ..XXXXXXXXXXXX.                      ",
"                       .XXXXXXXXXXX..                 ..XXXXXXXXXX..                      ",
"                       .XXXXXXXXXX..                   ...XXXXXX..                        ",
"                        ..XXXXXX...                      ........                         ",
"                         ........                                                         ",
"                                                                                          ",
"                                                                                          ",
"                                                                                          ",
"                                                                                          ",
"                                                                                          ",
"                                                                                          ",
"                                                                                          ",
"                                                                                          ",
"                                                                                          ",
"                                                                                          ",
"                                                                                          ",
"                                                                                          ",
"                                                                                          ",
"                                                                                          ",
"                                                                                          ",
"                                                                                          ",
"                                                                                          ",
"                                                                                          ",
"                                                                                          "
};
