/* XPM */
static char *_0eb10d2cbc54314c9c14ef909c7515f7VXAeArIPMkG7Uwi[] = {
/* columns rows colors chars-per-pixel */
"15 15 2 1 ",
"  c #00334C",
". c gray92",
/* pixels */
"...............",
"...............",
"...............",
"..... .........",
".....          ",
".....          ",
".....  ........",
".....  ........",
".....  ........",
".....  ........",
".....  ........",
".....  ........",
".....  ........",
".....  ........",
".....  ........"
};
