/* XPM */
static char *b2d2e88d3a3b43aff89c97e9b229a5e5dd1n25c5kVHaF4li[] = {
/* columns rows colors chars-per-pixel */
"90 90 2 1 ",
"  c #00131A",
". c #1E594A",
/* pixels */
"                                                                                          ",
"                                                                                          ",
"                                                                                          ",
"                                                                                          ",
"                                                                                          ",
"                                                                                          ",
"                                                                                          ",
"                                                                                          ",
"                                                                                          ",
"                                                                                          ",
"                                                                                          ",
"                                                                                          ",
"                                                                                          ",
" .........................................................................................",
"                   ..........................                                             ",
"                                             .................                            ",
"                                                              ..................          ",
"                                                                                .......   ",
"                                                             ........................     ",
"                               ..............................                             ",
"      .........................                                                           ",
".......................................................................                   ",
"                                                                                          ",
"                                                                                          ",
"                                                                                          ",
"                                                                                          ",
"                                       ..............................................     ",
"                         ..............                                                   ",
"               ..........                                                                 ",
"       ........                                                                           ",
" ......                                                                                   ",
".                               ..........................................................",
"................................................................................          ",
"                                         ..............                                   ",
"                             ............                                                 ",
"                  ...........                                                             ",
"        ..........                                                                        ",
" .........................................................................................",
"                             .............................................................",
"               ..............                                                             ",
"    ...........                                                                           ",
"....                                                                                      ",
"                                                                                          ",
"                                                                                          ",
"..........................................................................................",
"               ...................                                                        ",
" ..............                                                                           ",
"...................................................................................       ",
"                                               .........                                  ",
"                                     ..........                                           ",
"                              .......                                                     ",
"                       .......                                                            ",
"                .......                                                                   ",
"          ......                                                                          ",
"    ......                                                                                ",
"....                                                                                      ",
"....................................................................................      ",
"                                                                        ...........       ",
"                                                           .............                  ",
"                                               ............                               ",
"        ..................................................................................",
"                                                                                          ",
"                                                                                          ",
"                                                                                          ",
"                                                                                          ",
"                                                                                          ",
"                                                                                          ",
"                                                                                          ",
"                                                                                          ",
"                                                                                          ",
"                                                                                          ",
"                                                                                          ",
"                        .....                                                             ",
"                            ..........                                                    ",
".......................................                                                   ",
".......                                                                                   ",
"       ......................................                                             ",
"             ....................                                                         ",
".............                                                                            .",
"                                                                                       ...",
"                                                                                ........  ",
"..................................................................................        ",
"                                                                                          ",
"                                                                                          ",
"                                                                                          ",
"                                                                                          ",
"                                                                                          ",
"                                                                                          ",
"                                                                                          ",
"                                                                                          "
};
