/* XPM */
static char *_8a525ac386641f8c2c441f0d19e82e0q4OE0nsShEkXWCvf[] = {
/* columns rows colors chars-per-pixel */
"15 90 4 1 ",
"  c gray15",
". c #535353",
"X c #717171",
"o c gray94",
/* pixels */
"oXXXXX....     ",
"oXXXXX....     ",
"oXXXXX....     ",
"oXXXXX....     ",
"oXXXXX....     ",
"oXXXXX....     ",
"oXXXXX....     ",
"oXXXXX....     ",
"oXXXXX....     ",
"oXXXXX....     ",
"oXXXXX....     ",
"oXXXXX....     ",
"oXXXXX....     ",
"oXXXXX....     ",
"oXXXXX....     ",
"oXXXXX....     ",
"oXXXXX....     ",
"oXXXXX....     ",
"oXXXXX....     ",
"oXXXXX....     ",
"oXXXXX....     ",
"oXXXXX....     ",
"oXXXXX....     ",
"oXXXXX....     ",
"oXXXXX....     ",
"oXXXXX....     ",
"oXXXXX....     ",
"oXXXXX....     ",
"oXXXXX....     ",
"oXXXXX....     ",
"oXXXXX....     ",
"oXXXXX....     ",
"oXXXXX....     ",
"oXXXXX....     ",
"oXXXXX....     ",
"oXXXXX....     ",
"oXXXXX....     ",
"oXXXXX....     ",
"oXXXXX....     ",
"oXXXXX....     ",
"oXXXXX....     ",
"oXXXXX....     ",
"oXXXXX....     ",
"oXXXXX....     ",
"oXXXXX....     ",
"oXXXXX....     ",
"oXXXXX....     ",
"oXXXXX....     ",
"oXXXXX....     ",
"oXXXXX....     ",
"oXXXXX....     ",
"oXXXXX....     ",
"oXXXXX....     ",
"oXXXXX....     ",
"oXXXXX....     ",
"oXXXXX....     ",
"oXXXXX....     ",
"oXXXXX....     ",
"oXXXXX....     ",
"oXXXXX....     ",
"oXXXXX....     ",
"oXXXXX....     ",
"oXXXXX....     ",
"oXXXXX....     ",
"oXXXXX....     ",
"oXXXXX....     ",
"oXXXXX....     ",
"oXXXXX....     ",
"oXXXXX....     ",
"oXXXXX....     ",
"oXXXXX....     ",
"oXXXXX....     ",
"oXXXXX....     ",
"oXXXXX....     ",
"oXXXXX....     ",
"oXXXXX....     ",
"oXXXXX....     ",
"oXXXXX....     ",
"oXXXXX....     ",
"oXXXXX....     ",
"oXXXXX....     ",
"oXXXXX....     ",
"oXXXXX....     ",
"oXXXXX....     ",
"oXXXXX....     ",
"oXXXXX....     ",
"oXXXXX....     ",
"oXXXXX....     ",
"oXXXXX....     ",
"oXXXXX....     "
};
