/* XPM */
static char *b6845b907549421596e00aa61033474fY2Y8etJOunPLwGgv[] = {
/* columns rows colors chars-per-pixel */
"90 90 5 1 ",
"  c gray15",
". c #535353",
"X c #717171",
"o c gray78",
"O c gray94",
/* pixels */
"                                                                                          ",
"                                                                                          ",
"                                                                                          ",
"                    .      ...    .            ...          .    ...          .    ...    ",
"        ..... .      . . ...  ... .   .. .  ..   ... . ..   . ..   ... . ..   . ..   ... .",
"      ........ . . ... ...  .  ...  .....  ...  .  .  .....  ...  .  .  .....  ...  .  ...",
"     ............ . .  ..     . .. .    . ..  .     . .    . .  .     . .    . .  .     . ",
"     ........... . . ..  ......  ..  .......  ............  ..  ............  ..  ....... ",
"    ........................X........X..X.......X.....X..X........X.....X..X........X.....",
"    ..........XXXX.X.X.XX.XX.XX.XX.XX.XX.XXXX.XX.XX.XX.XX.XX.XX.XX.XX.XX.XX.XX.XX.XX.XX.XX",
"    ........XXXXXXX.X.X..X..X..X..X..X..X....X..X..X..X..X..X..X..X..X..X..X..X..X..X..X..",
"    .......XXXXXXXXX.X.XX.XX.XX.XX.XX.XX.XXXX.XX.XX.XX.XX.XX.XX.XX.XX.XX.XX.XX.XX.XX.XX.XX",
"    ......XXXXXXXXXXX.X..X..X..X..X..X..X....X..X..X..X..X..X..X..X..X..X..X..X..X..X..X..",
"    ......XXXXXXXXXXXXXXXXXXXXXXXXXXXXXXXXXXXXXXXXXXXXXXXXXXXXXXXXXXXXXXXXXXXXXXXXXXXXXXXX",
"     ....XXXXXXXXXXOOOOXXOXXOXXOXXOXXOXXOXXXXOXXOXXOXXOXXOXXOXXOXXOXXOXXOXXOXXOXXOXXOXXOXX",
"      ...XXXXXXXXOOOOOOOOXOOOOOOOOXOOXOOXOOOOOOOOOOXOOXOOXOOXOOOOOOOOXOOXOOXOOXOOOOOOOOXOO",
"    .. ..XXXXXXXOOOOOOOOOOXOXOOXOXOXOOXOOOXXOXOOXOXOXOOOXOOXOXOXOOXOXOXOOOXOOXOXOXOOXOXOXO",
"    . ...XXXXXXOOOOOOOOOOOOOOOOOOOOOOOOOOOOOOOOOOOOOOOOOOOOOOOOOOOOOOOOOOOOOOOOOOOOOOOOOOO",
"       . XXXXXXOOOOOOOOOOOOOOOOOOOOOOOOOOOOOOOOOOOOOOOOOOOOOOOOOOOoooOOOOOoooooooooooOOOOO",
"    . . ..XXXXOOOOOOOOOOoooooooOoooOoooooOoooOooooooooooooooooooooooooooooooooooOooooooooo",
"       . X.XXXOOOOOOOOooooooooooooooooOoooooooooooooooooooooooooooooooooooOooooooooooooooo",
"      . ..X.XXOOOOOOOooooooOooOoooooooooooooooOoooooooooooooooooOoooooooooooooooooOooooooo",
"    . .. X.X.XOOOOOOoooooooooooooooooooOOoooooooooooooOOooooooooooooooooOOoooooooooooooooo",
"     .. ..X.X.OOOOOOoooOoooooooooooooooooooooooooooooooooooooooooooooooooooooooooooooooooo",
"    .   .X.X.XXOOOOoooooooooooooooOoOoooooooooooooooooooooOoOoooooooooooooooOoOooooooooooo",
"     ... .X.X.OXOOOoooooooooooooooOoooooooooooooooOoooooooooOoooooooOoooooooooOoooooooOooo",
"      .. .X.X.OXOOOOoooooooooooooooooooooOoooooooooooOooooooooooooooOooOoooooooooooooooooo",
"    ... .X.X.XXOXOOooooooooooooooooooooooooooooooooooooooooooooooooooooooooooooooooooooooo",
"     .  ..X.X.OXOXOoooooooOooooooooooooooooooooooooooooooooooooooooooooooooooooooooooooooo",
"    ..  ..X.X.OXOOOooooooooooooooooooooooooooooooooooooooooooOOooooooooooooooooooooooooooo",
"    . . .X.X.XXOOXOOoooooooooooooooooooooooooooooooooooooooooooooooooooooooooooooooooooooo",
"    .   ..X.X.OXOOOooooooooooooooooooooooooooooooooooooooooooooooooooooooooooooooooooooooo",
"    .  ...X.X.OXOOOoooOooooooooooooooooooooooooooooooooooooooooooooooooooooooooooooooooooo",
"    ...  X.X.XXOOXOOOooooooooooooooooooooooooooooooooooooooooooooooooooooooOoooooooooooooo",
"     ..  .X.X.OXOOOooooooooooooooooooooooooooooooooooooooooooooooooooooooooooooooooooooooo",
"      ....X.X.OXOXOoooooooooooooooooooooooooooooooooOooooooooooooooooooooooooooooooooooooo",
"    ..  .X.X.XXOXOOooooooOOooooooooooooooooooooooooooooooooooooooooooooooooooooooooooooooo",
"    .  . .X.X.OXOXOoOooooooooooooooooooooooooooooooooooooooooooooooooooooooooooooooooooooo",
"    . .  .X.X.OXOOOooooooOoooooooooooooooooooooooooooooooooooooooooooooooooooooooooooooooo",
"      . .X.X.XXOXOOooooooooooooooooooooooooooooooooooooooooooooooooooooooooooooooooooooooo",
"     .. ..X.X.OXOXOooOoooooooooooooooooooooooooooooooooooooooooooooooooooooooooooooooooooo",
"    ... ..X.X.OXOOOooooOoooooooooooooooooooooooooooooooooooooooooooooooooooooooooooOoooooo",
"    . ...X.X.XXOXOOooooOoooooooooooooooooooooooooooooooooooooooooooooooooooooooooooooooooo",
"     .  ..X.X.OXOOOOOooooooOoooooooooooooooooooooooooooooooooooooooooooooooooooooooooooooo",
"       ...X.X.OXOXOooooooooooooooooooooooooooooooooooooooooooooooooooooooooooooooooooooooo",
"    ... .X.X.XXOXOOooooooooooooooooooooooooooooooooooooooooooooooooooooooooooooooooooooooo",
"     .  ..X.X.OXOXOoooooooOooooooooooooooooooooooooooooooooooooooooooooooooooooooooooooooo",
"    ..  ..X.X.OXOOOooooooooooooooooooooooooooooooooooooooooooooooooooooooooooooooooooooooo",
"    . . .X.X.XXOOXOooooooooooooooooooooooooooooooooooooooooooooooooooooooooooooooooooooooo",
"    .   ..X.X.OXOOOoooooooooooooooooooooooOooooooooooooooooooooooooooooooooooooooooooooooo",
"    .  ...X.X.OXOOOoooOooooooooooooooooooooooooooooooooooooooooooooooooooooooooooooooooooo",
"    ...  X.X.XXOOXOooooooooooooooooooooooooooooooooooooooooooooooooooooooooooooooooooooooo",
"     ..  .X.X.OXOOOoOooooooooooooooooooooooooooooooooooooooooooooooooooooooooooooooooooooo",
"      ....X.X.OXOXOooooooooooooooooooooooooooooooooooooooooooooooooooooooooooooooooooooooo",
"    ..  .X.X.XXOXOOooooooOOooooooooooooooooooooooooooooooooooooooooooooooooooooooooooooooo",
"    .  . .X.X.OXOXOooooooooooooooooooooooooooooooooooooooooooooooooooooooooooooooooooooooo",
"    . .  .X.X.OXOOOooooooOoooooooooooooooooooooooooooooooooooooooooooooooooooooooooooooooo",
"      . .X.X.XXOXOOoooooooooooooooOooooooooooooooooooooooooooooooooooooooooooooooooooooooo",
"     .. ..X.X.OXOXOooOoooooooooooooooooooooooooooooooooooooooooooooooooooooooooooooooooooo",
"    ... ..X.X.OXOOOooooOoooooooooooooooooooooooooooooooooooooooooooooooooooooooooooooooooo",
"    . ...X.X.XXOXOOooooOoooooooooooooooooooooooooooooooooooooooooooooooooooooooooooooooooo",
"     .  ..X.X.OXOOOOoooooooOoooooooooooooooooooooooooooooooooooooooooooooooooooooooooooooo",
"       ...X.X.OXOXOooooooooooooooooooooooooooooooooooooooooooooooooooooooooooooooooooooooo",
"    ... .X.X.XXOXOOooooooooooooooooooooooooooooooooooooooooooooooooooooooooooooooooooooooo",
"     .  ..X.X.OXOXOoooooooOOoooooooooooooooooooooooooooooooooooooooooooooooooooooooooooooo",
"    ..  ..X.X.OXOOOooooooooooooooooooooooooooooooooooooooooooooooooooooooooooooooooooooooo",
"    . . .X.X.XXOOXOooooooooooooooooooooooooooooooooooooooooooooooooooooooooooooooooooooooo",
"    .   ..X.X.OXOOOooooooooooooooooooooooooooooooooooooooooooooooooooooooooooooooooooooooo",
"    .  ...X.X.OXOOOoooOooooooooooooooooooooooooooooooooooooooooooooooooooooooooooooooooooo",
"    ...  X.X.XXOOXOOoooooooooooooooooooooooooooooooooooooooooooooooooooooooooooooooooooooo",
"     ..  .X.X.OXOOOoooooooooooOooooooooooooooooooooooooooooooooooooooooooooooooooooooooooo",
"      ....X.X.OXOXOoooooooooooOooooooooooooooooooooooooooooooooooooooooooooooooooooooooooo",
"    ..  .X.X.XXOXOOooooooOOooooooooooooooooooooooooooooooooooooooooooooooooooooooooooooooo",
"    .  . .X.X.OXOXOooooooooooooooooooooooooooooooooooooooooooooooooooooooooooooooooooooooo",
"    . .  .X.X.OXOOOooooooOoooooooooooooooooooooooooooooooooooooooooooooooooooooooooooooooo",
"      . .X.X.XXOXOOooooooooooooooooooooooooooooooooooooooooooooooooooooooooooooooooooooooo",
"     .. ..X.X.OXOXOooooooooooooooooooooooooooooooooooooooooooooooooooooooooooooooooooooooo",
"    ... ..X.X.OXOOOooooOoooooooooooooooooooooooooooooooooooooooooooooooooooooooooooooooooo",
"    . ...X.X.XXOXOOooooOoooooooooooooooooooooooooooooooooooooooooooooooooooooooooooooooooo",
"     .  ..X.X.OXOOOOoooooooOoooooooooooooooooooooooooooooooooooooooooooooooooooooooooooooo",
"       ...X.X.OXOXOoooooooooooooooooOooooooooooooooooooooooooooooooooooooooooooooooooooooo",
"    ... .X.X.XXOXOOooooooooooooooooooooooooooooooooooooooooooooooooooooooooooooooooooooooo",
"     .  ..X.X.OXOXOoooooooOooooooooooooooooooooooooooooooooooooooooooooooooooooooooooooooo",
"    ..  ..X.X.OXOOOooooooooooooooooooooooooooooooooooooooooooooooooooooooooooooooooooooooo",
"    . . .X.X.XXOOXOOoooooooooooooooooooooooooooooooooooooooooooooooooooooooooooooooooooooo",
"    .   ..X.X.OXOOOooooooooooooooooooooooooooooooooooooooooooooooooooooooooooooooooooooooo",
"    .  ...X.X.OXOOOoooOooooooooooooooooooooooooooooooooooooooooooooooooooooooooooooooooooo",
"    ...  X.X.XXOOXOOOooooooooooooooooooooooooooooooooooooooooooooooooooooooooooooooooooooo",
"     ..  .X.X.OXOOOooooooooooooooooooooooooooooooooooooooooooooooooooooooooooooooooooooooo",
"      ....X.X.OXOXOooooooooooooooooooooooooooooooooooooooooooooooooooooooooooooooooooooooo"
};
