/* XPM */
static char *b5b42bc288dd4bdddd8aff3873d5b8caDDJDxEaIf3tVsbbi[] = {
/* columns rows colors chars-per-pixel */
"90 90 5 1 ",
"  c gray15",
". c #535353",
"X c #717171",
"o c gray78",
"O c gray94",
/* pixels */
"     ....XXXXXOOOOOooooooooooooooooooooooooooooooooooooooooooooooooooooooooooooooooooooooo",
"     ....XXXXXOOOOOooooooooooooooooooooooooooooooooooooooooooooooooooooooooooooooooooooooo",
"     ....XXXXXOOOOOooooooooooooooooooooooooooooooooooooooooooooooooooooooooooooooooooooooo",
"     ....XXXXXOOOOOooooooooooooooooooooooooooooooooooooooooooooooooooooooooooooooooooooooo",
"     ....XXXXXOOOOOooooooooooooooooooooooooooooooooooooooooooooooooooooooooooooooooooooooo",
"     ....XXXXXOOOOOooooooooooooooooooooooooooooooooooooooooooooooooooooooooooooooooooooooo",
"     ....XXXXXOOOOOooooooooooooooooooooooooooooooooooooooooooooooooooooooooooooooooooooooo",
"     ....XXXXXOOOOOooooooooooooooooooooooooooooooooooooooooooooooooooooooooooooooooooooooo",
"     ....XXXXXOOOOOooooooooooooooooooooooooooooooooooooooooooooooooooooooooooooooooooooooo",
"     ....XXXXXOOOOOooooooooooooooooooooooooooooooooooooooooooooooooooooooooooooooooooooooo",
"     ....XXXXXOOOOOooooooooooooooooooooooooooooooooooooooooooooooooooooooooooooooooooooooo",
"     ....XXXXXOOOOOooooooooooooooooooooooooooooooooooooooooooooooooooooooooooooooooooooooo",
"     ....XXXXXOOOOOooooooooooooooooooooooooooooooooooooooooooooooooooooooooooooooooooooooo",
"     ....XXXXXOOOOOooooooooooooooooooooooooooooooooooooooooooooooooooooooooooooooooooooooo",
"     ....XXXXXOOOOOooooooooooooooooooooooooooooooooooooooooooooooooooooooooooooooooooooooo",
"     ....XXXXXOOOOOooooooooooooooooooooooooooooooooooooooooooooooooooooooooooooooooooooooo",
"     ....XXXXXOOOOOooooooooooooooooooooooooooooooooooooooooooooooooooooooooooooooooooooooo",
"     ....XXXXXOOOOOooooooooooooooooooooooooooooooooooooooooooooooooooooooooooooooooooooooo",
"     ....XXXXXOOOOOooooooooooooooooooooooooooooooooooooooooooooooooooooooooooooooooooooooo",
"     ....XXXXXOOOOOooooooooooooooooooooooooooooooooooooooooooooooooooooooooooooooooooooooo",
"     ....XXXXXOOOOOooooooooooooooooooooooooooooooooooooooooooooooooooooooooooooooooooooooo",
"     ....XXXXXOOOOOooooooooooooooooooooooooooooooooooooooooooooooooooooooooooooooooooooooo",
"     ....XXXXXOOOOOooooooooooooooooooooooooooooooooooooooooooooooooooooooooooooooooooooooo",
"     ....XXXXXOOOOOooooooooooooooooooooooooooooooooooooooooooooooooooooooooooooooooooooooo",
"     ....XXXXXOOOOOooooooooooooooooooooooooooooooooooooooooooooooooooooooooooooooooooooooo",
"     ....XXXXXOOOOOooooooooooooooooooooooooooooooooooooooooooooooooooooooooooooooooooooooo",
"     ....XXXXXOOOOOooooooooooooooooooooooooooooooooooooooooooooooooooooooooooooooooooooooo",
"     ....XXXXXOOOOOooooooooooooooooooooooooooooooooooooooooooooooooooooooooooooooooooooooo",
"     ....XXXXXOOOOOooooooooooooooooooooooooooooooooooooooooooooooooooooooooooooooooooooooo",
"     ....XXXXXOOOOOooooooooooooooooooooooooooooooooooooooooooooooooooooooooooooooooooooooo",
"     ....XXXXXOOOOOooooooooooooooooooooooooooooooooooooooooooooooooooooooooooooooooooooooo",
"     ....XXXXXOOOOOooooooooooooooooooooooooooooooooooooooooooooooooooooooooooooooooooooooo",
"     ....XXXXXOOOOOooooooooooooooooooooooooooooooooooooooooooooooooooooooooooooooooooooooo",
"     ....XXXXXOOOOOooooooooooooooooooooooooooooooooooooooooooooooooooooooooooooooooooooooo",
"     ....XXXXXOOOOOooooooooooooooooooooooooooooooooooooooooooooooooooooooooooooooooooooooo",
"     ....XXXXXOOOOOooooooooooooooooooooooooooooooooooooooooooooooooooooooooooooooooooooooo",
"     ....XXXXXOOOOOooooooooooooooooooooooooooooooooooooooooooooooooooooooooooooooooooooooo",
"     ....XXXXXOOOOOooooooooooooooooooooooooooooooooooooooooooooooooooooooooooooooooooooooo",
"     ....XXXXXOOOOOooooooooooooooooooooooooooooooooooooooooooooooooooooooooooooooooooooooo",
"     ....XXXXXOOOOOooooooooooooooooooooooooooooooooooooooooooooooooooooooooooooooooooooooo",
"     ....XXXXXOOOOOooooooooooooooooooooooooooooooooooooooooooooooooooooooooooooooooooooooo",
"     ....XXXXXOOOOOooooooooooooooooooooooooooooooooooooooooooooooooooooooooooooooooooooooo",
"     ....XXXXXOOOOOooooooooooooooooooooooooooooooooooooooooooooooooooooooooooooooooooooooo",
"     ....XXXXXOOOOOooooooooooooooooooooooooooooooooooooooooooooooooooooooooooooooooooooooo",
"     ....XXXXXOOOOOooooooooooooooooooooooooooooooooooooooooooooooooooooooooooooooooooooooo",
"     ....XXXXXOOOOOooooooooooooooooooooooooooooooooooooooooooooooooooooooooooooooooooooooo",
"     ....XXXXXOOOOOooooooooooooooooooooooooooooooooooooooooooooooooooooooooooooooooooooooo",
"     ....XXXXXOOOOOooooooooooooooooooooooooooooooooooooooooooooooooooooooooooooooooooooooo",
"     ....XXXXXOOOOOooooooooooooooooooooooooooooooooooooooooooooooooooooooooooooooooooooooo",
"     ....XXXXXOOOOOooooooooooooooooooooooooooooooooooooooooooooooooooooooooooooooooooooooo",
"     ....XXXXXOOOOOooooooooooooooooooooooooooooooooooooooooooooooooooooooooooooooooooooooo",
"     ....XXXXXOOOOOooooooooooooooooooooooooooooooooooooooooooooooooooooooooooooooooooooooo",
"     ....XXXXXOOOOOooooooooooooooooooooooooooooooooooooooooooooooooooooooooooooooooooooooo",
"     ....XXXXXOOOOOooooooooooooooooooooooooooooooooooooooooooooooooooooooooooooooooooooooo",
"     ....XXXXXOOOOOooooooooooooooooooooooooooooooooooooooooooooooooooooooooooooooooooooooo",
"     ....XXXXXOOOOOooooooooooooooooooooooooooooooooooooooooooooooooooooooooooooooooooooooo",
"     ....XXXXXOOOOOooooooooooooooooooooooooooooooooooooooooooooooooooooooooooooooooooooooo",
"     ....XXXXXOOOOOooooooooooooooooooooooooooooooooooooooooooooooooooooooooooooooooooooooo",
"     ....XXXXXOOOOOooooooooooooooooooooooooooooooooooooooooooooooooooooooooooooooooooooooo",
"     ....XXXXXOOOOOooooooooooooooooooooooooooooooooooooooooooooooooooooooooooooooooooooooo",
"     ....XXXXXOOOOOooooooooooooooooooooooooooooooooooooooooooooooooooooooooooooooooooooooo",
"     ....XXXXXOOOOOooooooooooooooooooooooooooooooooooooooooooooooooooooooooooooooooooooooo",
"     ....XXXXXOOOOOooooooooooooooooooooooooooooooooooooooooooooooooooooooooooooooooooooooo",
"     ....XXXXXOOOOOooooooooooooooooooooooooooooooooooooooooooooooooooooooooooooooooooooooo",
"     ....XXXXXOOOOOooooooooooooooooooooooooooooooooooooooooooooooooooooooooooooooooooooooo",
"     ....XXXXXOOOOOooooooooooooooooooooooooooooooooooooooooooooooooooooooooooooooooooooooo",
"     ....XXXXXOOOOOooooooooooooooooooooooooooooooooooooooooooooooooooooooooooooooooooooooo",
"     ....XXXXXOOOOOooooooooooooooooooooooooooooooooooooooooooooooooooooooooooooooooooooooo",
"     ....XXXXXOOOOOooooooooooooooooooooooooooooooooooooooooooooooooooooooooooooooooooooooo",
"     ....XXXXXOOOOOooooooooooooooooooooooooooooooooooooooooooooooooooooooooooooooooooooooo",
"     ....XXXXXOOOOOooooooooooooooooooooooooooooooooooooooooooooooooooooooooooooooooooooooo",
"     ....XXXXXOOOOOooooooooooooooooooooooooooooooooooooooooooooooooooooooooooooooooooooooo",
"     ....XXXXXOOOOOooooooooooooooooooooooooooooooooooooooooooooooooooooooooooooooooooooooo",
"     ....XXXXXOOOOOooooooooooooooooooooooooooooooooooooooooooooooooooooooooooooooooooooooo",
"     ....XXXXXOOOOOooooooooooooooooooooooooooooooooooooooooooooooooooooooooooooooooooooooo",
"     ....XXXXXOOOOOooooooooooooooooooooooooooooooooooooooooooooooooooooooooooooooooooooooo",
"     ....XXXXXOOOOOooooooooooooooooooooooooooooooooooooooooooooooooooooooooooooooooooooooo",
"     ....XXXXXOOOOOooooooooooooooooooooooooooooooooooooooooooooooooooooooooooooooooooooooo",
"     ....XXXXXOOOOOooooooooooooooooooooooooooooooooooooooooooooooooooooooooooooooooooooooo",
"     ....XXXXXOOOOOooooooooooooooooooooooooooooooooooooooooooooooooooooooooooooooooooooooo",
"     ....XXXXXOOOOOooooooooooooooooooooooooooooooooooooooooooooooooooooooooooooooooooooooo",
"     ....XXXXXOOOOOooooooooooooooooooooooooooooooooooooooooooooooooooooooooooooooooooooooo",
"     ....XXXXXOOOOOooooooooooooooooooooooooooooooooooooooooooooooooooooooooooooooooooooooo",
"     ....XXXXXOOOOOooooooooooooooooooooooooooooooooooooooooooooooooooooooooooooooooooooooo",
"     ....XXXXXOOOOOooooooooooooooooooooooooooooooooooooooooooooooooooooooooooooooooooooooo",
"     ....XXXXXOOOOOooooooooooooooooooooooooooooooooooooooooooooooooooooooooooooooooooooooo",
"     ....XXXXXOOOOOooooooooooooooooooooooooooooooooooooooooooooooooooooooooooooooooooooooo",
"     ....XXXXXOOOOOooooooooooooooooooooooooooooooooooooooooooooooooooooooooooooooooooooooo",
"     ....XXXXXOOOOOooooooooooooooooooooooooooooooooooooooooooooooooooooooooooooooooooooooo",
"     ....XXXXXOOOOOooooooooooooooooooooooooooooooooooooooooooooooooooooooooooooooooooooooo"
};
