/* XPM */
static char *result[] = {
/* columns rows colors chars-per-pixel */
"90 90 5 1 ",
"  c #00131A",
". c #1E594A",
"X c #6CA66C",
"o c #8EBB8E",
"O c #D7F7D7",
/* pixels */
"XXooooooooooooooooooooooooooooooooooooooooooooooooooooooooooooooooooooooooooooooooooooooXX",
"XXooooooooooooooooooooooooooooooooooooooooooooooooooooooooooooooooooooooooooooooooooooooXX",
"ooXXXXXXXXXXXXXXXXXXXXXXXXXXXXXXXXXXXXXXXXXXXXXXXXXXXXXXXXXXXXXXXXXXXXXXXXXXXXXXXXXXXXXXoo",
"ooXXXXXXXXXXXXXXXXXXXXXXXXXXXXXXXXXXXXXXXXXXXXXXXXXXXXXXXXXXXXXXXXXXXXXXXXXXXXXXXXXXXXXXoo",
"ooXXXXXXXXXXXXXXXXXXXXXXXXXXXXXXXXXXXXXXXXXXXXXXXXXXXXXXXXXXXXXXXXXXXXXXXXXXXXXXXXXXXXXXoo",
"ooXXXXXXXXXXXXXXXXXXXXXXXXXXXXXXXXXXXXXXXXXXXXXXXXXXXXXXXXXXXXXXXXXXXXXXXXXXXXXXXXXXXXXXoo",
"ooXXXXXXXXXXXXXXXXXXXXXXXXXXXXXXXXXXXXXXXXXXXXXXXXXXXXXXXXXXXXXXXXXXXXXXXXXXXXXXXXXXXXXXoo",
"ooXXXXXXXXXXXXXXXXXXXXXXXXXXXXXXXXXXXXXXXXXXXXXXXXXXXXXXXXXXXXXXXXXXXXXXXXXXXXXXXXXXXXXXoo",
"ooXXXXXXXXXXXXXXXXXXXXXXXXXXXXXXXXXXXXXXXXXXXXXXXXXXXXXXXXXXXXXXXXXXXXXXXXXXXXXXXXXXXXXXoo",
"ooXXXXXXXXXXXXXXXXXXXXXXXXXXXXXXXXXXXXXXXXXXXXXXXXXXXXXXXXXXXXXXXXXXXXXXXXXXXXXXXXXXXXXXoo",
"ooXXXXXXXXXXXXXXXXXXXXXXXXXXXXXXXXXXXXXXXXXXXXXXXXXXXXXXXXXXXXXXXXXXXXXXXXXXXXXXXXXXXXXXoo",
"ooXXXXXXXXXXXXXXXXXXXXXXXXXXXXXXXXXXXXXXXXXXXXXXXXXXXXXXXXXXXXXXXXXXXXXXXXXXXXXXXXXXXXXXoo",
"ooXXXXXXXXXXXXXXXXXXXXXXXXXXXXXXXXXXXXXXXXXXXXXXXXXXXXXXXXXXXXXXXXXXXXXXXXXXXXOOOOXXXXXXoo",
"ooXXXXXXXXXXXXXXXXXXXXXXXXXXXXXXXXXXXXXXXXXXXXXXXXXXXXXXXXXXXXXXXXXXXXXXXXXXXXOOOOXXXXXXoo",
"ooXXXXXXXXXXXXXXXXXXXXXXXXXXXXXXXXXXXXXXXXXXXXXXXXXXXXXXXXXXXXXXXXXXXXXXXXXXOOOOOOXXXXXXoo",
"ooXXXXXXXXXXXXXXXXXXXXXXXXXXXXXXXXXXXXXXXXXXXXXXXXXXXXXXXXXXXXXXXXXXXXXXXXXXOOOOOOXXXXXXoo",
"ooXXXXXXXXXXXXXXXXXXXXXXXXXXXXXXXXXXXXXXXXXXXXXXXXXXXXXXXXXXXXXXXXXXXXXXXXXXOOOOXXOOXXXXoo",
"ooXXXXXXXXXXXXXXXXXXXXXXXXXXXXXXXXXXXXXXXXXXXXXXXXXXXXXXXXXXXXXXXXXXXXXXXXXXOOOOXXOOXXXXoo",
"ooXXXXXXXXXXXXXXXXXXXXXXXXXXXXXXXXXXXXXXXXXXXXXXXXXXXXXXXXXXXXXXXXXXXXXXXXXXOOOOXXOOXXXXoo",
"ooXXXXXXXXXXXXXXXXXXXXXXXXXXXXXXXXXXXXXXXXXXXXXXXXXXXXXXXXXXXXXXXXXXXXXXXXXXOOOOXXOOXXXXoo",
"ooXXXXXXXXXXXXXXXXXXXXXXXXXXXXXXXXXXXXXXXXXXXXXXXXXXXXXXXXXXXXXXXXXXXXXXXX..OOOOOOOOXXXXoo",
"ooXXXXXXXXXXXXXXXXXXXXXXXXXXXXXXXXXXXXXXXXXXXXXXXXXXXXXXXXXXXXXXXXXXXXXXXX..OOOOOOOOXXXXoo",
"ooXXXXXXXXXXXXXXXXXXXXXXXXXXXXXXXXXXXXXXXXXXXXXXXXXXXXXXXXXXXXOOOOOOXXXXXX..OOXXOOOOXXXXoo",
"ooXXXXXXXXXXXXXXXXXXXXXXXXXXXXXXXXXXXXXXXXXXXXXXXXXXXXXXXXXXXXOOOOOOXXXXXX..OOXXOOOOXXXXoo",
"ooXXXXXXXXXXXXXXXXXXXXXXXXXXXXXXXXXXXXXXXXXXXXXXXXXXXXXXOOOOOOOOOO..OOXX..OOOOOOOOOOXXXXoo",
"ooXXXXXXXXXXXXXXXXXXXXXXXXXXXXXXXXXXXXXXXXXXXXXXXXXXXXXXOOOOOOOOOO..OOXX..OOOOOOOOOOXXXXoo",
"ooXXXXXXXXXXXXXXXXXXXXXXXXXXXXXXXXXXXXXXXXXXXXOOOOOOOOOOOOOO......OOOOOO..OOXXOOOOOOXXXXoo",
"ooXXXXXXXXXXXXXXXXXXXXXXXXXXXXXXXXXXXXXXXXXXXXOOOOOOOOOOOOOO......OOOOOO..OOXXOOOOOOXXXXoo",
"ooXXXXXXOOOOOOOOXXXXXXXXXXXXXXXXXXXXXXXXOOOOOOOOOOOO........OOOOOOOOOOOOXXOOOOOOOOOOXXXXoo",
"ooXXXXXXOOOOOOOOXXXXXXXXXXXXXXXXXXXXXXXXOOOOOOOOOOOO........OOOOOOOOOOOOXXOOOOOOOOOOXXXXoo",
"ooXXXXXXOOOOOOOOOOXXXXXXXXXXXXXXXXOOOOOOOOOO........OOOOOOOOOOOO........OOXXOOOOOOOOXXXXoo",
"ooXXXXXXOOOOOOOOOOXXXXXXXXXXXXXXXXOOOOOOOOOO........OOOOOOOOOOOO........OOXXOOOOOOOOXXXXoo",
"ooXXXXOOXXOOOOOOOO..XXXXXXXXXXOOOOOOOO......OOOOOOOOOOOO................OOOOXXOOXXXXXXXXoo",
"ooXXXXOOXXOOOOOOOO..XXXXXXXXXXOOOOOOOO......OOOOOOOOOOOO................OOOOXXOOXXXXXXXXoo",
"ooXXXXOOOOXXOOOOOOOO..XXXXXXXXOO......OOOOOOOOOO..........................OOOOOOOOXXXXXXoo",
"ooXXXXOOOOXXOOOOOOOO..XXXXXXXXOO......OOOOOOOOOO..........................OOOOOOOOXXXXXXoo",
"ooXXXXXXOOOOXXOOOOOO....XXXXOOXXOOOOOOOOOO..............................XX..OOOOOOXXXXXXoo",
"ooXXXXXXOOOOXXOOOOOO....XXXXOOXXOOOOOOOOOO..............................XX..OOOOOOXXXXXXoo",
"ooXXXXXXOOOOOOOOXXOOOOOO....OOOOXXXX................XX..................XXXXOOOOXXXXXXXXoo",
"ooXXXXXXOOOOOOOOXXOOOOOO....OOOOXXXX................XX..................XXXXOOOOXXXXXXXXoo",
"ooXXXXXXXXOOOOOOOOOOXXXXXX..OOOOOOOO..............XXXXXXXX..............XXXXXXXXXXXXXXXXoo",
"ooXXXXXXXXOOOOOOOOOOXXXXXX..OOOOOOOO..............XXXXXXXX..............XXXXXXXXXXXXXXXXoo",
"ooXXXXXXXXOOOOOOOOOOOOXXOO..OOOOOOOO............XXXXXX..................XXXXXXXXXXXXXXXXoo",
"ooXXXXXXXXOOOOOOOOOOOOXXOO..OOOOOOOO............XXXXXX..................XXXXXXXXXXXXXXXXoo",
"ooXXXXXXXXXXOOOOOOOOOOOOOO..OOOOOOOO....................................XXXXXXXXXXXXXXXXoo",
"ooXXXXXXXXXXOOOOOOOOOOOOOO..OOOOOOOO....................................XXXXXXXXXXXXXXXXoo",
"ooXXXXXXXXXXXXOOOOOOXXOOOO..OOOOOOOO....................................XXXXXXXXXXXXXXXXoo",
"ooXXXXXXXXXXXXOOOOOOXXOOOO..OOOOOOOO....................................XXXXXXXXXXXXXXXXoo",
"ooXXXXXXXXXXXXOOXXXXOOOO..XX..OOOOOO....................................XXXXXXXXXXXXXXXXoo",
"ooXXXXXXXXXXXXOOXXXXOOOO..XX..OOOOOO....................................XXXXXXXXXXXXXXXXoo",
"ooXXXXXXXXXXXXOOOOOOOOOO..XXOOOOOOOO....................................XXXXXXXXXXXXXXXXoo",
"ooXXXXXXXXXXXXOOOOOOOOOO..XXOOOOOOOO....................................XXXXXXXXXXXXXXXXoo",
"ooXXXXXXXXXXXXXXOOOOOOOOXXXXOOOOOOOO............................    ....XXXXXXXXXXXXXXXXoo",
"ooXXXXXXXXXXXXXXOOOOOOOOXXXXOOOOOOOO............................    ....XXXXXXXXXXXXXXXXoo",
"ooXXXXXXXXXXXXXXXXXXXXXXXXXX..OOOOOO............................    ....XXXXXXXXXXXXXXXXoo",
"ooXXXXXXXXXXXXXXXXXXXXXXXXXX..OOOOOO............................    ....XXXXXXXXXXXXXXXXoo",
"ooXXXXXXXXXXXXXXXXXXXXXXXXXX..OOOOOO............................    ..OOXXXXXXXXXXXXXXXXoo",
"ooXXXXXXXXXXXXXXXXXXXXXXXXXX..OOOOOO............................    ..OOXXXXXXXXXXXXXXXXoo",
"ooXXXXXXXXXXXXXXXXXXXXXXXXXXOOOOOOOO......    ..................    ..OOXXXXXXXXXXXXXXXXoo",
"ooXXXXXXXXXXXXXXXXXXXXXXXXXXOOOOOOOO......    ..................    ..OOXXXXXXXXXXXXXXXXoo",
"ooXXXXXXXXXXXXXXXXXXXXXXXXXX..OOOOOO......    ....................  ....XXXXXXXXXXXXXXXXoo",
"ooXXXXXXXXXXXXXXXXXXXXXXXXXX..OOOOOO......    ....................  ....XXXXXXXXXXXXXXXXoo",
"ooXXXXXXXXXXXXXXXXXXXXXXXXXX..OOOOOO......    ..........................XXXXXXXXXXXXXXXXoo",
"ooXXXXXXXXXXXXXXXXXXXXXXXXXX..OOOOOO......    ..........................XXXXXXXXXXXXXXXXoo",
"ooXXXXXXXXXXXXXXXXXXXXXXXXXX  OOOOOO......    ..........................XXXXXXXXXXXXXXXXoo",
"ooXXXXXXXXXXXXXXXXXXXXXXXXXX  OOOOOO......    ..........................XXXXXXXXXXXXXXXXoo",
"ooXXXXXXXXXXXXXXXXXXXXXXXXXX  OOOOOO........  ........................XXXXXXXXXXXXXXXXXXoo",
"ooXXXXXXXXXXXXXXXXXXXXXXXXXX  OOOOOO........  ........................XXXXXXXXXXXXXXXXXXoo",
"ooXXXXXXXXXXXXXXXXXXXXXXXXXX  OOOOOO..OO..........................XXXXXXXXXXXXXXXXXXXXXXoo",
"ooXXXXXXXXXXXXXXXXXXXXXXXXXX  OOOOOO..OO..........................XXXXXXXXXXXXXXXXXXXXXXoo",
"ooXXXXXXXXXXXXXXXXXXXXXXXXXX  OOOOOO..OO..................XXXXXXXXXXXXXXXXXXXXXXXXXXXXXXoo",
"ooXXXXXXXXXXXXXXXXXXXXXXXXXX  OOOOOO..OO..................XXXXXXXXXXXXXXXXXXXXXXXXXXXXXXoo",
"ooXXXXXXXXXXXXXXXXXXXXXXXXXXXX    OO................XXXXXXXXXXXXXXXXXXXXXXXXXXXXXXXXXXXXoo",
"ooXXXXXXXXXXXXXXXXXXXXXXXXXXXX    OO................XXXXXXXXXXXXXXXXXXXXXXXXXXXXXXXXXXXXoo",
"ooXXXXXXXXXXXXXXXXXXXXXXXXXXXXXXXX  ........XXXXXXXXXXXXXXXXXXXXXXXXXXXXXXXXXXXXXXXXXXXXoo",
"ooXXXXXXXXXXXXXXXXXXXXXXXXXXXXXXXX  ........XXXXXXXXXXXXXXXXXXXXXXXXXXXXXXXXXXXXXXXXXXXXoo",
"ooXXXXXXXXXXXXXXXXXXXXXXXXXXXXXXXXXXXXXXXXXXXXXXXXXXXXXXXXXXXXXXXXXXXXXXXXXXXXXXXXXXXXXXoo",
"ooXXXXXXXXXXXXXXXXXXXXXXXXXXXXXXXXXXXXXXXXXXXXXXXXXXXXXXXXXXXXXXXXXXXXXXXXXXXXXXXXXXXXXXoo",
"ooXXXXXXXXXXXXXXXXXXXXXXXXXXXXXXXXXXXXXXXXXXXXXXXXXXXXXXXXXXXXXXXXXXXXXXXXXXXXXXXXXXXXXXoo",
"ooXXXXXXXXXXXXXXXXXXXXXXXXXXXXXXXXXXXXXXXXXXXXXXXXXXXXXXXXXXXXXXXXXXXXXXXXXXXXXXXXXXXXXXoo",
"ooXXXXXXXXXXXXXXXXXXXXXXXXXXXXXXXXXXXXXXXXXXXXXXXXXXXXXXXXXXXXXXXXXXXXXXXXXXXXXXXXXXXXXXoo",
"ooXXXXXXXXXXXXXXXXXXXXXXXXXXXXXXXXXXXXXXXXXXXXXXXXXXXXXXXXXXXXXXXXXXXXXXXXXXXXXXXXXXXXXXoo",
"ooXXXXXXXXXXXXXXXXXXXXXXXXXXXXXXXXXXXXXXXXXXXXXXXXXXXXXXXXXXXXXXXXXXXXXXXXXXXXXXXXXXXXXXoo",
"ooXXXXXXXXXXXXXXXXXXXXXXXXXXXXXXXXXXXXXXXXXXXXXXXXXXXXXXXXXXXXXXXXXXXXXXXXXXXXXXXXXXXXXXoo",
"ooXXXXXXXXXXXXXXXXXXXXXXXXXXXXXXXXXXXXXXXXXXXXXXXXXXXXXXXXXXXXXXXXXXXXXXXXXXXXXXXXXXXXXXoo",
"ooXXXXXXXXXXXXXXXXXXXXXXXXXXXXXXXXXXXXXXXXXXXXXXXXXXXXXXXXXXXXXXXXXXXXXXXXXXXXXXXXXXXXXXoo",
"ooXXXXXXXXXXXXXXXXXXXXXXXXXXXXXXXXXXXXXXXXXXXXXXXXXXXXXXXXXXXXXXXXXXXXXXXXXXXXXXXXXXXXXXoo",
"ooXXXXXXXXXXXXXXXXXXXXXXXXXXXXXXXXXXXXXXXXXXXXXXXXXXXXXXXXXXXXXXXXXXXXXXXXXXXXXXXXXXXXXXoo",
"XXooooooooooooooooooooooooooooooooooooooooooooooooooooooooooooooooooooooooooooooooooooooXX",
"XXooooooooooooooooooooooooooooooooooooooooooooooooooooooooooooooooooooooooooooooooooooooXX"
};
