/* XPM */
static char *_023aae0d6e049a8feab9fe264cd5c71wiYYccg6OJkVRDnG[] = {
/* columns rows colors chars-per-pixel */
"90 90 4 1 ",
"  c black",
". c #00131A",
"X c #6CA66C",
"o c #D7F7D7",
/* pixels */
"                                                                                          ",
"                                                                                          ",
"                                                                                          ",
"                                                                                          ",
"                                                                                          ",
"                                                                                          ",
"                                                                                          ",
"                                                                                          ",
"                                                                                          ",
"                                                                                          ",
"                                                                                          ",
"                                                                                          ",
"                                     oooo                                                 ",
"                                    oo..o                                                 ",
"                                  ooo...o                       ooooo                     ",
"                                 oo....ooo                      o...oo                    ",
"                                 o..XX...o                      oo...o                    ",
"                                oo.XXX...o                       o.X.oo                   ",
"                                o..XXoo.o    ooo               ooo.X..o                   ",
"                                o.XXXoo.oo    o                o.ooXX.o                   ",
"                                o.XXXoo..o   000             ooo.oXXX.o                   ",
"                               oo.XXXoo..o                   o...oXXX.o                   ",
"                               o.XXXXo..oo                   oo..oXXX.o                   ",
"                               o.XXXXo.oo                     oo.oXXX.o                   ",
"                               o.XXXXo.o                      oooXXXX.o                   ",
"                               o.XXXXo.o                      o.oXXXX.o                   ",
"                               o.XXXXo.o                      o.oXXXX.o                   ",
"                               o.XXXXo.o                      o.oXXXX.o                   ",
"                               oo.XXXoooo                    oo.oXXX..o                   ",
"                                o..XXXo.oo                   o.ooXXX.oo                   ",
"                            oooooo..XXo..o                  oo.oXXX..o                    ",
"                          ooo............oo                oo.ooXXX.oo                    ",
"                         oo...oooooooooo..oo            oooo..oXXX..o                     ",
"                         o..oo.......oooo..oo          oo..........oo                     ",
"                         o.ooo.ooooo...ooo..o        ooo...........oo                     ",
"                  oooooooo.oo..oooooooo..oo.o       oo..oooooooooo..o ooooooooo           ",
"                 oo.....oo.oo.oo..oooooo.o..ooooooooo..oooo.....ooo.oooXXXXXXXoo          ",
"              oooo..XXX..o.oo.o..ooooooo.o............ooooo.ooo..oo.oo.XXXXXXXXoo         ",
"             oo...XXXXXX...oo.o.oooooooo...XXXXXXXXX...oooo.oooo.oo....XXXXXXXXXo         ",
"           ooo..XXXXXXXXX..oo...oooooooo...XXXXXXXXXX..oooo....o.oo..XXXXXXXXXXXoo        ",
"         ooo...XXXXXXXXXXXX.oo..ooooooo...XXXXXXXXXXX.oooooooooo.oo.XXXXXXXXXXXXXo        ",
"         o...XXXXXXXXXX......oo..oooo.....XXXXXXXXXXX.oooooooooo.o..XXXXXXXXXXXXXo        ",
"        oo.XXXXXXXXXX...oo..X............XXXXXXXXXXXX.oooooooo..oo.XXXXXXXXXXXXXXoo       ",
"        o..XXXXXXXXX..oo...XXXXX........XXXXXXXXXXXXX..ooooo...oo..XXXXXXXXXXXXXXXo       ",
"       oo.XXXXXXXXX.ooo....XXXXXXXXXXXXXXXXXXXXXXXXXXX.......ooo.......XXXXXXXXXXXoo      ",
"       o..XXXXXXXX..ooo....XXXXXXXXXXXXXXXXXX.XXXXXXXXXX.........o.o....XXXXXXXXXXXo      ",
"       o.XXXXXXXXX.ooo....XXXXXXXXXXXXXXXXXXX.X..XXXXXXXXXXXXXXXX.....o....XXXXXXXXo      ",
"       o.XXXXXXXX..oo.....XXXXXXXXXXXXXXXXXXX...XXXXXXXXXXXXXXXXX...o..ooo.XXXXXXXXo      ",
"       o.XXXXXXXX.oo.....XXXXXXXXXXXXXXXXXXXXXXXXXXXXXXXXXXXXXXXX...oo..oo..XXXXXXXo      ",
"      oo.XXXXXXXX.oo.o.o.XXXXXXXXXXXXXXXXXXXXXXXXXXXXXXXXXXXXXXXX...ooo...o.XXXXXXXoo     ",
"      o..XXXXXXX..oo...o.XXXXXXXXXXXXXXXXXXXXXXXXXXXXXXXXXXXXXXXX.o..oo....oXXXXXXX.o     ",
"      o.XXXXXXXX.oo...oo.XXXXXXXXXXXXXXXXXXXXXXXXXXXXXX.......XXX.....oo...oXXXXXXX.o     ",
"      o.XXXXXXX..oo...o..XXXXX............XXXXXXXXXXXXX.XXXXX..XX......oo.o.XXXXXXX.o     ",
"      o.XXXXXXX.oo...o..XXXXX..XXXXXXXXXX.XXXXXXXXXXXXXXXXXX.XXXX..o....o.o.XXXXXXX.o     ",
"     oo.XXXXXX..oo.o....XXXXX.XXXXXXXXXXXXXXXXXXXXXXXXXXXXX..XXXXo..o.....o.XXXXXXX.o     ",
"     o.XXXXXXX.oo..o....XXXXXX.....XXXXXXXXXXXXXXXXXXXXXX...XXXXXoo....oo....XXXXXX.o     ",
"     o.XXXXXXX.oo.oo..o.XXXXXXXXXXXXXXXXXXXXXXXXXXXXXXXXX.XXXXX.oooo.o..oo...XXXXXX.o     ",
"     o.XXXXXXX.oo.o...o.XXXXXXXXXXXXXXXXXXXXXXXXXXXXXXXXXXXXXXX.o  o.....o...XXXXXX.o     ",
"     o.XXXXXXX.o..o...o.XXXXXXXXXXXXXXXXXXXXXXXXXXXXXXXXXXXXXX..o  oo......o..XXXXX.o     ",
"     o.XXXXXXX.o.o.o....XXXXXXXXXXXXXXXXXXXXXXXXXXXXXXXXXXXXXX.oo   oo..o...o..o.X..o     ",
"     o..XXXXXX.o........XXXXXXX.....XXXXXXXXXXXXXXXXXXXXXXXXX..o     oo..o..o......oo     ",
"     oo.XXXXXX.o........XXXXXXX.XXXXXXXXXXXXXXXXXXXXXXXXXXXX..oo      oo..o...o..ooo      ",
"      o..XXXXX....o......XXXXXX..XXXXXXXXXXXXXXXXXXXX....XXX.oo        oo....o..oo        ",
"      oo.............o...XXXXXXX....XXXXXXXXXXXXXXXXXXXX..XXoo          oo.....oo         ",
"       ooooooo.o.......o.XXXXXXXXXXXXXXXXXXXXXXXXXXXXXXX..XXo            ooooooo          ",
"             o.o.....o.o..XXXXXXXXXXXXXXXXXXXXXXXXXXXXX..XXXo                             ",
"             o......ooooo.XXXXXXXXXXXXXXXXXXXXXXXXXX...XXXXoo                             ",
"             oo....oo   o..XXXXX....XXXXXXXXXXXXXXXXXXXXXXXo                              ",
"              oooooo    oo.XXXXX.XXXXXXXXXXXXXX..XXXXXXXXXoo                              ",
"                         o..XXXX.....XXXXXXXXXXX...XXX..ooo                               ",
"                         oo..XXXXXXXXXXXXXXXXXXXXX..X..oo                                 ",
"                          oo..XXXXXXXXXXXXXXXXXXX.....oo                                  ",
"                           oo....XXXXXXXXXXXXXXXX...ooo                                   ",
"                            oooo..................ooo                                     ",
"                               oooooooooooooooooooo                                       ",
"                                                                                          ",
"                                                                                          ",
"                                                                                          ",
"                                                                                          ",
"                                                                                          ",
"                                                                                          ",
"                                                                                          ",
"                                                                                          ",
"                                                                                          ",
"                                                                                          ",
"                                                                                          ",
"                                                                                          ",
"                                                                                          ",
"                                                                                          ",
"                                                                                          "
};
