/* XPM */
static char *_3d39b204080432ef8b9b5f09e3d0b0bGSFXdhI65qzCAb30[] = {
/* columns rows colors chars-per-pixel */
"90 90 13 1 ",
"  c #00131A",
". c #00141A",
"X c #04191D",
"o c #1E594A",
"O c #205B4B",
"+ c #215C4B",
"@ c #3E7858",
"# c #68A26A",
"$ c #6AA46B",
"% c #6BA56C",
"& c #6CA66C",
"* c #8EBB8E",
"= c #D7F7D7",
/* pixels */
"&&**************************************************************************************&&",
"&&**************************************************************************************&&",
"**&&&&&&&&&&&&&&&&&&&&&&&&&&&&&&&&&&&&&&&&&&&&&&&&&&&&&&&&&&&&&&&&&&&&&&&&&&&&&&&&&&&&&&**",
"**&&&&&&&&&&&&&&&&&&&&&&&&&&&&&&&&&&&&&&&&&&&&&&&&&&&&&&&&&&&&&&&&&&&&&&&&&&&&&&&&&&&&&&**",
"**&&&&&&&&&&&&&&&&&&&&&&&&&&&&&&&&&&&&&&&&&&&&&&&&&&&&&&&&&&&&&&&&&&&&&&&&&&&&&&&&&&&&&&**",
"**&&&&&&&&&&&&&&&&&&&&&&&&&&&&&&&&&&&&&&&&&&&&&&&&&&&&&&&&&&&&&&&&&&&&&&&&&&&&&&&&&&&&&&**",
"**&&&&&&&&&&==================================================================&&&&&&&&&&**",
"**&&&&&&&&&&==================================================================&&&&&&&&&&**",
"**&&&&&&&&oooooooooooooooooooooooooooooooooooooooooooooooooooooooooooooooooooooo&&&&&&&&**",
"**&&&&&&&&oooooooooooooooooooooooooooooooooooooooooooooooooooooooooooooooooooooo&&&&&&&&**",
"**&&&&&&oooooooooooooooooooooooooooooooooooooooooooooooooooooooooooooooooooooooooo&&&&&&**",
"**&&&&&&oooooooooooooooooooooooooooooooooooooooooooooooooooooooooooooooooooooooooo&&&&&&**",
"**&&&&&&====&&==oooooooooooooooooooooooooooooooooooooooooooooooooooooooooo&&==oooo&&&&&&**",
"**&&&&&&====&&==oooooooooooooooooooooooooooooooooooooooooooooooooooooooooo&&==oooo&&&&&&**",
"**&&&&&&======&&oooooooooooooooooooooooooooooooooooooooooooooooooooooooooo&&&&oooo&&&&&&**",
"**&&&&&&======&&oooooooooooooooooooooooooooooooooooooooooooooooooooooooooo&&&&oooo&&&&&&**",
"**&&&&==&&====oooooooooooooooooooooooooooooooooooooooooooooooooooooooooooooooooooo&&&&&&**",
"**&&&&==&&====oooooooooooooooooooooooooooooooooooooooooooooooooooooooooooooooooooo&&&&&&**",
"**&&&&==&&====oooooooooooooooooooooooooooooooooooooooooooooooooooooooooooooooooooo&&&&&&**",
"**&&&&==&&====oooooooooooooooooooooooooooooooooooooooooooooooooooooooooooooooooooo&&&&&&**",
"**&&&&========oooooooooooooooooooooooooooooooooooooooooooooooooooooooooooooooooooo&&&&&&**",
"**&&&&========oooooooooooooooooooooooooooooooooooooooooooooooooooooooooooooooooooo&&&&&&**",
"**&&&&====&&==oooooo  ======oooooooooooooooooooooooooooooooooooooooo  oooooooooooo&&&&&&**",
"**&&&&====&&==oooooo  ======oooooooooooooooooooooooooooooooooooooooo  oooooooooooo&&&&&&**",
"**&&&&==========oo&&==oo==========&&&&&&oooooooooooooooooooooooooooooooooooooooooo&&&&&&**",
"**&&&&==========oo&&==oo==========&&&&&&oooooooooooooooooooooooooooooooooooooooooo&&&&&&**",
"**&&&&======&&==oo======oooooo==============oooooooooooooooooooooooooo  oooooooooo&&&&&&**",
"**&&&&======&&==oo======oooooo==============oooooooooooooooooooooooooo  oooooooooo&&&&&&**",
"**&&&&==========&&============oooooooo============oooooooooooooooooooo  oo========&&&&&&**",
"**&&&&==========&&============oooooooo============oooooooooooooooooooo  oo========&&&&&&**",
"**&&&&========&&==oooooooo============oooooooo==========&&&&oooooooo@@&&==========&&&&&&**",
"**&&&&========&&==oooooooo============oooooooo==========&&&&oooooooo@@&&==========&&&&&&**",
"**&&&&&&&&==&&====oooooooooooooooo============oooooo========&&ooooXX##oo========&&==&&&&**",
"**&&&&&&&&==&&====oooooooooooooooo============oooooo========&&ooooXX##oo========&&==&&&&**",
"**&&&&&&========oooooooooooooooooooooooooo==========oooooo==&&$$$$$$oo========&&====&&&&**",
"**&&&&&&========oooooooooooooooooooooooooo==========oooooo==&&$$$$$$oo========&&====&&&&**",
"**&&&&&&======oo&&oooooooooooooooooooooooooooooo==========&&==&&oooooo======&&====&&&&&&**",
"**&&&&&&======oo&&oooooooooooooooooooooooooooooo==========&&==&&oooooo======&&====&&&&&&**",
"**&&&&&&&&====&&%%oooooooooooooooooo&&oooooooooooooooo&&&&====oooo======&&========&&&&&&**",
"**&&&&&&&&====&&%%oooooooooooooooooo&&oooooooooooooooo&&&&====oooo======&&========&&&&&&**",
"**&&&&&&oo&&&&oo$$oooooooooooooo&&&&&&&&oooooooooooooo========oo&&&&&&==========&&&&&&&&**",
"**&&&&&&oo&&&&oo$$oooooooooooooo&&&&&&&&oooooooooooooo========oo&&&&&&==========&&&&&&&&**",
"**&&&&&&ooooooOO$$oooooooooooooooooo&&&&&&oooooooooooo========oo==&&============oo&&&&&&**",
"**&&&&&&ooooooOO$$oooooooooooooooooo&&&&&&oooooooooooo========oo==&&============oo&&&&&&**",
"**&&&&&&ooooooOO$$oooooooooooooooooooooooooooooooooooo========oo==============&&oo&&&&&&**",
"**&&&&&&ooooooOO$$oooooooooooooooooooooooooooooooooooo========oo==============&&oo&&&&&&**",
"**&&&&&&ooooooOO&&oooooooooooooooooooooooooooooooooooo========oo====&&======&&&&oo&&&&&&**",
"**&&&&&&ooooooOO&&oooooooooooooooooooooooooooooooooooo========oo====&&======&&&&oo&&&&&&**",
"**&&&&&&oooooooo$$oooooooooooooooooooooooooooooooooooo======oo&&oo====&&&&==&&&&oo&&&&&&**",
"**&&&&&&oooooooo$$oooooooooooooooooooooooooooooooooooo======oo&&oo====&&&&==&&&&oo&&&&&&**",
"**&&&&&&oooooooo&&oooooooooooooooooooooooooooooooooooo========##oo==========oooooo&&&&&&**",
"**&&&&&&oooooooo&&oooooooooooooooooooooooooooooooooooo========##oo==========oooooo&&&&&&**",
"**&&&&&&oooooooo&&oooo    oooooooooooooooooooooooooooo========##&&========&&oooooo&&&&&&**",
"**&&&&&&oooooooo&&oooo    oooooooooooooooooooooooooooo========##&&========&&oooooo&&&&&&**",
"**&&&&&&ooooooOO&&oooo    oooooooooooooooooooooooooooo======oo##oo&&&&&&&&oooooooo&&&&&&**",
"**&&&&&&ooooooOO&&oooo    oooooooooooooooooooooooooooo======oo##oo&&&&&&&&oooooooo&&&&&&**",
"**&&&&&&oooooooo&&==oo    oooooooooooooooooooooooooooo======oo$$oooooooooooooooooo&&&&&&**",
"**&&&&&&oooooooo&&==oo    oooooooooooooooooooooooooooo======oo$$oooooooooooooooooo&&&&&&**",
"**&&&&&&oooooooo&&==oo    oooooooooooooooooo    oooooo========%%oooooo  oooooooooo&&&&&&**",
"**&&&&&&oooooooo&&==oo    oooooooooooooooooo    oooooo========%%oooooo  oooooooooo&&&&&&**",
"**&&&&&&oooooooo%%oooo  oooooooooooooooooooo    oooooo======oo&&++oooo  oooooooooo&&&&&&**",
"**&&&&&&oooooooo%%oooo  oooooooooooooooooooo    oooooo======oo&&++oooo  oooooooooo&&&&&&**",
"**&&&&&&oooooooo%%oooooooooooooooooooooooooo    oooooo======oo&&==&&&&&&oooooooooo&&&&&&**",
"**&&&&&&oooooooo%%oooooooooooooooooooooooooo    oooooo======oo&&==&&&&&&oooooooooo&&&&&&**",
"**&&&&&&oooooooo&&oooooooooooooooooooooooooo    oooooo======  ##..    oooooooooooo&&&&&&**",
"**&&&&&&oooooooo&&oooooooooooooooooooooooooo    oooooo======  ##..    oooooooooooo&&&&&&**",
"**&&&&&&oooooooooo&&oooooooooooooooooooooooo  oooooooo======  oooooooooooooooooooo&&&&&&**",
"**&&&&&&oooooooooo&&oooooooooooooooooooooooo  oooooooo======  oooooooooooooooooooo&&&&&&**",
"**&&&&&&oooooooooooo&&&&oooooooooooooooooooooooooo==oo======  oooooooooooooooooooo&&&&&&**",
"**&&&&&&oooooooooooo&&&&oooooooooooooooooooooooooo==oo======  oooooooooooooooooooo&&&&&&**",
"**&&&&&&oooo&&==oooooooo&&&&&&&&oooooooooooooooooo==oo======  oooooooooooo&&==oooo&&&&&&**",
"**&&&&&&oooo&&==oooooooo&&&&&&&&oooooooooooooooooo==oo======  oooooooooooo&&==oooo&&&&&&**",
"**&&&&&&oooo&&&&oooooooooooooooo&&&&&&oooooooooooooooo==    &&oooooooooooo&&&&oooo&&&&&&**",
"**&&&&&&oooo&&&&oooooooooooooooo&&&&&&oooooooooooooooo==    &&oooooooooooo&&&&oooo&&&&&&**",
"**&&&&&&oooooooooooooooooooooooooooooo&&&&&&&&oooooooo  &&&&oooooooooooooooooooooo&&&&&&**",
"**&&&&&&oooooooooooooooooooooooooooooo&&&&&&&&oooooooo  &&&&oooooooooooooooooooooo&&&&&&**",
"**&&&&&&&&oooooooooooooooooooooooooooooooooooo&&&&&&&&&&oooooooooooooooooooooooo&&&&&&&&**",
"**&&&&&&&&oooooooooooooooooooooooooooooooooooo&&&&&&&&&&oooooooooooooooooooooooo&&&&&&&&**",
"**&&&&&&&&&&                                                                  &&&&&&&&&&**",
"**&&&&&&&&&&                                                                  &&&&&&&&&&**",
"**&&&&&&&&&&&&&&&&&&&&&&&&&&&&&&&&&&&&&&&&&&&&&&&&&&&&&&&&&&&&&&&&&&&&&&&&&&&&&&&&&&&&&&**",
"**&&&&&&&&&&&&&&&&&&&&&&&&&&&&&&&&&&&&&&&&&&&&&&&&&&&&&&&&&&&&&&&&&&&&&&&&&&&&&&&&&&&&&&**",
"**&&&&&&&&&&&&&&&&&&&&&&&&&&&&&&&&&&&&&&&&&&&&&&&&&&&&&&&&&&&&&&&&&&&&&&&&&&&&&&&&&&&&&&**",
"**&&&&&&&&&&&&&&&&&&&&&&&&&&&&&&&&&&&&&&&&&&&&&&&&&&&&&&&&&&&&&&&&&&&&&&&&&&&&&&&&&&&&&&**",
"**&&&&&&&&&&&&&&&&&&&&&&&&&&&&&&&&&&&&&&&&&&&&&&&&&&&&&&&&&&&&&&&&&&&&&&&&&&&&&&&&&&&&&&**",
"**&&&&&&&&&&&&&&&&&&&&&&&&&&&&&&&&&&&&&&&&&&&&&&&&&&&&&&&&&&&&&&&&&&&&&&&&&&&&&&&&&&&&&&**",
"**&&&&&&&&&&&&&&&&&&&&&&&&&&&&&&&&&&&&&&&&&&&&&&&&&&&&&&&&&&&&&&&&&&&&&&&&&&&&&&&&&&&&&&**",
"**&&&&&&&&&&&&&&&&&&&&&&&&&&&&&&&&&&&&&&&&&&&&&&&&&&&&&&&&&&&&&&&&&&&&&&&&&&&&&&&&&&&&&&**",
"&&**************************************************************************************&&",
"&&**************************************************************************************&&"
};
