/* XPM */
static char *result[] = {
/* columns rows colors chars-per-pixel */
"90 90 5 1 ",
"  c #00131A",
". c #1E594A",
"X c #6CA66C",
"o c #8EBB8E",
"O c #D7F7D7",
/* pixels */
"XXooooooooooooooooooooooooooooooooooooooooooooooooooooooooooooooooooooooooooooooooooooooXX",
"XXooooooooooooooooooooooooooooooooooooooooooooooooooooooooooooooooooooooooooooooooooooooXX",
"ooXXXXXXXXXXXXXXXXXXXXXXXXXXXXXXXXXXXXXXXXXXXXXXXXXXXXXXXXXXXXXXXXXXXXXXXXXXXXXXXXXXXXXXoo",
"ooXXXXXXXXXXXXXXXXXXXXXXXXXXXXXXXXXXXXXXXXXXXXXXXXXXXXXXXXXXXXXXXXXXXXXXXXXXXXXXXXXXXXXXoo",
"ooXXXXXXXXXXXXXXXXXXXXXXXXXXXXXXXXXXXXXXXXXXXXXXXXXXXXXXXXXXXXXXXXXXXXXXXXXXXXXXXXXXXXXXoo",
"ooXXXXXXXXXXXXXXXXXXXXXXXXXXXXXXXXXXXXXXXXXXXXXXXXXXXXXXXXXXXXXXXXXXXXXXXXXXXXXXXXXXXXXXoo",
"ooXXXXXXXXXXXXXXXXXXXXXXXXXXXXXXXXXXXXXXXXXXXXXXXXXXXXXXXXXXXXXXXXXXXXXXXXXXXXXXXXXXXXXXoo",
"ooXXXXXXXXXXXXXXXXXXXXXXXXXXXXXXXXXXXXXXXXXXXXXXXXXXXXXXXXXXXXXXXXXXXXXXXXXXXXXXXXXXXXXXoo",
"ooXXXXXXXXXXXXXXXXXXXXXXXXXXXXXXXXXXXXXXXXXXXXXXXXXXXXXXXXXXXXXXXXXXXXXXXXXXXXXXXXXXXXXXoo",
"ooXXXXXXXXXXXXXXXXXXXXXXXXXXXXXXXXXXXXXXXXXXXXXXXXXXXXXXXXXXXXXXXXXXXXXXXXXXXXXXXXXXXXXXoo",
"ooXXXXXXXXXXXXXXXXXXXXXXXXXXXXXXXXXXXXXXXXXXXXXXXXXXXXXXXXXXXXXXXXXXXXXXXXXXXXXXXXXXXXXXoo",
"ooXXXXXXXXXXXXXXXXXXXXXXXXXXXXXXXXXXXXXXXXXXXXXXXXXXXXXXXXXXXXXXXXXXXXXXXXXXXXXXXXXXXXXXoo",
"ooXXXXXXOOOOXXXXXXXXXXXXXXXXXXXXXXXXXXXXXXXXXXXXXXXXXXXXXXXXXXXXXXXXXXXXXXXXXXXXXXXXXXXXoo",
"ooXXXXXXOOOOXXXXXXXXXXXXXXXXXXXXXXXXXXXXXXXXXXXXXXXXXXXXXXXXXXXXXXXXXXXXXXXXXXXXXXXXXXXXoo",
"ooXXXXXXOOOOOOXXXXXXXXXXXXXXXXXXXXXXXXXXXXXXXXXXXXXXXXXXXXXXXXXXXXXXXXXXXXXXXXXXXXXXXXXXoo",
"ooXXXXXXOOOOOOXXXXXXXXXXXXXXXXXXXXXXXXXXXXXXXXXXXXXXXXXXXXXXXXXXXXXXXXXXXXXXXXXXXXXXXXXXoo",
"ooXXXXOOXXOOOOXXXXXXXXXXXXXXXXXXXXXXXXXXXXXXXXXXXXXXXXXXXXXXXXXXXXXXXXXXXXXXXXXXXXXXXXXXoo",
"ooXXXXOOXXOOOOXXXXXXXXXXXXXXXXXXXXXXXXXXXXXXXXXXXXXXXXXXXXXXXXXXXXXXXXXXXXXXXXXXXXXXXXXXoo",
"ooXXXXOOXXOOOOXXXXXXXXXXXXXXXXXXXXXXXXXXXXXXXXXXXXXXXXXXXXXXXXXXXXXXXXXXXXXXXXXXXXXXXXXXoo",
"ooXXXXOOXXOOOOXXXXXXXXXXXXXXXXXXXXXXXXXXXXXXXXXXXXXXXXXXXXXXXXXXXXXXXXXXXXXXXXXXXXXXXXXXoo",
"ooXXXXOOOOOOOO..XXXXXXXXXXXXXXXXXXXXXXXXXXXXXXXXXXXXXXXXXXXXXXXXXXXXXXXXXXXXXXXXXXXXXXXXoo",
"ooXXXXOOOOOOOO..XXXXXXXXXXXXXXXXXXXXXXXXXXXXXXXXXXXXXXXXXXXXXXXXXXXXXXXXXXXXXXXXXXXXXXXXoo",
"ooXXXXOOOOXXOO..XXXXXXOOOOOOXXXXXXXXXXXXXXXXXXXXXXXXXXXXXXXXXXXXXXXXXXXXXXXXXXXXXXXXXXXXoo",
"ooXXXXOOOOXXOO..XXXXXXOOOOOOXXXXXXXXXXXXXXXXXXXXXXXXXXXXXXXXXXXXXXXXXXXXXXXXXXXXXXXXXXXXoo",
"ooXXXXOOOOOOOOOO..XXOO..OOOOOOOOOOXXXXXXXXXXXXXXXXXXXXXXXXXXXXXXXXXXXXXXXXXXXXXXXXXXXXXXoo",
"ooXXXXOOOOOOOOOO..XXOO..OOOOOOOOOOXXXXXXXXXXXXXXXXXXXXXXXXXXXXXXXXXXXXXXXXXXXXXXXXXXXXXXoo",
"ooXXXXOOOOOOXXOO..OOOOOO......OOOOOOOOOOOOOOXXXXXXXXXXXXXXXXXXXXXXXXXXXXXXXXXXXXXXXXXXXXoo",
"ooXXXXOOOOOOXXOO..OOOOOO......OOOOOOOOOOOOOOXXXXXXXXXXXXXXXXXXXXXXXXXXXXXXXXXXXXXXXXXXXXoo",
"ooXXXXOOOOOOOOOOXXOOOOOOOOOOOO........OOOOOOOOOOOOXXXXXXXXXXXXXXXXXXXXXXXXOOOOOOOOXXXXXXoo",
"ooXXXXOOOOOOOOOOXXOOOOOOOOOOOO........OOOOOOOOOOOOXXXXXXXXXXXXXXXXXXXXXXXXOOOOOOOOXXXXXXoo",
"ooXXXXOOOOOOOOXXOO........OOOOOOOOOOOO........OOOOOOOOOOXXXXXXXXXXXXXXXXOOOOOOOOOOXXXXXXoo",
"ooXXXXOOOOOOOOXXOO........OOOOOOOOOOOO........OOOOOOOOOOXXXXXXXXXXXXXXXXOOOOOOOOOOXXXXXXoo",
"ooXXXXXXXXOOXXOOOO................OOOOOOOOOOOO......OOOOOOOOXXXXXXXXXX..OOOOOOOOXXOOXXXXoo",
"ooXXXXXXXXOOXXOOOO................OOOOOOOOOOOO......OOOOOOOOXXXXXXXXXX..OOOOOOOOXXOOXXXXoo",
"ooXXXXXXOOOOOOOO..........................OOOOOOOOOO......OOXXXXXXXX..OOOOOOOOXXOOOOXXXXoo",
"ooXXXXXXOOOOOOOO..........................OOOOOOOOOO......OOXXXXXXXX..OOOOOOOOXXOOOOXXXXoo",
"ooXXXXXXOOOOOO..XX..............................OOOOOOOOOOXXOOXXXX....OOOOOOXXOOOOXXXXXXoo",
"ooXXXXXXOOOOOO..XX..............................OOOOOOOOOOXXOOXXXX....OOOOOOXXOOOOXXXXXXoo",
"ooXXXXXXXXOOOOXXXX..................XX................XXXXOOOO....OOOOOOXXOOOOOOOOXXXXXXoo",
"ooXXXXXXXXOOOOXXXX..................XX................XXXXOOOO....OOOOOOXXOOOOOOOOXXXXXXoo",
"ooXXXXXXXXXXXXXXXX..............XXXXXXXX..............OOOOOOOO..XXXXXXOOOOOOOOOOXXXXXXXXoo",
"ooXXXXXXXXXXXXXXXX..............XXXXXXXX..............OOOOOOOO..XXXXXXOOOOOOOOOOXXXXXXXXoo",
"ooXXXXXXXXXXXXXXXX..................XXXXXX............OOOOOOOO..OOXXOOOOOOOOOOOOXXXXXXXXoo",
"ooXXXXXXXXXXXXXXXX..................XXXXXX............OOOOOOOO..OOXXOOOOOOOOOOOOXXXXXXXXoo",
"ooXXXXXXXXXXXXXXXX....................................OOOOOOOO..OOOOOOOOOOOOOOXXXXXXXXXXoo",
"ooXXXXXXXXXXXXXXXX....................................OOOOOOOO..OOOOOOOOOOOOOOXXXXXXXXXXoo",
"ooXXXXXXXXXXXXXXXX....................................OOOOOOOO..OOOOXXOOOOOOXXXXXXXXXXXXoo",
"ooXXXXXXXXXXXXXXXX....................................OOOOOOOO..OOOOXXOOOOOOXXXXXXXXXXXXoo",
"ooXXXXXXXXXXXXXXXX....................................OOOOOO..XX..OOOOXXXXOOXXXXXXXXXXXXoo",
"ooXXXXXXXXXXXXXXXX....................................OOOOOO..XX..OOOOXXXXOOXXXXXXXXXXXXoo",
"ooXXXXXXXXXXXXXXXX....................................OOOOOOOOXX..OOOOOOOOOOXXXXXXXXXXXXoo",
"ooXXXXXXXXXXXXXXXX....................................OOOOOOOOXX..OOOOOOOOOOXXXXXXXXXXXXoo",
"ooXXXXXXXXXXXXXXXX....    ............................OOOOOOOOXXXXOOOOOOOOXXXXXXXXXXXXXXoo",
"ooXXXXXXXXXXXXXXXX....    ............................OOOOOOOOXXXXOOOOOOOOXXXXXXXXXXXXXXoo",
"ooXXXXXXXXXXXXXXXX....    ............................OOOOOO..XXXXXXXXXXXXXXXXXXXXXXXXXXoo",
"ooXXXXXXXXXXXXXXXX....    ............................OOOOOO..XXXXXXXXXXXXXXXXXXXXXXXXXXoo",
"ooXXXXXXXXXXXXXXXXOO..    ............................OOOOOO..XXXXXXXXXXXXXXXXXXXXXXXXXXoo",
"ooXXXXXXXXXXXXXXXXOO..    ............................OOOOOO..XXXXXXXXXXXXXXXXXXXXXXXXXXoo",
"ooXXXXXXXXXXXXXXXXOO..    ..................    ......OOOOOOOOXXXXXXXXXXXXXXXXXXXXXXXXXXoo",
"ooXXXXXXXXXXXXXXXXOO..    ..................    ......OOOOOOOOXXXXXXXXXXXXXXXXXXXXXXXXXXoo",
"ooXXXXXXXXXXXXXXXX....  ....................    ......OOOOOO..XXXXXXXXXXXXXXXXXXXXXXXXXXoo",
"ooXXXXXXXXXXXXXXXX....  ....................    ......OOOOOO..XXXXXXXXXXXXXXXXXXXXXXXXXXoo",
"ooXXXXXXXXXXXXXXXX..........................    ......OOOOOO..XXXXXXXXXXXXXXXXXXXXXXXXXXoo",
"ooXXXXXXXXXXXXXXXX..........................    ......OOOOOO..XXXXXXXXXXXXXXXXXXXXXXXXXXoo",
"ooXXXXXXXXXXXXXXXX..........................    ......OOOOOO  XXXXXXXXXXXXXXXXXXXXXXXXXXoo",
"ooXXXXXXXXXXXXXXXX..........................    ......OOOOOO  XXXXXXXXXXXXXXXXXXXXXXXXXXoo",
"ooXXXXXXXXXXXXXXXXXX........................  ........OOOOOO  XXXXXXXXXXXXXXXXXXXXXXXXXXoo",
"ooXXXXXXXXXXXXXXXXXX........................  ........OOOOOO  XXXXXXXXXXXXXXXXXXXXXXXXXXoo",
"ooXXXXXXXXXXXXXXXXXXXXXX..........................OO..OOOOOO  XXXXXXXXXXXXXXXXXXXXXXXXXXoo",
"ooXXXXXXXXXXXXXXXXXXXXXX..........................OO..OOOOOO  XXXXXXXXXXXXXXXXXXXXXXXXXXoo",
"ooXXXXXXXXXXXXXXXXXXXXXXXXXXXXXX..................OO..OOOOOO  XXXXXXXXXXXXXXXXXXXXXXXXXXoo",
"ooXXXXXXXXXXXXXXXXXXXXXXXXXXXXXX..................OO..OOOOOO  XXXXXXXXXXXXXXXXXXXXXXXXXXoo",
"ooXXXXXXXXXXXXXXXXXXXXXXXXXXXXXXXXXXXX................OO    XXXXXXXXXXXXXXXXXXXXXXXXXXXXoo",
"ooXXXXXXXXXXXXXXXXXXXXXXXXXXXXXXXXXXXX................OO    XXXXXXXXXXXXXXXXXXXXXXXXXXXXoo",
"ooXXXXXXXXXXXXXXXXXXXXXXXXXXXXXXXXXXXXXXXXXXXX........  XXXXXXXXXXXXXXXXXXXXXXXXXXXXXXXXoo",
"ooXXXXXXXXXXXXXXXXXXXXXXXXXXXXXXXXXXXXXXXXXXXX........  XXXXXXXXXXXXXXXXXXXXXXXXXXXXXXXXoo",
"ooXXXXXXXXXXXXXXXXXXXXXXXXXXXXXXXXXXXXXXXXXXXXXXXXXXXXXXXXXXXXXXXXXXXXXXXXXXXXXXXXXXXXXXoo",
"ooXXXXXXXXXXXXXXXXXXXXXXXXXXXXXXXXXXXXXXXXXXXXXXXXXXXXXXXXXXXXXXXXXXXXXXXXXXXXXXXXXXXXXXoo",
"ooXXXXXXXXXXXXXXXXXXXXXXXXXXXXXXXXXXXXXXXXXXXXXXXXXXXXXXXXXXXXXXXXXXXXXXXXXXXXXXXXXXXXXXoo",
"ooXXXXXXXXXXXXXXXXXXXXXXXXXXXXXXXXXXXXXXXXXXXXXXXXXXXXXXXXXXXXXXXXXXXXXXXXXXXXXXXXXXXXXXoo",
"ooXXXXXXXXXXXXXXXXXXXXXXXXXXXXXXXXXXXXXXXXXXXXXXXXXXXXXXXXXXXXXXXXXXXXXXXXXXXXXXXXXXXXXXoo",
"ooXXXXXXXXXXXXXXXXXXXXXXXXXXXXXXXXXXXXXXXXXXXXXXXXXXXXXXXXXXXXXXXXXXXXXXXXXXXXXXXXXXXXXXoo",
"ooXXXXXXXXXXXXXXXXXXXXXXXXXXXXXXXXXXXXXXXXXXXXXXXXXXXXXXXXXXXXXXXXXXXXXXXXXXXXXXXXXXXXXXoo",
"ooXXXXXXXXXXXXXXXXXXXXXXXXXXXXXXXXXXXXXXXXXXXXXXXXXXXXXXXXXXXXXXXXXXXXXXXXXXXXXXXXXXXXXXoo",
"ooXXXXXXXXXXXXXXXXXXXXXXXXXXXXXXXXXXXXXXXXXXXXXXXXXXXXXXXXXXXXXXXXXXXXXXXXXXXXXXXXXXXXXXoo",
"ooXXXXXXXXXXXXXXXXXXXXXXXXXXXXXXXXXXXXXXXXXXXXXXXXXXXXXXXXXXXXXXXXXXXXXXXXXXXXXXXXXXXXXXoo",
"ooXXXXXXXXXXXXXXXXXXXXXXXXXXXXXXXXXXXXXXXXXXXXXXXXXXXXXXXXXXXXXXXXXXXXXXXXXXXXXXXXXXXXXXoo",
"ooXXXXXXXXXXXXXXXXXXXXXXXXXXXXXXXXXXXXXXXXXXXXXXXXXXXXXXXXXXXXXXXXXXXXXXXXXXXXXXXXXXXXXXoo",
"XXooooooooooooooooooooooooooooooooooooooooooooooooooooooooooooooooooooooooooooooooooooooXX",
"XXooooooooooooooooooooooooooooooooooooooooooooooooooooooooooooooooooooooooooooooooooooooXX"
};
