/* XPM */
static char *_e81010ec66e4fd693cad55d99107e9azBrp21Mcf1Mk1dHk[] = {
/* columns rows colors chars-per-pixel */
"90 90 2 1 ",
"  c #6CA66C",
". c #8EBB8E",
/* pixels */
"  ......................................................................................  ",
"  ......................................................................................  ",
"..                                                                                      ..",
"..                                                                                      ..",
"..                                                                                      ..",
"..                                                                                      ..",
"..                                                                                      ..",
"..                                                                                      ..",
"..                                                                                      ..",
"..                                                                                      ..",
"..                                                                                      ..",
"..                                                                                      ..",
"..                                                                                      ..",
"..                                                                                      ..",
"..                                                                                      ..",
"..                                                                                      ..",
"..                                                                                      ..",
"..                                                                                      ..",
"..                                                                                      ..",
"..                                                                                      ..",
"..                                                                                      ..",
"..                                                                                      ..",
"..                                                                                      ..",
"..                                                                                      ..",
"..                                                                                      ..",
"..                                                                                      ..",
"..                                                                                      ..",
"..                                                                                      ..",
"..                                                                                      ..",
"..                                                                                      ..",
"..                                                                                      ..",
"..                                                                                      ..",
"..                                                                                      ..",
"..                                                                                      ..",
"..                                                                                      ..",
"..                                                                                      ..",
"..                                                                                      ..",
"..                                                                                      ..",
"..                                                                                      ..",
"..                                                                                      ..",
"..                                                                                      ..",
"..                                                                                      ..",
"..                                                                                      ..",
"..                                                                                      ..",
"..                                                                                      ..",
"..                                                                                      ..",
"..                                                                                      ..",
"..                                                                                      ..",
"..                                                                                      ..",
"..                                                                                      ..",
"..                                                                                      ..",
"..                                                                                      ..",
"..                                                                                      ..",
"..                                                                                      ..",
"..                                                                                      ..",
"..                                                                                      ..",
"..                                                                                      ..",
"..                                                                                      ..",
"..                                                                                      ..",
"..                                                                                      ..",
"..                                                                                      ..",
"..                                                                                      ..",
"..                                                                                      ..",
"..                                                                                      ..",
"..                                                                                      ..",
"..                                                                                      ..",
"..                                                                                      ..",
"..                                                                                      ..",
"..                                                                                      ..",
"..                                                                                      ..",
"..                                                                                      ..",
"..                                                                                      ..",
"..                                                                                      ..",
"..                                                                                      ..",
"..                                                                                      ..",
"..                                                                                      ..",
"..                                                                                      ..",
"..                                                                                      ..",
"..                                                                                      ..",
"..                                                                                      ..",
"..                                                                                      ..",
"..                                                                                      ..",
"..                                                                                      ..",
"..                                                                                      ..",
"..                                                                                      ..",
"..                                                                                      ..",
"..                                                                                      ..",
"..                                                                                      ..",
"  ......................................................................................  ",
"  ......................................................................................  "
};
