/* XPM */
static char *_2b2b1ea735444e3f956a34b15fd9df0DBTmYF2b2EhrG0rh[] = {
/* columns rows colors chars-per-pixel */
"90 90 5 1 ",
"  c None",
". c #00131A",
"X c #1E594A",
"o c #6CA66C",
"O c #D7F7D7",
/* pixels */
"                                                                                          ",
"                                                                                          ",
"                                                                                          ",
"                                                                                          ",
"                                                                                          ",
"                                                                                          ",
"                                                                                          ",
"                                                                                          ",
"            XXXXXXXXXXXXXXXXXXXXXXXXXXXXXXXXXXOOOOXXOOOOOOOOOOXXXXOOOOOOOOOOOO            ",
"            XXXXXXXXXXXXXXXXXXXXXXXXXXXXXXXXXXOOOOXXOOOOOOOOOOXXXXOOOOOOOOOOOO            ",
"          XXXXXXXXXXXXXXXXXXXXXXXXXXXXXXXXXXXXXXXXXXXXXXXXXXXXXXXXXXXXXXXXXXXXXX          ",
"          XXXXXXXXXXXXXXXXXXXXXXXXXXXXXXXXXXXXXXXXXXXXXXXXXXXXXXXXXXXXXXXXXXXXXX          ",
"        XXXXooOOXXXXXXXXXXXXXXXXXXXXXXXXXXXXXXXXXXXXXXXXXXXXXXXXXXXXXXXXXXooOOXXXX        ",
"        XXXXooOOXXXXXXXXXXXXXXXXXXXXXXXXXXXXXXXXXXXXXXXXXXXXXXXXXXXXXXXXXXooOOXXXX        ",
"        XXXXXXXXXXXXXXXXXXXXXXXXXXXXXXXXXXXXXXXXXXXXXXXXXXXXXXXXXXXXXXXXXXXXXXXXXX        ",
"        XXXXXXXXXXXXXXXXXXXXXXXXXXXXXXXXXXXXXXXXXXXXXXXXXXXXXXXXXXXXXXXXXXXXXXXXXX        ",
"        XXXXXXXXXXXXXX..XXXXXXXXooXXXXXXXXXXXXXXXXXXXXXXXXXXXXXXXX..XXXXXXXXXXXXXX        ",
"        XXXXXXXXXXXXXX..XXXXXXXXooXXXXXXXXXXXXXXXXXXXXXXXXXXXXXXXX..XXXXXXXXXXXXXX        ",
"        XXXXXXXXXXXX..XXXXXXXXXXXXooXXooXXXXXXXXXXXXXXXXXXXXXXXXXXXX..XXXXXXXXXXXX        ",
"        XXXXXXXXXXXX..XXXXXXXXXXXXooXXooXXXXXXXXXXXXXXXXXXXXXXXXXXXX..XXXXXXXXXXXX        ",
"        XXXXXXXXXXooooooooooooooooooooooooooooooooOOooooOOOOOOooooooooooXXXXXXXXXX        ",
"        XXXXXXXXXXooooooooooooooooooooooooooooooooOOooooOOOOOOooooooooooXXXXXXXXXX        ",
"        XXXXXXXXXXXX..................................................XXXXXXXXXXXX        ",
"        XXXXXXXXXXXX..................................................XXXXXXXXXXXX        ",
"      XXXXXXXXXXXXXXXXXXXXXXXXXXXXXXXXXXXXXXXXXXXXXXXXXXXXXXXXXXXXXXXXXXXXXXXXXXXXXX      ",
"      XXXXXXXXXXXXXXXXXXXXXXXXXXXXXXXXXXXXXXXXXXXXXXXXXXXXXXXXXXXXXXXXXXXXXXXXXXXXXX      ",
"      XXXXXXXXXXXXXX..XXXXXXXXXXXXXXXXXXXXXXXXXXXXXXXXXXXXXXXXXXXXXX..XXXXXXXXXXXXXX      ",
"      XXXXXXXXXXXXXX..XXXXXXXXXXXXXXXXXXXXXXXXXXXXXXXXXXXXXXXXXXXXXX..XXXXXXXXXXXXXX      ",
"      XXXXXXXXXXXX..XXXXXXXXXXXXooXXXXooXXXXXXXXXXXXXXXXXXXXXXXXXXXXXX..XXXXXXXXXXXX      ",
"      XXXXXXXXXXXX..XXXXXXXXXXXXooXXXXooXXXXXXXXXXXXXXXXXXXXXXXXXXXXXX..XXXXXXXXXXXX      ",
"      XXXXXXXXXXXXooooooooooooooooooooooooooooooooooOOooooooOOOOOOooooooXXXXXXXXXXXX      ",
"      XXXXXXXXXXXXooooooooooooooooooooooooooooooooooOOooooooOOOOOOooooooXXXXXXXXXXXX      ",
"      XXXXXXXXXXXXXX..................................................XXXXXXXXXXXXXX      ",
"      XXXXXXXXXXXXXX..................................................XXXXXXXXXXXXXX      ",
"    XXXXXXXXXXXXXXXXXXXXXXXXXXXXXXXXXXXXXXXXXXXXXXXXXXXXXXXXXXXXXXXXXXXXXXXXXXXXXXXXXX    ",
"    XXXXXXXXXXXXXXXXXXXXXXXXXXXXXXXXXXXXXXXXXXXXXXXXXXXXXXXXXXXXXXXXXXXXXXXXXXXXXXXXXX    ",
"    XXXXXXXXXXXXXXXX..XXooXXXXXXXXXXXXXXXXXXXXXXXXXXXXXXXXXXXXXXXXXX..XXXXXXXXXXXXXXXX    ",
"    XXXXXXXXXXXXXXXX..XXooXXXXXXXXXXXXXXXXXXXXXXXXXXXXXXXXXXXXXXXXXX..XXXXXXXXXXXXXXXX    ",
"    XXXXXXXXXXXXXXooooooooooooooooooooooooooooooooooooOOooooOOOOooooooooXXXXXXXXXXXXXX    ",
"    XXXXXXXXXXXXXXooooooooooooooooooooooooooooooooooooOOooooOOOOooooooooXXXXXXXXXXXXXX    ",
"    XXXXXXXXXXXXXXXX..................................................XXXXXXXXXXXXXXXX    ",
"    XXXXXXXXXXXXXXXX..................................................XXXXXXXXXXXXXXXX    ",
"    XXXXXXXXXXXXXXXXXXXXXXXXXXXXXXXXXXXXXXXXXXXXXXXXXXXXXXXXXXXXXXXXXXXXXXXXXXXXXXXXXX    ",
"    XXXXXXXXXXXXXXXXXXXXXXXXXXXXXXXXXXXXXXXXXXXXXXXXXXXXXXXXXXXXXXXXXXXXXXXXXXXXXXXXXX    ",
"    XXXXXXXXooOOXXXXXXXXXXXXXXXXXXXXXXXXXXXXXXXXXXXXXXXXXXXXXXXXXXXXXXXXXXooOOXXXXXXXX    ",
"    XXXXXXXXooOOXXXXXXXXXXXXXXXXXXXXXXXXXXXXXXXXXXXXXXXXXXXXXXXXXXXXXXXXXXooOOXXXXXXXX    ",
"      XXXXXXXXXXXXXXXXXXXXXXXXXXXXXXXXXXXXXXXXXXooooooooooooooXXooOOOOXXOOXXXXXXXXXX      ",
"      XXXXXXXXXXXXXXXXXXXXXXXXXXXXXXXXXXXXXXXXXXooooooooooooooXXooOOOOXXOOXXXXXXXXXX      ",
"        ..........................................................................        ",
"        ..........................................................................        ",
"        XXXX..................................................................XXXX        ",
"        XXXX..................................................................XXXX        ",
"        XXXX..................................................................XXXX        ",
"        XXXX..................................................................XXXX        ",
"        XXXX..................................................................XXXX        ",
"        XXXX..................................................................XXXX        ",
"        XXXX..................................................................XXXX        ",
"        XXXX..................................................................XXXX        ",
"        XXXX..................................................................XXXX        ",
"        XXXX..................................................................XXXX        ",
"        XXXX..................................................................XXXX        ",
"        XXXX..................................................................XXXX        ",
"        XXXX..........................................XXXX....................XXOO        ",
"        XXXX..........................................XXXX....................XXOO        ",
"        XXXX................XXXXXX........................XXXX................XXOO        ",
"        XXXX................XXXXXX........................XXXX................XXOO        ",
"        XXXX..............XXXX................................................XXOO        ",
"        XXXX..............XXXX................................................XXOO        ",
"        XXXX....................................................XX............XXOO        ",
"        XXXX....................................................XX............XXOO        ",
"        XXXX........XXXX..........................................XXXX........XXXX        ",
"        XXXX........XXXX..........................................XXXX........XXXX        ",
"        XXXX....XXXX..................................................XXXX....XXXX        ",
"        XXXX....XXXX..................................................XXXX....XXXX        ",
"        XXXXXXXX..........................................................XXXXXXOO        ",
"        XXXXXXXX..........................................................XXXXXXOO        ",
"        XXXXXX..............................................................XXXXXX        ",
"        XXXXXX..............................................................XXXXXX        ",
"          XXXXXXXXXXXXXXXXXXXXXXXXXXXXXXXXXXooooooooooooooXXXXXXooXXXXXXXXXXXXXX          ",
"          XXXXXXXXXXXXXXXXXXXXXXXXXXXXXXXXXXooooooooooooooXXXXXXooXXXXXXXXXXXXXX          ",
"            XXXXXXXXXXXXXXXXXXXXXXXXXXXXXXXXXXXXXXXXXXXXXXXXXXXXXXXXXXXXXXXXXX            ",
"            XXXXXXXXXXXXXXXXXXXXXXXXXXXXXXXXXXXXXXXXXXXXXXXXXXXXXXXXXXXXXXXXXX            ",
"                                                                                          ",
"                                                                                          ",
"                                                                                          ",
"                                                                                          ",
"                                                                                          ",
"                                                                                          ",
"                                                                                          ",
"                                                                                          "
};
