/* XPM */
static char *result[] = {
/* columns rows colors chars-per-pixel */
"90 90 5 1 ",
"  c #00131A",
". c #1E594A",
"X c #6CA66C",
"o c #8EBB8E",
"O c #D7F7D7",
/* pixels */
"XXooooooooooooooooooooooooooooooooooooooooooooooooooooooooooooooooooooooooooooooooooooooXX",
"XXooooooooooooooooooooooooooooooooooooooooooooooooooooooooooooooooooooooooooooooooooooooXX",
"ooXXXXXXXXXXXXXXXXXXXXXXXXXXXXXXXXXXXXXXXXXXXXXXXXXXXXXXXXXXXXXXXXXXXXXXXXXXXXXXXXXXXXXXoo",
"ooXXXXXXXXXXXXXXXXXXXXXXXXXXXXXXXXXXXXXXXXXXXXXXXXXXXXXXXXXXXXXXXXXXXXXXXXXXXXXXXXXXXXXXoo",
"ooXXXXXX......................................OO....OOOOOOOOOOOOOOOOOOOOOOOOOOOO..XXXXXXoo",
"ooXXXXXX......................................OO....OOOOOOOOOOOOOOOOOOOOOOOOOOOO..XXXXXXoo",
"ooXXXX..............................................................................XXXXoo",
"ooXXXX..............................................................................XXXXoo",
"ooXX..................................................................................XXoo",
"ooXX..................................................................................XXoo",
"ooXX........                                                                  ........XXoo",
"ooXX........                                                                  ........XXoo",
"ooXX......  XXXXXXXXXXXXXXXXXXXXXXXXXXXXXXXXXXXXXXXXXXXXXXXXXXXXXXXXXXXXXXXXXX  ......XXoo",
"ooXX......  XXXXXXXXXXXXXXXXXXXXXXXXXXXXXXXXXXXXXXXXXXXXXXXXXXXXXXXXXXXXXXXXXX  ......XXoo",
"ooXX......XXXXXXXXXXXXXXXXXXXXXXXXXXXXXXXXXXXXXXXXXXXXXXXXXXXXXXXXXXXXXXXXXXXXXX......XXoo",
"ooXX......XXXXXXXXXXXXXXXXXXXXXXXXXXXXXXXXXXXXXXXXXXXXXXXXXXXXXXXXXXXXXXXXXXXXXX......XXoo",
"ooXXXX....XXXXXXXXOOXXXXXXOOXXXXXXXXXXXXXXOOXXXXXXOOXXXXXXXXXXXXXXOOXXXXXXXXXXXX......XXoo",
"ooXXXX....XXXXXXXXOOXXXXXXOOXXXXXXXXXXXXXXOOXXXXXXOOXXXXXXXXXXXXXXOOXXXXXXXXXXXX......XXoo",
"ooXX......XXXXXXXX..XXXXXX..XXXXXXXXXXXXXX..XXXXXX..XXXXXXXXXXXXXX..XXXXXXXXXXXX....XXXXoo",
"ooXX......XXXXXXXX..XXXXXX..XXXXXXXXXXXXXX..XXXXXX..XXXXXXXXXXXXXX..XXXXXXXXXXXX....XXXXoo",
"ooXX......XXXXXXXX..XXXXXX..XXXXXXXXXXXXXX..XXXXXX..XXXXXXXXXXXXXX..XXXXXXXXXXXX....XXXXoo",
"ooXX......XXXXXXXX..XXXXXX..XXXXXXXXXXXXXX..XXXXXX..XXXXXXXXXXXXXX..XXXXXXXXXXXX....XXXXoo",
"ooXXXX....XXXXXXXX..XXXXXX..XXXXXXXXXXXXXX..XXXXXX..XXXXXXXXXXXXXX..XXXXXXXXXXXX......XXoo",
"ooXXXX....XXXXXXXX..XXXXXX..XXXXXXXXXXXXXX..XXXXXX..XXXXXXXXXXXXXX..XXXXXXXXXXXX......XXoo",
"ooXX......XXXXXXXX..XXXXXX..XXXXXXXXXXXXXX..XXXXXX..XXXXXXXXXXXXXX..XXXXXXXXXXXX......XXoo",
"ooXX......XXXXXXXX..XXXXXX..XXXXXXXXXXXXXX..XXXXXX..XXXXXXXXXXXXXX..XXXXXXXXXXXX......XXoo",
"ooXX......XXXXXXXX..XXXXXX..XXXXXXXXXXXXXX..XXXXXX..XXXXXXXXXXXXXX..XXXXXXXXXXXX....XXXXoo",
"ooXX......XXXXXXXX..XXXXXX..XXXXXXXXXXXXXX..XXXXXX..XXXXXXXXXXXXXX..XXXXXXXXXXXX....XXXXoo",
"ooXXXX....XXXXXXXX..XXXXXX..XXXXXXXXXXXXXX..XXXXXX..XXXXXXXXXXXXXX..XXXXXXXXXXXX....XXXXoo",
"ooXXXX....XXXXXXXX..XXXXXX..XXXXXXXXXXXXXX..XXXXXX..XXXXXXXXXXXXXX..XXXXXXXXXXXX....XXXXoo",
"ooXXXX....XXXXXXXX..XXXXXX..XXXXXXXXXXXXXX..XXXXXX..XXXXXXXXXXXXXX..XXXXXXXXXXXX....XXXXoo",
"ooXXXX....XXXXXXXX..XXXXXX..XXXXXXXXXXXXXX..XXXXXX..XXXXXXXXXXXXXX..XXXXXXXXXXXX....XXXXoo",
"ooXXXX....XXXXXXXX..XXXXXX....XXXXXXXXXXXX..XXXXXX..XXXXXXXXXXXXXX..XXXXXXXXXXXX......XXoo",
"ooXXXX....XXXXXXXX..XXXXXX....XXXXXXXXXXXX..XXXXXX..XXXXXXXXXXXXXX..XXXXXXXXXXXX......XXoo",
"ooXXXX....XXXXXXXX..XXXXXXXX..XXXXXXXXXXXX..XXXXXX..XXXXXXXXXXXXXX..XXXXXXXXXXXX....XXXXoo",
"ooXXXX....XXXXXXXX..XXXXXXXX..XXXXXXXXXXXX..XXXXXX..XXXXXXXXXXXXXX..XXXXXXXXXXXX....XXXXoo",
"ooXX......XXXXXX  ..XXXXXXXX..XXXXXXXXXXXX..XXXXXX..XXXXXXXXXXXX....XXXXXXXXXXXX......XXoo",
"ooXX......XXXXXX  ..XXXXXXXX..XXXXXXXXXXXX..XXXXXX..XXXXXXXXXXXX....XXXXXXXXXXXX......XXoo",
"ooXX......XXXXXXXXXXXXXXXXXX..XXXXXXXXXXXX..XXXXXX..XXXXXXXXXXXX....XXXXXXXXXXXX......XXoo",
"ooXX......XXXXXXXXXXXXXXXXXX..XXXXXXXXXXXX..XXXXXX..XXXXXXXXXXXX....XXXXXXXXXXXX......XXoo",
"ooXX......XXXXXXXXXXXXXXXXXX..XXXXXXXXXXXX..XXXXXX..XXXXXXXXXXXX..XXXXXXXXXXXXXX......XXoo",
"ooXX......XXXXXXXXXXXXXXXXXX..XXXXXXXXXXXX..XXXXXX..XXXXXXXXXXXX..XXXXXXXXXXXXXX......XXoo",
"ooXXXX....XXXXXX    XXXXXXXX..XXXXXXXXXXXX..XXXXXX..  XXXXXXXXXX..XXXXXXXXXXXXXX......XXoo",
"ooXXXX....XXXXXX    XXXXXXXX..XXXXXXXXXXXX..XXXXXX..  XXXXXXXXXX..XXXXXXXXXXXXXX......XXoo",
"ooXX......XXXXXXXXXXXXXXXXXX....XXXXXXXXXX..XXXXXXXXXXXXXXXXXXXX..XXXXXXXXXXXXXX....XXXXoo",
"ooXX......XXXXXXXXXXXXXXXXXX....XXXXXXXXXX..XXXXXXXXXXXXXXXXXXXX..XXXXXXXXXXXXXX....XXXXoo",
"ooXXXX....XXXXXX    XXXXXXXXXX..XXXXXXXX....XXXXXXXXXXXXXXXXXX....XXXXXXXXXXXXXX......XXoo",
"ooXXXX....XXXXXX    XXXXXXXXXX..XXXXXXXX....XXXXXXXXXXXXXXXXXX....XXXXXXXXXXXXXX......XXoo",
"ooXX......XXXXXXXXXXXXXXXXXXXX..XXXXXXXX..XXXXXXXXXXXXXXXXXXXX..XXXXXXXXXXXXXXXX......XXoo",
"ooXX......XXXXXXXXXXXXXXXXXXXX..XXXXXXXX..XXXXXXXXXXXXXXXXXXXX..XXXXXXXXXXXXXXXX......XXoo",
"ooXX......XXXXXX    XXXXXXXXXX..XXXXXX....XXXXXXXXXXXXXXXXXX....XXXXXXXXXXXXXXXX......XXoo",
"ooXX......XXXXXX    XXXXXXXXXX..XXXXXX....XXXXXXXXXXXXXXXXXX....XXXXXXXXXXXXXXXX......XXoo",
"ooXX......XXXXXXXXXXXXXXXXXXXX....XXXX..XXXXXXXXXXXXXXXXXXXX..XXXXXXXXXXXXXXXXXX......XXoo",
"ooXX......XXXXXXXXXXXXXXXXXXXX....XXXX..XXXXXXXXXXXXXXXXXXXX..XXXXXXXXXXXXXXXXXX......XXoo",
"ooXX......XXXXXXXXXXXXXXXXXXXXXX..XX....XXXXXXXXXXXXXXXXXX....XXXXXXXXXXXXXXXXXX......XXoo",
"ooXX......XXXXXXXXXXXXXXXXXXXXXX..XX....XXXXXXXXXXXXXXXXXX....XXXXXXXXXXXXXXXXXX......XXoo",
"ooXX......XXXXXX  XXXXXXXXXXXXXX......XXXXXXXXXXXXXXXXXXXX..XXXXXXXXXXXXXXXXXXXX......XXoo",
"ooXX......XXXXXX  XXXXXXXXXXXXXX......XXXXXXXXXXXXXXXXXXXX..XXXXXXXXXXXXXXXXXXXX......XXoo",
"ooXXXX....XXXXXXXX....XXXXXXXX......XXXXXXXXXXXXXXXXXXXX..XXXXXXXXXXXXXXXXXXXXXX......XXoo",
"ooXXXX....XXXXXXXX....XXXXXXXX......XXXXXXXXXXXXXXXXXXXX..XXXXXXXXXXXXXXXXXXXXXX......XXoo",
"ooXX......XXXXXXXXXX............XXXX..XXXXXXXXXXXXXXXX....XXXXXXXXXXXXXXXXXXXXXX......XXoo",
"ooXX......XXXXXXXXXX............XXXX..XXXXXXXXXXXXXXXX....XXXXXXXXXXXXXXXXXXXXXX......XXoo",
"ooXX......XXXXXXXXXXXXXXXXXXXXXXXXXX..XXXXXXXXXXXXXX....XXXXXXXXXXXXXXXXXXXXXXXX......XXoo",
"ooXX......XXXXXXXXXXXXXXXXXXXXXXXXXX..XXXXXXXXXXXXXX....XXXXXXXXXXXXXXXXXXXXXXXX......XXoo",
"ooXX......XXXXXX  XXXXXXXXXXXXXXXXXXXX  XXXXXXXXXX....XXXXXXXXXXOOOOOOOOOOOOXXXX......XXoo",
"ooXX......XXXXXX  XXXXXXXXXXXXXXXXXXXX  XXXXXXXXXX....XXXXXXXXXXOOOOOOOOOOOOXXXX......XXoo",
"ooXX......XXXXXX....XXXXXXXXXXXXXXXXXXXXXXXXXXXXXX..XXXXXXXXXXOO  OO..OOXXOOXXXX......XXoo",
"ooXX......XXXXXX....XXXXXXXXXXXXXXXXXXXXXXXXXXXXXX..XXXXXXXXXXOO  OO..OOXXOOXXXX......XXoo",
"ooXX......XXXXXXXX....XXXXXXXXXXXXXXXXXXXXXXXXXX....XXXXXXXXXXOO  OO..OOXXOOXXXX......XXoo",
"ooXX......XXXXXXXX....XXXXXXXXXXXXXXXXXXXXXXXXXX....XXXXXXXXXXOO  OO..OOXXOOXXXX......XXoo",
"ooXX......XXXXXXXXXX....XXXXXXXXXXXXXXXXXXXX......XXXXXXXXXXXXOOOOOOOOOOOOXXXXXX......XXoo",
"ooXX......XXXXXXXXXX....XXXXXXXXXXXXXXXXXXXX......XXXXXXXXXXXXOOOOOOOOOOOOXXXXXX......XXoo",
"ooXX......XXXXXXXXXXXX......XXXXXXXXXX........XXXXXXXXXXXXXXXXXXXXXXXXXXXXXXXXXX......XXoo",
"ooXX......XXXXXXXXXXXX......XXXXXXXXXX........XXXXXXXXXXXXXXXXXXXXXXXXXXXXXXXXXX......XXoo",
"ooXX......XXXXXXXXXXXXXXXX..............XXXXXXXXXXXXXXXXXXXXXXXXXXXXXXXXXXXXXXXX......XXoo",
"ooXX......XXXXXXXXXXXXXXXX..............XXXXXXXXXXXXXXXXXXXXXXXXXXXXXXXXXXXXXXXX......XXoo",
"ooXX......OOXXXXXXXXXXXXXXXXXXXXXXXXXXXXXXXXXXXXXXXXXXXXXXXXXXXXXXXXXXXXXXXXXXOO......XXoo",
"ooXX......OOXXXXXXXXXXXXXXXXXXXXXXXXXXXXXXXXXXXXXXXXXXXXXXXXXXXXXXXXXXXXXXXXXXOO......XXoo",
"ooXX........OOOOOOOOOOOOOOOOOOOOOOOOOOOOOOOOOOOOOOOOOOOOOOOOOOOOOOOOOOOOOOOOOO........XXoo",
"ooXX........OOOOOOOOOOOOOOOOOOOOOOOOOOOOOOOOOOOOOOOOOOOOOOOOOOOOOOOOOOOOOOOOOO........XXoo",
"ooXX..................................................................................XXoo",
"ooXX..................................................................................XXoo",
"ooXXXX....OO..OOOOOO................................................................XXXXoo",
"ooXXXX....OO..OOOOOO................................................................XXXXoo",
"ooXXXXXX                                                                          XXXXXXoo",
"ooXXXXXX                                                                          XXXXXXoo",
"ooXXXXXXXXXXXXXXXXXXXXXXXXXXXXXXXXXXXXXXXXXXXXXXXXXXXXXXXXXXXXXXXXXXXXXXXXXXXXXXXXXXXXXXoo",
"ooXXXXXXXXXXXXXXXXXXXXXXXXXXXXXXXXXXXXXXXXXXXXXXXXXXXXXXXXXXXXXXXXXXXXXXXXXXXXXXXXXXXXXXoo",
"XXooooooooooooooooooooooooooooooooooooooooooooooooooooooooooooooooooooooooooooooooooooooXX",
"XXooooooooooooooooooooooooooooooooooooooooooooooooooooooooooooooooooooooooooooooooooooooXX"
};
