/* XPM */
static char *result[] = {
/* columns rows colors chars-per-pixel */
"90 90 5 1 ",
"  c #00131A",
". c #1E594A",
"X c #6CA66C",
"o c #8EBB8E",
"O c #D7F7D7",
/* pixels */
"XXooooooooooooooooooooooooooooooooooooooooooooooooooooooooooooooooooooooooooooooooooooooXX",
"XXooooooooooooooooooooooooooooooooooooooooooooooooooooooooooooooooooooooooooooooooooooooXX",
"ooXXXXXXXXXXXXXXXXXXXXXXXXXXXXXXXXXXXXXXXXXXXXXXXXXXXXXXXXXXXXXXXXXXXXXXXXXXXXXXXXXXXXXXoo",
"ooXXXXXXXXXXXXXXXXXXXXXXXXXXXXXXXXXXXXXXXXXXXXXXXXXXXXXXXXXXXXXXXXXXXXXXXXXXXXXXXXXXXXXXoo",
"ooXXXXXX......................................OO....OOOOOOOOOOOOOOOOOOOOOOOOOOOO........oo",
"ooXXXXXX......................................OO....OOOOOOOOOOOOOOOOOOOOOOOOOOOO........oo",
"ooXXXX..................................................................................oo",
"ooXXXX..................................................................................oo",
"ooXX....................................................................................oo",
"ooXX....................................................................................oo",
"ooXX........                                                                            oo",
"ooXX........                                                                            oo",
"ooXX......  XXXXXXXXXXXXXXXXXXXXXXXXXXXXXXXXXXXXXXXXXXXXXXXXXXXXXXXXXXXXXXXXXXXXXXXXXXXXoo",
"ooXX......  XXXXXXXXXXXXXXXXXXXXXXXXXXXXXXXXXXXXXXXXXXXXXXXXXXXXXXXXXXXXXXXXXXXXXXXXXXXXoo",
"ooXX......XXXXXXXXXXXXXXXXXXXXXXXXXXXXXXXXXXXXXXXXXXXXXXXXXXXXXXXXXXXXXXXXXXXXXXXXXXXXXXoo",
"ooXX......XXXXXXXXXXXXXXXXXXXXXXXXXXXXXXXXXXXXXXXXXXXXXXXXXXXXXXXXXXXXXXXXXXXXXXXXXXXXXXoo",
"ooXXXX....XXXXXXOOXXXXOOXXXXXXOOXXXXXXXXOOXXXXXXXXXXXXXXOOXXXXXXOOXXXXXXXXXXXXXXOOXXXXXXoo",
"ooXXXX....XXXXXXOOXXXXOOXXXXXXOOXXXXXXXXOOXXXXXXXXXXXXXXOOXXXXXXOOXXXXXXXXXXXXXXOOXXXXXXoo",
"ooXX......XXXXXX..XXXX..XXXXXX..XXXXXXXX..XXXXXXXXXXXXXX..XXXXXX..XXXXXXXXXXXXXX..XXXXXXoo",
"ooXX......XXXXXX..XXXX..XXXXXX..XXXXXXXX..XXXXXXXXXXXXXX..XXXXXX..XXXXXXXXXXXXXX..XXXXXXoo",
"ooXX......XXXXXX..XXXX..XXXXXX..XXXXXXXX..XXXXXXXXXXXXXX..XXXXXX..XXXXXXXXXXXXXX..XXXXXXoo",
"ooXX......XXXXXX..XXXX..XXXXXX..XXXXXXXX..XXXXXXXXXXXXXX..XXXXXX..XXXXXXXXXXXXXX..XXXXXXoo",
"ooXXXX....XXXXXX..XXXX..XXXXXX..XXXXXXXX..XXXXXXXXXXXXXX..XXXXXX..XXXXXXXXXXXXXX..XXXXXXoo",
"ooXXXX....XXXXXX..XXXX..XXXXXX..XXXXXXXX..XXXXXXXXXXXXXX..XXXXXX..XXXXXXXXXXXXXX..XXXXXXoo",
"ooXX......XXXXXX..XXXX..XXXXXX..XXXXXXXX..XXXXXXXXXXXXXX..XXXXXX..XXXXXXXXXXXXXX..XXXXXXoo",
"ooXX......XXXXXX..XXXX..XXXXXX..XXXXXXXX..XXXXXXXXXXXXXX..XXXXXX..XXXXXXXXXXXXXX..XXXXXXoo",
"ooXX......XXXXXX..XXXX..XXXXXX..XXXXXXXX..XXXXXXXXXXXXXX..XXXXXX..XXXXXXXXXXXXXX..XXXXXXoo",
"ooXX......XXXXXX..XXXX..XXXXXX..XXXXXXXX..XXXXXXXXXXXXXX..XXXXXX..XXXXXXXXXXXXXX..XXXXXXoo",
"ooXXXX....XXXXXX..XXXX..XXXXXX..XXXXXXXX..XXXXXXXXXXXXXX..XXXXXX..XXXXXXXXXXXXXX..XXXXXXoo",
"ooXXXX....XXXXXX..XXXX..XXXXXX..XXXXXXXX..XXXXXXXXXXXXXX..XXXXXX..XXXXXXXXXXXXXX..XXXXXXoo",
"ooXXXX....XXXXXX..XXXX..XXXXXX..XXXXXXXX..XXXXXXXXXXXXXX..XXXXXX..XXXXXXXXXXXXXX..XXXXXXoo",
"ooXXXX....XXXXXX..XXXX..XXXXXX..XXXXXXXX..XXXXXXXXXXXXXX..XXXXXX..XXXXXXXXXXXXXX..XXXXXXoo",
"ooXXXX....XXXXXX..XXXX..XXXXXX..XXXXXXXX..XXXXXXXXXXXXXX..XXXXXX..XXXXXXXXXXXXXX..XXXXXXoo",
"ooXXXX....XXXXXX..XXXX..XXXXXX..XXXXXXXX..XXXXXXXXXXXXXX..XXXXXX..XXXXXXXXXXXXXX..XXXXXXoo",
"ooXXXX....XXXXXX..XXXX..XXXXXX..XXXXXXXX..XXXXXXXXXXXXXX..XXXXXX..XXXXXXXXXXXX..XXXXXXXXoo",
"ooXXXX....XXXXXX..XXXX..XXXXXX..XXXXXXXX..XXXXXXXXXXXXXX..XXXXXX..XXXXXXXXXXXX..XXXXXXXXoo",
"ooXX......XXXXXX..XXXX..XXXXXX..XXXXXXXX..XXXXXXXXXXXXXX..XXXXXX..  XXXXXXXXXX..XXXXXXXXoo",
"ooXX......XXXXXX..XXXX..XXXXXX..XXXXXXXX..XXXXXXXXXXXXXX..XXXXXX..  XXXXXXXXXX..XXXXXXXXoo",
"ooXX......XXXXXX..XXXX  XXXXXX..XXXXXXXX....XXXXXXXXXXXX..XXXXXXXXXXXXXXXXXXXX..XXXXXXXXoo",
"ooXX......XXXXXX..XXXX  XXXXXX..XXXXXXXX....XXXXXXXXXXXX..XXXXXXXXXXXXXXXXXXXX..XXXXXXXXoo",
"ooXX......XXXXXX..XXXXXXXXXXXX..XXXXXXXXXX..XXXXXXXXXXXX..XXXXXXXXXXXXXXXXXXXX..XXXXXXXXoo",
"ooXX......XXXXXX..XXXXXXXXXXXX..XXXXXXXXXX..XXXXXXXXXXXX..XXXXXXXXXXXXXXXXXXXX..XXXXXXXXoo",
"ooXXXX....XXXXXX..XXXXXXXXXXXX..XXXXXXXXXX..XXXXXXXXXXXX..XXXXXXXXXXXXXXXXXX..XXXXXXXXXXoo",
"ooXXXX....XXXXXX..XXXXXXXXXXXX..XXXXXXXXXX..XXXXXXXXXXXX..XXXXXXXXXXXXXXXXXX..XXXXXXXXXXoo",
"ooXX......XXXXXX..  XXXXXXXXXX..XXXXXXXXXX..XXXXXXXXXXXX..XXXXXXXXOOXXXXXXXX..XXXXXXXXXXoo",
"ooXX......XXXXXX..  XXXXXXXXXX..XXXXXXXXXX..XXXXXXXXXXXX..XXXXXXXXOOXXXXXXXX..XXXXXXXXXXoo",
"ooXXXX....XXXXXXXXXXXXXXXXXX..XXXXXXXXXXXX..XXXXXXXXXXXX..XXXXXXXX..XXXXXX..XXXXXXXXXXXXoo",
"ooXXXX....XXXXXXXXXXXXXXXXXX..XXXXXXXXXXXX..XXXXXXXXXXXX..XXXXXXXX..XXXXXX..XXXXXXXXXXXXoo",
"ooXX......XXXXXXXXXXXXXXXXXX..XXXXXXXXXXXX..XXXXXXXXXXXX..XXXXXXXX..XXXXXX..XXXXXXXXXXXXoo",
"ooXX......XXXXXXXXXXXXXXXXXX..XXXXXXXXXXXX..XXXXXXXXXXXX..XXXXXXXX..XXXXXX..XXXXXXXXXXXXoo",
"ooXX......XXXXXXXXXXXXXXXX..XXXXXXXXXXXXXX....XXXXXXXXXX..XXXXXXXX..XXXXXX..XXXXXXXXXXXXoo",
"ooXX......XXXXXXXXXXXXXXXX..XXXXXXXXXXXXXX....XXXXXXXXXX..XXXXXXXX..XXXXXX..XXXXXXXXXXXXoo",
"ooXX......XXXXXXXXXX  ....XXXXXXXXXXXXXXXXXX..XXXXXXXX....XXXXXXXX..XXXX..XXXXXXXXXXXXXXoo",
"ooXX......XXXXXXXXXX  ....XXXXXXXXXXXXXXXXXX..XXXXXXXX....XXXXXXXX..XXXX..XXXXXXXXXXXXXXoo",
"ooXX......XXXXXXXXXXXXXXXXXXXXXXXXXXXXXXXXXX..XXXXXXXX..XXXXXXXXXX..XX  XXXXXXXXXXXXXXXXoo",
"ooXX......XXXXXXXXXXXXXXXXXXXXXXXXXXXXXXXXXX..XXXXXXXX..XXXXXXXXXX..XX  XXXXXXXXXXXXXXXXoo",
"ooXX......XXXXXXXXXXXXXXXXXXXXXXXXXXXXXXXXXX..XXXXXX....XXXXXXXXXX..XXXXXXXXXXXXXXXXXXXXoo",
"ooXX......XXXXXXXXXXXXXXXXXXXXXXXXXXXXXXXXXX..XXXXXX....XXXXXXXXXX..XXXXXXXXXXXXXXXXXXXXoo",
"ooXXXX....XXXXXXXXXXXXXXXXXXXXXXXXXXXXXXXXXX....XXXX..XXXXXXXXXXXX..XXXXXXXXXXXXXXXXXXXXoo",
"ooXXXX....XXXXXXXXXXXXXXXXXXXXXXXXXXXXXXXXXX....XXXX..XXXXXXXXXXXX..XXXXXXXXXXXXXXXXXXXXoo",
"ooXX......XXXXXXXXXXXXXXXXXX  XXXXXXXXXXXXXXXX..XX....XXXXXXXXXXXX..XXXXXXXXXXXXXXXXXXXXoo",
"ooXX......XXXXXXXXXXXXXXXXXX  XXXXXXXXXXXXXXXX..XX....XXXXXXXXXXXX..XXXXXXXXXXXXXXXXXXXXoo",
"ooXX......XXXXXX    XXXXXXXXXX..XXXXXXXXXXXXXX..XX..XXXXXXXXXXXXXX..XXXXXXXXXXXXXXXXXXXXoo",
"ooXX......XXXXXX    XXXXXXXXXX..XXXXXXXXXXXXXX..XX..XXXXXXXXXXXXXX..XXXXXXXXXXXXXXXXXXXXoo",
"ooXX......XXXXXXXXXXXXXXXXXXXXXX....XXXXXXXX......XXXXXXXXXXXXXXXX..XXXXXXXXXXXXXXXXXXXXoo",
"ooXX......XXXXXXXXXXXXXXXXXXXXXX....XXXXXXXX......XXXXXXXXXXXXXXXX..XXXXXXXXXXXXXXXXXXXXoo",
"ooXX......XXXXXX    XXXXXXXXXXXXXX............XXXX..XXXXXXXXXXXXXX..XXXXXXXXXXXXXXXXXXXXoo",
"ooXX......XXXXXX    XXXXXXXXXXXXXX............XXXX..XXXXXXXXXXXXXX..XXXXXXXXXXXXXXXXXXXXoo",
"ooXX......XXXXXXXXXXXXXXXXXXXXXXXXXXXXXXXXXXXXXXXX..XXXXXXXXXXXX  ..XXXXXX  XX  XX  XXXXoo",
"ooXX......XXXXXXXXXXXXXXXXXXXXXXXXXXXXXXXXXXXXXXXX..XXXXXXXXXXXX  ..XXXXXX  XX  XX  XXXXoo",
"ooXX......XXXXXX    XXXXXXXXXXXXXXXXXXXXXXXXXXXXXXXX  XXXXXXXXXXXXXXXXXXXX  XX  XX  XXXXoo",
"ooXX......XXXXXX    XXXXXXXXXXXXXXXXXXXXXXXXXXXXXXXX  XXXXXXXXXXXXXXXXXXXX  XX  XX  XXXXoo",
"ooXX......XXXXXXXXXXXXXXXXXXXXXXXXXXXXXXXXXXXXXXXXXXXXXXXXXXXXXXXXXXXXXXXXXXXXXXXXXXXXXXoo",
"ooXX......XXXXXXXXXXXXXXXXXXXXXXXXXXXXXXXXXXXXXXXXXXXXXXXXXXXXXXXXXXXXXXXXXXXXXXXXXXXXXXoo",
"ooXX......XXXXXXXXXXXXXXXXXXXXXXXXXXXXXXXXXXXXXXXXXXXXXXXXXXXXXXXXXXXXXXXXXXXXXXXXXXXXXXoo",
"ooXX......XXXXXXXXXXXXXXXXXXXXXXXXXXXXXXXXXXXXXXXXXXXXXXXXXXXXXXXXXXXXXXXXXXXXXXXXXXXXXXoo",
"ooXX......OOXXXXXXXXXXXXXXXXXXXXXXXXXXXXXXXXXXXXXXXXXXXXXXXXXXXXXXXXXXXXXXXXXXXXXXXXXXXXoo",
"ooXX......OOXXXXXXXXXXXXXXXXXXXXXXXXXXXXXXXXXXXXXXXXXXXXXXXXXXXXXXXXXXXXXXXXXXXXXXXXXXXXoo",
"ooXX........OOOOOOOOOOOOOOOOOOOOOOOOOOOOOOOOOOOOOOOOOOOOOOOOOOOOOOOOOOOOOOOOOOOOOOOOOOOOoo",
"ooXX........OOOOOOOOOOOOOOOOOOOOOOOOOOOOOOOOOOOOOOOOOOOOOOOOOOOOOOOOOOOOOOOOOOOOOOOOOOOOoo",
"ooXX....................................................................................oo",
"ooXX....................................................................................oo",
"ooXXXX....OO..OOOOOO....................................................................oo",
"ooXXXX....OO..OOOOOO....................................................................oo",
"ooXXXXXX                                                                                oo",
"ooXXXXXX                                                                                oo",
"ooXXXXXXXXXXXXXXXXXXXXXXXXXXXXXXXXXXXXXXXXXXXXXXXXXXXXXXXXXXXXXXXXXXXXXXXXXXXXXXXXXXXXXXoo",
"ooXXXXXXXXXXXXXXXXXXXXXXXXXXXXXXXXXXXXXXXXXXXXXXXXXXXXXXXXXXXXXXXXXXXXXXXXXXXXXXXXXXXXXXoo",
"XXooooooooooooooooooooooooooooooooooooooooooooooooooooooooooooooooooooooooooooooooooooooXX",
"XXooooooooooooooooooooooooooooooooooooooooooooooooooooooooooooooooooooooooooooooooooooooXX"
};
