/* XPM */
static char *result[] = {
/* columns rows colors chars-per-pixel */
"90 90 10 1 ",
"  c #00131A",
". c #0C2423",
"X c #1E594A",
"o c #235E4C",
"O c #286252",
"+ c #326C53",
"@ c #6CA66C",
"# c #8EBB8E",
"$ c #CAEDCA",
"% c #D7F7D7",
/* pixels */
"@@######################################################################################@@",
"@@######################################################################################@@",
"##@@@@@@@@@@@@@@@@@@@@@@@@@@@@@@@@@@@@@@@@@@@@@@@@@@@@@@@@@@@@@@@@@@@@@@@@@@@@@@@@@@@@@@##",
"##@@@@@@@@@@@@@@@@@@@@@@@@@@@@@@@@@@@@@@@@@@@@@@@@@@@@@@@@@@@@@@@@@@@@@@@@@@@@@@@@@@@@@@##",
"##XXXXXXXXXXXXXXXXXXXXXXXXXXXXXXXXXXXXXXXXXXXXXXXXXX%%XXXX%%%%%%XXXXXX%%XX%%%%%%XXXXXXXX##",
"##XXXXXXXXXXXXXXXXXXXXXXXXXXXXXXXXXXXXXXXXXXXXXXXXXX%%XXXX%%%%%%XXXXXX%%XX%%%%%%XXXXXXXX##",
"##XXXXXXXXXXXXXXXXXXXXXXXXXXXXXXXXXXXXXXXXXXXXXXXXXXXXXXXXXXXXXXXXXXXXXXXXXXXXXXXXXXXXXX##",
"##XXXXXXXXXXXXXXXXXXXXXXXXXXXXXXXXXXXXXXXXXXXXXXXXXXXXXXXXXXXXXXXXXXXXXXXXXXXXXXXXXXXXXX##",
"##XXXXXXXXXXXXXXXXXXXXXXXXXXXXXXXXXXXXXXXXXXXXXXXXXXXXXXXXXXXXXXXXXXXXXXXXXXXXXXXXXXXXXX##",
"##XXXXXXXXXXXXXXXXXXXXXXXXXXXXXXXXXXXXXXXXXXXXXXXXXXXXXXXXXXXXXXXXXXXXXXXXXXXXXXXXXXXXXX##",
"##                                                                                      ##",
"##                                                                                      ##",
"##@@@@@@@@@@@@@@@@@@@@@@@@@@@@@@@@@@@@@@@@@@@@@@@@@@@@@@@@@@@@@@@@@@@@@@@@@@@@@@@@@@@@@@##",
"##@@@@@@@@@@@@@@@@@@@@@@@@@@@@@@@@@@@@@@@@@@@@@@@@@@@@@@@@@@@@@@@@@@@@@@@@@@@@@@@@@@@@@@##",
"##@@@@@@@@@@@@@@@@@@@@@@@@@@@@@@@@@@@@@@@@@@@@@@@@@@@@@@@@@@@@@@@@@@@@@@@@@@@@@@@@@@@@@@##",
"##@@@@@@@@@@@@@@@@@@@@@@@@@@@@@@@@@@@@@@@@@@@@@@@@@@@@@@@@@@@@@@@@@@@@@@@@@@@@@@@@@@@@@@##",
"##@@@@@@@@@@@@@@@@@@@@@@%%@@@@@@@@@@@@@@%%@@@@@@%%@@@@@@@@@@@@@@%%@@@@@@%%@@@@@@@@@@@@@@##",
"##@@@@@@@@@@@@@@@@@@@@@@%%@@@@@@@@@@@@@@%%@@@@@@%%@@@@@@@@@@@@@@%%@@@@@@%%@@@@@@@@@@@@@@##",
"##@@@@@@  @@  @@  @@@@@@XX@@@@@@@@@@@@@@XX@@@@@@XX@@@@@@@@@@@@@@XX@@@@@@XX@@@@@@@@@@@@@@##",
"##@@@@@@  @@  @@  @@@@@@XX@@@@@@@@@@@@@@XX@@@@@@XX@@@@@@@@@@@@@@XX@@@@@@XX@@@@@@@@@@@@@@##",
"##@@@@@@  @@  @@  @@@@@@XX@@@@@@@@@@@@@@XX@@@@@@OO@@@@@@@@@@@@@@XX@@@@@@XX@@@@@@@@@@@@@@##",
"##@@@@@@  @@  @@  @@@@@@XX@@@@@@@@@@@@@@XX@@@@@@OO@@@@@@@@@@@@@@XX@@@@@@XX@@@@@@@@@@@@@@##",
"##@@@@@@@@@@@@@@@@@@@@@@XX@@@@@@@@@@@@@@XX@@@@@@XX@@@@@@@@@@@@@@XX@@@@@@XX@@@@@@@@@@@@@@##",
"##@@@@@@@@@@@@@@@@@@@@@@XX@@@@@@@@@@@@@@XX@@@@@@XX@@@@@@@@@@@@@@XX@@@@@@XX@@@@@@@@@@@@@@##",
"##@@@@@@@@@@@@@@@@@@@@@@XX@@@@@@@@@@@@@@XX@@@@@@XX@@@@@@@@@@@@@@XX@@@@@@XX@@@@@@@@@@@@@@##",
"##@@@@@@@@@@@@@@@@@@@@@@XX@@@@@@@@@@@@@@XX@@@@@@XX@@@@@@@@@@@@@@XX@@@@@@XX@@@@@@@@@@@@@@##",
"##@@@@@@@@@@@@@@@@@@@@@@XX@@@@@@@@@@@@@@XX@@@@@@XX@@@@@@@@@@@@@@XX@@@@@@XX@@@@@@@@%%@@@@##",
"##@@@@@@@@@@@@@@@@@@@@@@XX@@@@@@@@@@@@@@XX@@@@@@XX@@@@@@@@@@@@@@XX@@@@@@XX@@@@@@@@%%@@@@##",
"##@@@@@@@@@@@@@@@@@@@@@@XX@@@@@@@@@@@@@@XX@@@@@@XX@@@@@@@@@@@@@@XX@@@@@@XX@@@@@@@@XX@@@@##",
"##@@@@@@@@@@@@@@@@@@@@@@XX@@@@@@@@@@@@@@XX@@@@@@XX@@@@@@@@@@@@@@XX@@@@@@XX@@@@@@@@XX@@@@##",
"##@@@@@@@@@@@@@@@@@@@@@@XX@@@@@@@@@@@@@@XX@@@@@@XX@@@@@@@@@@@@@@XX@@@@@@XX@@@@@@@@XX@@@@##",
"##@@@@@@@@@@@@@@@@@@@@@@XX@@@@@@@@@@@@@@XX@@@@@@XX@@@@@@@@@@@@@@XX@@@@@@XX@@@@@@@@XX@@@@##",
"##@@@@@@@@@@@@@@@@@@@@@@XX@@@@@@@@@@@@@@XX@@@@@@XX@@@@@@@@@@@@XXXX@@@@@@XX@@@@@@@@XX@@@@##",
"##@@@@@@@@@@@@@@@@@@@@@@XX@@@@@@@@@@@@@@XX@@@@@@XX@@@@@@@@@@@@XXXX@@@@@@XX@@@@@@@@XX@@@@##",
"##@@@@@@$$@@@@@@$$@@@@@@XX@@@@@@@@@@@@@@XX@@@@@@XX@@@@@@@@@@@@XX@@@@@@@@XX@@@@@@@@XX@@@@##",
"##@@@@@@$$@@@@@@$$@@@@@@XX@@@@@@@@@@@@@@XX@@@@@@XX@@@@@@@@@@@@XX@@@@@@@@XX@@@@@@@@XX@@@@##",
"##@@@@@@XX@@@@@@XX@@@@@@XXXX@@@@@@@@@@@@XX@@@@@@XX@@@@@@@@@@@@XX@@@@@@@@XX@@@@@@@@XX@@@@##",
"##@@@@@@XX@@@@@@XX@@@@@@XXXX@@@@@@@@@@@@XX@@@@@@XX@@@@@@@@@@@@XX@@@@@@@@XX@@@@@@@@XX@@@@##",
"##@@@@@@XX@@@@@@XX@@@@@@XXXX@@@@@@@@@@@@XX@@@@@@XX@@@@@@@@@@@@XX@@@@@@@@XX@@@@@@@@XX@@@@##",
"##@@@@@@XX@@@@@@XX@@@@@@XXXX@@@@@@@@@@@@XX@@@@@@XX@@@@@@@@@@@@XX@@@@@@@@XX@@@@@@@@XX@@@@##",
"##@@@@@@XX@@@@@@XX@@@@@@@@XX@@@@@@@@@@@@XX@@@@@@XX@@@@@@@@@@@@XX@@@@@@@@XX@@@@@@@@XX@@@@##",
"##@@@@@@XX@@@@@@XX@@@@@@@@XX@@@@@@@@@@@@XX@@@@@@XX@@@@@@@@@@@@XX@@@@@@@@XX@@@@@@@@XX@@@@##",
"##@@@@@@XX@@@@@@XX@@@@@@@@XX@@@@@@@@@@  XX@@@@@@XX@@@@@@@@@@@@XX@@@@@@@@XX  @@@@@@XX@@@@##",
"##@@@@@@XX@@@@@@XX@@@@@@@@XX@@@@@@@@@@  XX@@@@@@XX@@@@@@@@@@@@XX@@@@@@@@XX  @@@@@@XX@@@@##",
"##@@@@@@XX@@@@@@XX@@@@@@@@XX@@@@@@@@@@@@@@@@@@@@XX@@@@@@@@@@XXXX@@@@@@@@@@@@@@@@@@XX@@@@##",
"##@@@@@@XX@@@@@@XX@@@@@@@@XX@@@@@@@@@@@@@@@@@@@@XX@@@@@@@@@@XXXX@@@@@@@@@@@@@@@@@@XX@@@@##",
"##@@@@@@XX@@@@@@XX@@@@@@@@XXXX@@@@@@@@@@@@@@@@@@XXXX@@@@@@@@XX@@@@@@@@@@@@@@@@@@@@XX@@@@##",
"##@@@@@@XX@@@@@@XX@@@@@@@@XXXX@@@@@@@@@@@@@@@@@@XXXX@@@@@@@@XX@@@@@@@@@@@@@@@@@@@@XX@@@@##",
"##@@@@@@XX@@@@@@XX@@@@@@@@@@XX@@@@@@@@@@@@@@@@@@@@XX@@@@@@@@XX@@@@@@@@@@@@@@@@@@  XX@@@@##",
"##@@@@@@XX@@@@@@XX@@@@@@@@@@XX@@@@@@@@@@@@@@@@@@@@XX@@@@@@@@XX@@@@@@@@@@@@@@@@@@  XX@@@@##",
"##@@@@@@XX@@@@@@XX@@@@@@@@@@XXXX@@@@@@@@@@@@@@@@@@XXXX@@@@@@XX@@@@@@@@@@@@@@@@@@@@@@@@@@##",
"##@@@@@@XX@@@@@@XX@@@@@@@@@@XXXX@@@@@@@@@@@@@@@@@@XXXX@@@@@@XX@@@@@@@@@@@@@@@@@@@@@@@@@@##",
"##@@@@@@XX@@@@@@XX@@@@@@@@@@@@XX@@@@@@@@@@@@@@@@@@@@XX@@@@XXXX@@@@@@@@@@@@@@@@@@@@@@@@@@##",
"##@@@@@@XX@@@@@@XX@@@@@@@@@@@@XX@@@@@@@@@@@@@@@@@@@@XX@@@@XXXX@@@@@@@@@@@@@@@@@@@@@@@@@@##",
"##@@@@@@XX@@@@@@XX@@@@@@@@@@@@XXXX@@@@@@@@@@@@@@@@@@XXXX@@XX@@@@@@@@@@@@@@@@@@@@@@@@@@@@##",
"##@@@@@@XX@@@@@@XX@@@@@@@@@@@@XXXX@@@@@@@@@@@@@@@@@@XXXX@@XX@@@@@@@@@@@@@@@@@@@@@@@@@@@@##",
"##@@@@@@XXXX@@@@XX@@@@@@@@@@@@@@XX@@@@@@@@@@@@@@@@@@@@XXXXXX@@@@@@@@@@@@@@  @@@@@@@@@@@@##",
"##@@@@@@XXXX@@@@XX@@@@@@@@@@@@@@XX@@@@@@@@@@@@@@@@@@@@XXXXXX@@@@@@@@@@@@@@  @@@@@@@@@@@@##",
"##@@@@@@@@XX@@@@XX@@@@@@@@@@@@@@@@XX@@@@@@@@@@@@@@@@@@@@XXXXXX@@@@@@@@XXXX@@@@@@@@@@@@@@##",
"##@@@@@@@@XX@@@@XX@@@@@@@@@@@@@@@@XX@@@@@@@@@@@@@@@@@@@@XXXXXX@@@@@@@@XXXX@@@@@@@@@@@@@@##",
"##@@@@@@@@XXXX@@XX@@@@@@@@@@@@@@@@XXXX@@@@@@@@@@@@@@@@XX@@@@XXXXXXXXXXXX@@@@@@@@@@@@@@@@##",
"##@@@@@@@@XXXX@@XX@@@@@@@@@@@@@@@@XXXX@@@@@@@@@@@@@@@@XX@@@@XXXXXXXXXXXX@@@@@@@@@@@@@@@@##",
"##@@@@@@@@@@XX@@XX@@@@@@@@@@@@@@@@@@XXXX@@@@@@@@@@@@@@XX@@@@@@@@@@@@@@@@@@@@@@@@    @@@@##",
"##@@@@@@@@@@XX@@XX@@@@@@@@@@@@@@@@@@XXXX@@@@@@@@@@@@@@XX@@@@@@@@@@@@@@@@@@@@@@@@    @@@@##",
"##@@@@@@@@@@XXoo@@@@@@@@@@@@@@@@@@@@@@XXXX@@@@@@@@@@  @@@@@@@@@@@@@@@@@@@@..@@@@@@@@@@@@##",
"##@@@@@@@@@@XXoo@@@@@@@@@@@@@@@@@@@@@@XXXX@@@@@@@@@@  @@@@@@@@@@@@@@@@@@@@..@@@@@@@@@@@@##",
"##@@@@@@@@@@@@XX@@@@@@@@@@@@@@@@@@  @@@@XX@@@@@@@@@@@@@@@@@@@@@@@@@@@@@@XXXX@@@@    @@@@##",
"##@@@@@@@@@@@@XX@@@@@@@@@@@@@@@@@@  @@@@XX@@@@@@@@@@@@@@@@@@@@@@@@@@@@@@XXXX@@@@    @@@@##",
"##@@@@@@@@@@@@XXXX@@@@@@@@@@@@XXXX@@@@@@XXXX@@@@@@@@@@@@@@@@@@@@@@@@@@XXXX@@@@@@@@@@@@@@##",
"##@@@@@@@@@@@@XXXX@@@@@@@@@@@@XXXX@@@@@@XXXX@@@@@@@@@@@@@@@@@@@@@@@@@@XXXX@@@@@@@@@@@@@@##",
"##@@@@@@@@@@XX@@@@XXXXXXXXXXXXXX@@@@@@@@@@XXXXXX@@@@@@@@@@@@@@@@@@@@XXXX@@@@@@@@    @@@@##",
"##@@@@@@@@@@XX@@@@XXXXXXXXXXXXXX@@@@@@@@@@XXXXXX@@@@@@@@@@@@@@@@@@@@XXXX@@@@@@@@    @@@@##",
"##@@@@@@@@@@XX@@@@@@@@@@@@@@@@@@@@@@@@@@@@@@@@XXXXXX++@@@@@@@@@@XXXXXX@@@@@@@@@@@@@@@@@@##",
"##@@@@@@@@@@XX@@@@@@@@@@@@@@@@@@@@@@@@@@@@@@@@XXXXXX++@@@@@@@@@@XXXXXX@@@@@@@@@@@@@@@@@@##",
"##@@@@@@@@  @@@@@@@@@@@@@@@@@@@@@@@@@@@@@@@@@@@@@@@@XXXXXXXXXXXXXX@@@@@@@@@@@@@@@@@@@@@@##",
"##@@@@@@@@  @@@@@@@@@@@@@@@@@@@@@@@@@@@@@@@@@@@@@@@@XXXXXXXXXXXXXX@@@@@@@@@@@@@@@@@@@@@@##",
"##@@@@@@@@@@@@@@@@@@@@@@@@@@@@@@@@@@@@@@@@@@@@@@@@@@@@@@@@@@@@@@@@@@@@@@@@@@@@@@@@@@@@@@##",
"##@@@@@@@@@@@@@@@@@@@@@@@@@@@@@@@@@@@@@@@@@@@@@@@@@@@@@@@@@@@@@@@@@@@@@@@@@@@@@@@@@@@@@@##",
"##%%%%%%%%%%%%%%%%%%%%%%%%%%%%%%%%%%%%%%%%%%%%%%%%%%%%%%%%%%%%%%%%%%%%%%%%%%%%%%%%%%%%%%##",
"##%%%%%%%%%%%%%%%%%%%%%%%%%%%%%%%%%%%%%%%%%%%%%%%%%%%%%%%%%%%%%%%%%%%%%%%%%%%%%%%%%%%%%%##",
"##XXXXXXXXXXXXXXXXXXXXXXXXXXXXXXXXXXXXXXXXXXXXXXXXXXXXXXXXXXXXXXXXXXXXXXXXXXXXXXXXXXXXXX##",
"##XXXXXXXXXXXXXXXXXXXXXXXXXXXXXXXXXXXXXXXXXXXXXXXXXXXXXXXXXXXXXXXXXXXXXXXXXXXXXXXXXXXXXX##",
"##XXXXXXXX%%XX%%%%%%XXXXXXXXXXXXXXXXXXXXXXXXXXXXXXXXXXXXXXXXXXXXXXXXXXXXXXXXXXXXXXXXXXXX##",
"##XXXXXXXX%%XX%%%%%%XXXXXXXXXXXXXXXXXXXXXXXXXXXXXXXXXXXXXXXXXXXXXXXXXXXXXXXXXXXXXXXXXXXX##",
"##                                                                                      ##",
"##                                                                                      ##",
"##@@@@@@@@@@@@@@@@@@@@@@@@@@@@@@@@@@@@@@@@@@@@@@@@@@@@@@@@@@@@@@@@@@@@@@@@@@@@@@@@@@@@@@##",
"##@@@@@@@@@@@@@@@@@@@@@@@@@@@@@@@@@@@@@@@@@@@@@@@@@@@@@@@@@@@@@@@@@@@@@@@@@@@@@@@@@@@@@@##",
"@@######################################################################################@@",
"@@######################################################################################@@"
};
