/* XPM */
static char *de67d21b43754ed6fee33ef04aef0a58h9ANj1RZqqYR1avJ[] = {
/* columns rows colors chars-per-pixel */
"45 45 5 1 ",
"  c gray15",
". c #535353",
"X c #717171",
"o c gray78",
"O c gray94",
/* pixels */
"                                             ",
"                                             ",
"                                             ",
"                                             ",
"                                             ",
"         ....................................",
"        .....................................",
"       ......................................",
"      .......................................",
"      ........XXXXXXXXXXXXXXXXXXXXXXXXXXXXXXX",
"     .......XXXXXXXXXXXXXXXXXXXXXXXXXXXXXXXXX",
"     ......XXXXXXXXXXXXXXXXXXXXXXXXXXXXXXXXXX",
"     .....XXXXXXXXXXXXXXXXXXXXXXXXXXXXXXXXXXX",
"     .....XXXXXXXXXXXXXXXXXXXXXXXXXXXXXXXXXXX",
"     ....XXXXXXXXXXOOOOOOOOOOOOOOOOOOOOOOOOOO",
"     ....XXXXXXXXOOOOOOOOOOOOOOOOOOOOOOOOOOOO",
"     ....XXXXXXXOOOOOOOOOOOOOOOOOOOOOOOOOOOOO",
"     ....XXXXXXOOOOOOOOOOOOOOOOOOOOOOOOOOOOOO",
"     ....XXXXXXOOOOOOOOOOOOOOOOOOOOOOOOOOOOOO",
"     ....XXXXXOOOOOOOOOOooooooooooooooooooooo",
"     ....XXXXXOOOOOOOOooooooooooooooooooooooo",
"     ....XXXXXOOOOOOOoooooooooooooooooooooooo",
"     ....XXXXXOOOOOOooooooooooooooooooooooooo",
"     ....XXXXXOOOOOOooooooooooooooooooooooooo",
"     ....XXXXXOOOOOoooooooooooooooooooooooooo",
"     ....XXXXXOOOOOoooooooooooooooooooooooooo",
"     ....XXXXXOOOOOoooooooooooooooooooooooooo",
"     ....XXXXXOOOOOoooooooooooooooooooooooooo",
"     ....XXXXXOOOOOoooooooooooooooooooooooooo",
"     ....XXXXXOOOOOoooooooooooooooooooooooooo",
"     ....XXXXXOOOOOoooooooooooooooooooooooooo",
"     ....XXXXXOOOOOoooooooooooooooooooooooooo",
"     ....XXXXXOOOOOoooooooooooooooooooooooooo",
"     ....XXXXXOOOOOoooooooooooooooooooooooooo",
"     ....XXXXXOOOOOoooooooooooooooooooooooooo",
"     ....XXXXXOOOOOoooooooooooooooooooooooooo",
"     ....XXXXXOOOOOoooooooooooooooooooooooooo",
"     ....XXXXXOOOOOoooooooooooooooooooooooooo",
"     ....XXXXXOOOOOoooooooooooooooooooooooooo",
"     ....XXXXXOOOOOoooooooooooooooooooooooooo",
"     ....XXXXXOOOOOoooooooooooooooooooooooooo",
"     ....XXXXXOOOOOoooooooooooooooooooooooooo",
"     ....XXXXXOOOOOoooooooooooooooooooooooooo",
"     ....XXXXXOOOOOoooooooooooooooooooooooooo",
"     ....XXXXXOOOOOoooooooooooooooooooooooooo"
};
