/* XPM */
static char *_675b3f017d5479dd7e666fe57dea5d4eQN1p45KClqzXPHD[] = {
/* columns rows colors chars-per-pixel */
"45 45 3 1 ",
"  c None",
". c #1E594A",
"X c #6CA66C",
/* pixels */
"                                             ",
"                                             ",
"                                             ",
"                                             ",
"                                             ",
"                                             ",
"                  .....                      ",
"                  XXXXXX.                    ",
"                 .XXXXXXX.                   ",
"                ..XXXXXXX.                   ",
"                .XXXXXXXX.                   ",
"                .XXXXXXXXX.                  ",
"                .XXXXXXXXX.                  ",
"                XXXXXXXXXXX                  ",
"               .XXXXXXXXXXX.     .......     ",
"               .XXXXXXXXXXXX......XXXXXX..   ",
"               XXXXXXXXXXXXXXXXXXXXXXXXXXXX  ",
"              .XXXXXXXXXXXXXXXXXXXXXXXXXXXX. ",
"             ..XXXXXXXXXXXXXXXXXXXXXXXXXXXX. ",
"         ....XXXXXXXXXXXXXXXXXXXXXXXXXXXXXX. ",
"   ...XXXXXXXXXXXXXXXXXXXXXXXXXXXXXXXXXXXXX  ",
"   .XXXXXXXXXXXXXXXXXXXXXXXXXXXXXXXXXXXXXX.  ",
"  .XXXXXXXXXXXXXXXXXXXXXXXXXXXXXXXXXXXXXXX   ",
"  .XXXXXXXXXXXXXXXXXXXXXXXXXXXXXXXXXXXXX.    ",
"  .XXXXXXXXXXXXXXXXXXXXXXXXXXXXXXXXX....     ",
"   ..XXXXXXXXXXXXXXXXXXXXXXXXXXXX            ",
"      ....XXXXXXXXXXXXXXXXXXXXXXX            ",
"         .XXXXXXXXXXXXXXXXXXXXXXX.           ",
"          .XXXXXXXXXXXXXXXXXXXXXXX..         ",
"          .XXXXXXXXXXXXXXXXXXXXXXXX.         ",
"          .XXXXXXXXXXXXXXXXXXXXXXXXX         ",
"          .XXXXXXXXXXXXXXXXXXXXXXXXX.        ",
"          XXXXXXXXXXXXXXXXXXXXXXXXXX.        ",
"         .XXXXXXXXXXXXXXXXXXXXXXXXXX.        ",
"         .XXXXXXXXXX.......XXXXXXXXX.        ",
"         .XXXXXXXX.        .XXXXXXXX.        ",
"         .XXXXXXXX         .XXXXXXXX         ",
"         .XXXXXX.           ..XXXX.          ",
"          .....                              ",
"                                             ",
"                                             ",
"                                             ",
"                                             ",
"                                             ",
"                                             "
};
