/* XPM */
static char *_84f85df784749b9c6f367f615d5092a1tsVQOJNY8ymeLAQ[] = {
/* columns rows colors chars-per-pixel */
"45 45 2 1 ",
"  c None",
". c #00334C",
/* pixels */
"                                             ",
"                                             ",
"                                             ",
"                                             ",
"                                             ",
"                                             ",
"                    ..........               ",
"                   .........                 ",
"                  ..............             ",
"               ......                        ",
"              .....                          ",
"             . ..                            ",
"            .. .                             ",
"           .. .                              ",
"           ....                              ",
"          .. .                               ",
"          .. .                               ",
"          ...                                ",
"          ...                                ",
"          ...                                ",
"          ..                                 ",
"          ..                                 ",
"          ..                                 ",
"          ..                                 ",
"          ..                                 ",
"          ..                                 ",
"          ..                                 ",
"          ..                                 ",
"          ..                                 ",
"          ..                                 ",
"          ....                               ",
"           . .                               ",
"           .. .                              ",
"           ... .                             ",
"            . . ..                           ",
"           . . . ..                          ",
"           .  ....  ..       ..              ",
"            . .....   ........               ",
"             .  . . .......     .            ",
"             ....................            ",
"                    ..........               ",
"                                             ",
"                                             ",
"                                             ",
"                                             "
};
