/* XPM */
static char *_f7601f8d5104104fddaecf32aa85a9eHslFTMOlGEUpgRjV[] = {
/* columns rows colors chars-per-pixel */
"45 45 103 2 ",
"   c #00334C",
".  c #02344D",
"X  c #04364E",
"o  c #063750",
"O  c #073951",
"+  c #0A3B53",
"@  c #0B3C53",
"#  c #0E3E55",
"$  c #114057",
"%  c #124158",
"&  c #15445A",
"*  c #17455C",
"=  c #18465C",
"-  c #1C495F",
";  c #204C62",
":  c #234E64",
">  c #244F64",
",  c #275166",
"<  c #295367",
"1  c #295368",
"2  c #2B5569",
"3  c #2E576B",
"4  c #2F586C",
"5  c #335B6E",
"6  c #345B6F",
"7  c #355C70",
"8  c #385F72",
"9  c #3A6073",
"0  c #3B6174",
"q  c #3C6275",
"w  c #3F6476",
"e  c #406577",
"r  c #426779",
"t  c #44687A",
"y  c #4A6D7E",
"u  c #4C6E7F",
"i  c #4C6F80",
"p  c #4F7182",
"a  c #527383",
"s  c #537484",
"d  c #557585",
"f  c #587887",
"g  c #5B7A8A",
"h  c #5C7B8A",
"j  c #5D7C8B",
"k  c #617F8D",
"l  c #64818F",
"z  c #658291",
"x  c #678492",
"c  c #688592",
"v  c #6A8694",
"b  c #6C8795",
"n  c #6D8896",
"m  c #708A97",
"M  c #728C99",
"N  c #77909C",
"B  c #78919D",
"V  c #7F97A2",
"C  c #8399A5",
"Z  c #849AA5",
"A  c #879CA7",
"S  c #8A9FAA",
"D  c #8CA1AB",
"F  c #8EA2AC",
"G  c #90A4AD",
"H  c #93A6B0",
"J  c #94A7B0",
"K  c #97A9B2",
"L  c #99ABB4",
"P  c #9AACB4",
"I  c #9DAEB6",
"U  c #A0B1B8",
"Y  c #A4B3BB",
"T  c #A8B6BD",
"R  c #ACBAC1",
"E  c #AFBCC2",
"W  c #B3BFC5",
"Q  c #B6C1C7",
"!  c #B8C3C9",
"~  c #BAC5CA",
"^  c #BDC7CC",
"/  c #BFC8CD",
"(  c #C2CBCF",
")  c #C2CBD0",
"_  c #C3CCD0",
"`  c #C6CED2",
"'  c #CBD2D5",
"]  c #CDD3D6",
"[  c #CED4D7",
"{  c #CED5D8",
"}  c #D2D8DA",
"|  c #D4D9DB",
" . c #D7DBDD",
".. c #D9DDDF",
"X. c #DBDFE0",
"o. c #DCDFE1",
"O. c #DDE0E2",
"+. c #E0E2E4",
"@. c #E2E4E5",
"#. c #E5E7E7",
"$. c #E6E7E8",
"%. c #E7E8E9",
"&. c gray92",
/* pixels */
"&.&.&.&.&.&.&.&.&.&.&.&.&.&.&.&.&.&.&.&.&.&.&.&.&.&.&.&.&.&.&.&.&.&.&.&.&.&.&.&.&.&.&.&.&.",
"&.&.&.&.&.&.&.&.&.&.&.&.&.&.&.&.&.&.&.&.&.&.&.&.&.&.&.&.&.&.&.&.&.&.&.&.&.&.&.&.&.&.&.&.&.",
"&.&.&.&.&.&.&.&.&.&.&.&.&.&.&.&.&.&.&.&.&.&.&.&.&.&.&.&.&.&.&.&.&.&.&.&.&.&.&.&.&.&.&.&.&.",
"&.&.&.&.&.&.&.&.&.&.&.&.&.&.&.&.&.&.&.&.&.&.&.  - % 4 &.&.&.&.&.&.&.&.&.&.&.&.&.&.&.&.&.&.",
"&.&.&.&.&.&.&.&.&.&.&.&.&.&.&.&.&.&.&.&.#.&.  I &.&.&.&.&.&.&.&.&.&.&.&.&.&.&.&.&.&.&.&.&.",
"&.&.&.&.&.&.&.&.&.&.&.&.&.&.&.&.&.&.&.%.&.  .               Y +.&.&.&.&.&.&.&.&.&.&.&.&.&.",
"&.&.&.&.&.&.&.&.&.&.&.&.&.&.&.&.&.&.&.Q     Z M M A   w G p     O.&.&.&.&.&.&.&.&.&.&.&.&.",
"&.&.&.&.&.&.&.&.&.&.&.&.&.&.&.&.&.J % $   &.&.&.&.&. .l + R       &.&.&.&.&.&.&.&.&.&.&.&.",
"&.&.&.&.&.&.&.&.&.&.&.&.&.&.&.&.&.      O.&.&.&.&.&.&.&.k & G   G   @.&.&.&.&.&.&.&.&.&.&.",
"&.&.&.&.&.&.&.&.&.&.&.&.&.&.&.B 5 y + +.&.&.&.&.&.&.&.&.&.s + (   Q   ' &.&.&.&.&.&.&.&.&.",
"&.&.&.&.&.&.&.&.&.&.&.&.&.&.&.7 9 &.  &.&.&.&.&.&.&.&.&.&.&.n     &.G S &.&.&.&.&.&.&.&.&.",
"&.&.&.&.&.&.&.&.&.&.&.&.%.&.  3 &.  n &.&.&.&.&.&.&.&.&.&.&.&.b   d &.  &.&.&.&.&.&.&.&.&.",
"&.&.&.&.&.&.&.&.&.&.&.&.&.X &.&. .  ] &.&.&.&.&.&.&.&.&.&.&.&./ H . &.% &.&.&.&.&.&.&.&.&.",
"&.&.&.&.&.&.&.&.&.&.&.&.]   &.&.  2 o.&.&.&.&.&.&.&.&.&.&.&.&.^ 5 . z ; &.&.&.&.&.&.&.&.&.",
"&.&.&.&.&.&.&.&.&.&.&.&.V Y &.y [ a &.&.&.&.&.&.&.&.&.&.&.&.&.&.d       &.&.&.&.&.&.&.&.&.",
"&.&.&.&.&.&.&.&.&.&.&.&.  } &.r U i &.&.&.&.&.&.&.&.&.&.&.&.&.&.z   ` - &.&.&.&.&.&.&.&.&.",
"&.&.&.&.&.&.&.&.&.&.&.0 k &.`     @.&.&.&.&.&.&.&.&.&.&.&.&.&.&.z   I / &.&.&.&.&.&.&.&.&.",
"&.&.&.&.&.&.&.&.&.&.&.  V &.T (   &.&.&.&.&.&.&.&.&.&.&.&.&.&.&.z   I W &.&.&.&.&.&.&.&.&.",
"&.&.&.&.&.&.&.&.&.|   X &.&.E w   &.&.&.&.&.&.&.&.&.&.&.&.&.&.&.z   I W &.&.&.&.&.&.&.&.&.",
"&.&.&.&.&.&.&.&.&.Q I   &.&.W   &.&.&.&.&.&.&.&.&.&.&.&.&.&.&.&.z   I W &.&.&.&.&.&.&.&.&.",
"&.&.&.&.&.&.&.&.&.' L   &.&.a   &.&.&.&.&.&.&.&.&.&.&.&.&.&.&.&.z   p Q &.&.&.&.&.&.&.&.&.",
"&.&.&.&.&.&.&.&.&.  U   &.&.& 7 &.&.&.&.&.&.&.&.&.&.&.&.&.&.&.&.c     ~ &.&.&.&.&.&.&.&.&.",
"&.&.&.&.&.&.&.&.&.= &.  &.&.; t &.&.&.&.&.&.&.&.&.&.&.&.&.&.&.&.e &.  ~ &.&.&.&.&.&.&.&.&.",
"&.&.&.&.&.&.&.&.&.% &.  &.&.3 8 &.&.&.&.&.&.&.&.&.&.&.&.&.&.&.&.t &.  ~ &.&.&.&.&.&.&.&.&.",
"&.&.&.&.&.&.&.&.&.% &.  &.&.  U &.&.&.&.&.&.&.&.&.&.&.&.&.&.&.&.7 '   ~ &.&.&.&.&.&.&.&.&.",
"&.&.&.&.&.&.&.&.&.% &.  &.&.  K &.&.&.&.&.&.&.&.&.&.&.&.&.&.$.O.    g R &.&.&.&.&.&.&.&.&.",
"&.&.&.&.&.&.&.&.&.% &.  &.&.  K &.&.&.&.&.&.&.&.&.&.&.&.&.&.&.      h &.&.&.&.&.&.&.&.&.&.",
"&.&.&.&.&.&.&.&.&.% &.  &.&.  K &.&.&.&.&.&.&.&.&.&.&.&.&.&.!   9 &.6 &.&.&.&.&.&.&.&.&.&.",
"&.&.&.&.&.&.&.&.&.= &.  &.&.  K &.&.&.&.&.&.&.&.&.&.&.&.&.&.; ~   &.9 &.&.&.&.&.&.&.&.&.&.",
"&.&.&.&.&.&.&.&.&.@ I   &.&.  K &.&.&.&.&.&.&.&.&.&.&.&.&.p   #.  &.3 &.&.&.&.&.&.&.&.&.&.",
"&.&.&.&.&.&.&.&.&.( I I C &.  K &.&.&.&.&.&.&.&.&.&.&.$.&.  &., k y ' &.&.&.&.&.&.&.&.&.&.",
"&.&.&.&.&.&.&.&.&.)   &.r &.  P &.&.&.&.&.&.&.&.&.&.&.&.  v &.  G = &.&.&.&.&.&.&.&.&.&.&.",
"&.&.&.&.&.&.&.&.&.&.r n z &.u 1 &.&.&.&.&.&.&.&.&.&.&.]   &.P     &.%.&.&.&.&.&.&.&.&.&.&.",
"&.&.&.&.&.&.&.&.&.&.&.    ` W   &.&.&.&.&.&.&.&.&.&.{   | &.q > j $.&.&.&.&.&.&.&.&.&.&.&.",
"&.&.&.&.&.&.&.&.&.&.&.f   n &.p I &.&.&.&.&.&.&.&.&.O.N &.P   &.  &.&.&.&.&.&.&.&.&.&.&.&.",
"&.&.&.&.&.&.&.&.&.&.&.&.    &.a   I &.&.&.&.&.&.&.&.+ x &.X   &.m &.&.&.&.&.&.&.&.&.&.&.&.",
"&.&.&.&.&.&.&.&.&.&.&.&.K q . V     F &.&.&.&.&.&.+ z &.Q o Q . U &.&.&.&.&.&.&.&.&.&.&.&.",
"&.&.&.&.&.&.&.&.&.&.&.&.v w n ! G U   0 3 3 3 2 2   t = T S   &.&.&.&.&.&.&.&.&.&.&.&.&.&.",
"&.&.&.&.&.&.&.&.&.&.&.&.&.# X.  ..  _ &.&.&.&.&.2 &.&.&.    ) &.&.&.&.&.&.&.&.&.&.&.&.&.&.",
"&.&.&.&.&.&.&.&.&.&.&.&.&.D U &.  `   c 9 &.O c / &.k &   u &.&.&.&.&.&.&.&.&.&.&.&.&.&.&.",
"&.&.&.&.&.&.&.&.&.&.&.&.&.&.    %.  ] &.&.    . . X % v [ +.&.&.&.&.&.&.&.&.&.&.&.&.&.&.&.",
"&.&.&.&.&.&.&.&.&.&.&.&.&.%.&.&.< j 7 &   &.&.&.&...J : @.&.&.&.&.&.&.&.&.&.&.&.&.&.&.&.&.",
"&.&.&.&.&.&.&.&.&.&.&.&.&.&.&.&.&.&.&.@.] O % % *   [ &.&.&.&.&.&.&.&.&.&.&.&.&.&.&.&.&.&.",
"&.&.&.&.&.&.&.&.&.&.&.&.&.&.&.&.&.&.&.&.&.&.&.&.&.&.&.&.&.&.&.&.&.&.&.&.&.&.&.&.&.&.&.&.&.",
"&.&.&.&.&.&.&.&.&.&.&.&.&.&.&.&.&.&.&.&.&.&.&.&.&.&.&.&.&.&.&.&.&.&.&.&.&.&.&.&.&.&.&.&.&."
};
