/* XPM */
static char *e56c4145fd194a59a88005815aaf0f467bvyvkUvxjoFqPVu[] = {
/* columns rows colors chars-per-pixel */
"45 45 2 1 ",
"  c None",
". c #1E594A",
/* pixels */
"                                             ",
"                                             ",
"           .....                             ",
"          .........        .....             ",
"          .........        .....             ",
"        ............    .........            ",
"       ............... ............          ",
"       ............... ............          ",
"       ............................          ",
"       ............................          ",
"       ............................          ",
"       ............................          ",
"        ...........................          ",
"        ...........................          ",
"  ...............................            ",
" .........................................   ",
" .........................................   ",
" ........................................... ",
" ............................................",
" ............................................",
" ............................................",
" ............................................",
" ............................................",
"  .......................................... ",
"     .....................................   ",
"     ..................................      ",
"     ..................................      ",
"     ...............................         ",
"    ..................................       ",
"    ..................................       ",
"    ...................................      ",
"    ...................................      ",
"    ...................................      ",
"             ..........................      ",
"           ............................      ",
"           ............................      ",
"           ............................      ",
"           ...........................       ",
"           ...........................       ",
"           ............    ...........       ",
"           ............                      ",
"           ............                      ",
"             .........                       ",
"                                             ",
"                                             "
};
