/* XPM */
static char *c8b6851465484c0ee4dd3473d2269fecCh9PFd9GMLNYO81z[] = {
/* columns rows colors chars-per-pixel */
"90 90 2 1 ",
"  c None",
". c #00334C",
/* pixels */
"                                                                                          ",
"                                                                                          ",
"                                                                                          ",
"                                                                                          ",
"                                                                                          ",
"                                                                                          ",
"                                                                                          ",
"                                                                                          ",
"                                                                                          ",
"                                                                                          ",
"                                                                                          ",
"                                                                                          ",
"                                                                                          ",
"                                                                                          ",
"                                                                                          ",
"                                                                                          ",
"                                        ...............                                   ",
"                                       ..       ......                                    ",
"                                      ..............                                      ",
"                                     .....................                                ",
"                                   ..........                                             ",
"                                 ........                                                 ",
"                               ........                                                   ",
"                              .. ....                                                     ",
"                             .. ....                                                      ",
"                             .. ...                                                       ",
"                           ...  ..                                                        ",
"                           ... ..                                                         ",
"                          ... ...                                                         ",
"                          . . ..                                                          ",
"                         ... ..                                                           ",
"                         . . ..                                                           ",
"                         . . .                                                            ",
"                         . ...                                                            ",
"                         ....                                                             ",
"                         ....                                                             ",
"                         ....                                                             ",
"                         ...                                                              ",
"                         ...                                                              ",
"                         ...                                                              ",
"                         ...                                                              ",
"                         ...                                                              ",
"                         ...                                                              ",
"                         ...                                                              ",
"                         ...                                                              ",
"                         ...                                                              ",
"                         ...                                                              ",
"                         ...                                                              ",
"                         ...                                                              ",
"                         ...                                                              ",
"                         ...                                                              ",
"                         ...                                                              ",
"                         ....                                                             ",
"                          .. ..                                                           ",
"                          ..  .                                                           ",
"                          ... ..                                                          ",
"                          ....  .                                                         ",
"                          ..... ..                                                        ",
"                          . . ..  .                                                       ",
"                          . .. ..  ..                                                     ",
"                          .. ..  .  ...                                                   ",
"                           .  ..  ..  ..                                                  ",
"                           ..  ... ..   ....          ...                                 ",
"                            .. ........    .............                                  ",
"                             .   ..... ...        ....                                    ",
"                             ..   .. ..  ..........       ..                              ",
"                              ..............................                              ",
"                                     .....................                                ",
"                                        ...............                                   ",
"                                                                                          ",
"                                                                                          ",
"                                                                                          ",
"                                                                                          ",
"                                                                                          ",
"                                                                                          ",
"                                                                                          ",
"                                                                                          ",
"                                                                                          ",
"                                                                                          ",
"                                                                                          ",
"                                                                                          ",
"                                                                                          ",
"                                                                                          ",
"                                                                                          ",
"                                                                                          ",
"                                                                                          ",
"                                                                                          ",
"                                                                                          ",
"                                                                                          ",
"                                                                                          "
};
