/* XPM */
static char *_0d00ce8546043eb95d85c014915182dmnB2U7oweSErzMmR[] = {
/* columns rows colors chars-per-pixel */
"90 90 2 1 ",
"  c #00334C",
". c gray92",
/* pixels */
"..........................................................................................",
"..........................................................................................",
"..........................................................................................",
"..........................................................................................",
"..........................................................................................",
"..........................................................................................",
"..........................................................................................",
"..........................................................................................",
"..........................................................................................",
"..........................................................................................",
"..........................................................................................",
"..........................................................................................",
"..........................................................................................",
"..........................................................................................",
"..........................................................................................",
"..........................................................................................",
"..........................................................................................",
"........................................     .............................................",
".......................................  .................................................",
"......................................  ..................................................",
".....................................             ........................................",
"...................................             .   ......................................",
"...................................   ......  ..     .....................................",
"................................     .........  .     ....................................",
"...............................     ...........  .   . ...................................",
"...............................    .............  .     ..................................",
".............................   . ...............  .  .  .................................",
".............................  .. ................    .. .................................",
"............................  ..  .................   ..  ................................",
"...........................  ..  ...................   .. ................................",
".......................... ....  ................... . .. ................................",
".......................... ...   ................... .  . ................................",
".........................  ...  ....................    . ................................",
"......................... ... . .....................     ................................",
"........................  ... . .....................  .  ................................",
"........................ ....   .....................  . .................................",
".......................  ...   ......................  . .................................",
".......................  ... . ......................  . .................................",
"......................  .... . ......................  . .................................",
".....................   ....   ......................  . .................................",
"..................... . ....  .......................  . .................................",
"..................... . ....  .......................  . .................................",
"..................... . ...   .......................    .................................",
"....................  . ... . .......................    .................................",
".................... .. ... . ....................... .  .................................",
".................... .. ... . ....................... .  .................................",
".................... .. ... . ....................... .  .................................",
".................... .. ...  ........................ .  .................................",
".................... .. ...  .......................     .................................",
".................... .. ...  .......................   . .................................",
".................... .. ...  ......................     ..................................",
".................... .. ...  ...................... . . ..................................",
".................... .. ...  .....................    . ..................................",
".................... .. ...  ..................... .  . ..................................",
"....................  . ...  ....................  .  . ..................................",
"..................... . ...  ...................  ..  . ..................................",
"..................... .. ..  ................... ..  . ...................................",
".....................  . ..  ..................  ..  . ...................................",
"...................... . ..  .................. ...   ....................................",
"......................   ...  ................  ..    ....................................",
".......................   ..  ...............  ...  . ....................................",
".......................   ... ............... ...  .  ....................................",
"........................   ..  .............. ...  . .....................................",
"........................   ..   ............  ..   . .....................................",
".........................   .    ..........  ...  .  .....................................",
"......................... .  . .  ........  ... .  .......................................",
".........................  . .. .              . . .......................................",
".......................... .  .  ........ .....   ........................................",
".......................... ..  .  .....   ....   .........................................",
"........................... ..  .    .  ....     .........................................",
"...........................   .  ....        . ...........................................",
"..............................       ........  ...........................................",
"...................................  ......  .............................................",
".....................................       ..............................................",
"..........................................................................................",
"..........................................................................................",
"..........................................................................................",
"..........................................................................................",
"..........................................................................................",
"..........................................................................................",
"..........................................................................................",
"..........................................................................................",
"..........................................................................................",
"..........................................................................................",
"..........................................................................................",
"..........................................................................................",
"..........................................................................................",
"..........................................................................................",
"..........................................................................................",
".........................................................................................."
};
