/* XPM */
static char *a270c4750ac346a5935d4d85f48e08d9cg1dTNMuoJ6ufJ9I[] = {
/* columns rows colors chars-per-pixel */
"90 90 2 1 ",
"  c None",
". c #00334C",
/* pixels */
"                                                                                          ",
"                                                                                          ",
"                                                                                          ",
"                                                                                          ",
"                                                                                          ",
"                                                                                          ",
"                                                                                          ",
"                                                                                          ",
"                                                                                          ",
"                                                                                          ",
"                                                                                          ",
"                                                                                          ",
"                                                                                          ",
"                                                                                          ",
"                                                                                          ",
"                                                                                          ",
"                                                                                          ",
"                                                                                          ",
"                           ..                                                             ",
"                         ...................................                              ",
"                       ...................................                                ",
"                         ....                       ...                                   ",
"                         ....                                                             ",
"                         ....                                                             ",
"                         ....                                                             ",
"                         .. .                                                             ",
"                         .. .                                                             ",
"                         .. ..                                                            ",
"                         .....                                                            ",
"                         .....                                                            ",
"                         .....                                                            ",
"                         .....                                                            ",
"                         .. ..                                                            ",
"                         .. ..                                                            ",
"                         .. ..                                                            ",
"                         .. ..                                                            ",
"                         .. ..                                                            ",
"                         .. ...                                                           ",
"                         .. ...                                                           ",
"                         .. ...                                                           ",
"                         ......                                                           ",
"                        .............  ..                                                 ",
"                         ......    ......                                                 ",
"                         ..........   ....                                                ",
"                         . .................                                              ",
"                         . ....                                                           ",
"                         . ....                                                           ",
"                        . .....                                                           ",
"                        . . ...                                                           ",
"                        . . ..                                                            ",
"                        . . ..                                                            ",
"                        . . ..                                                            ",
"                        . . ..                                                            ",
"                        ... ..                                                            ",
"                        ......                                                            ",
"                        ......                                                            ",
"                        ......                                                            ",
"                        ......                                                            ",
"                        ......                                                            ",
"                        ......                                                            ",
"                        . ....                                                            ",
"                        . ....                                                            ",
"                        . . .                                                             ",
"                          . .                                                             ",
"                          . .                                                             ",
"                          . ........                                                      ",
"                          ..     ........................                                 ",
"                           ..............................                                 ",
"                                                                                          ",
"                                                                                          ",
"                                                                                          ",
"                                                                                          ",
"                                                                                          ",
"                                                                                          ",
"                                                                                          ",
"                                                                                          ",
"                                                                                          ",
"                                                                                          ",
"                                                                                          ",
"                                                                                          ",
"                                                                                          ",
"                                                                                          ",
"                                                                                          ",
"                                                                                          ",
"                                                                                          ",
"                                                                                          ",
"                                                                                          ",
"                                                                                          ",
"                                                                                          ",
"                                                                                          "
};
