/* XPM */
static char *_725484e142643b4a1fd3d2412bd3b41sdFERpMjlLPC5kgB[] = {
/* columns rows colors chars-per-pixel */
"15 90 5 1 ",
"  c #0D2624",
". c #1C5352",
"X c #2E7170",
"o c #ADC7C7",
"O c #E9F0F0",
/* pixels */
"oOXOXX.X...    ",
"oOOXO.X.X..    ",
"oOOXO.X.X...   ",
"oXOOXX.X...    ",
"oOOXO.X.X...   ",
"oOOOO.X.X...   ",
"oXOOXX.X...    ",
"oOOXOXX.X.     ",
"oOOXOXX.X...   ",
"oOXOXX.X...    ",
"oOOOO.X.X. .   ",
"OOOXO.X.X..    ",
"oOXOXX.X....   ",
"OOOOO.X.X...   ",
"oOOOOXX.X...   ",
"oOXOXX.X....   ",
"oOOXO.X.X..    ",
"oXOOO.X.X...   ",
"oOXOXXXX...    ",
"oOOXOXX.X...   ",
"oOOXOXX.X...   ",
"oOOOXX.X....   ",
"oOOXO.X.X..    ",
"oOOOO.X.X...   ",
"oXOOXX.X..     ",
"oOOXO.X.X.     ",
"OXOXO.X.X...   ",
"oOOOXXXX...    ",
"oOOOO.X.X. .   ",
"oOOXO.X.X.     ",
"oOXOXXXX...    ",
"oXOXO.X.X...   ",
"oOOOOXX.X..    ",
"oOXOXX.X....   ",
"oOOXOXX.X..    ",
"oOOOO.X.X...   ",
"oOXOXX.X...    ",
"oXOXO.X.X...   ",
"OOOXO.X.X...   ",
"oXOOXXXX...    ",
"oOOOOXX.X..    ",
"oOOXO.X.X...   ",
"oOOOXX.X...    ",
"oOOXO.X.X...   ",
"oXOXO.X.X...   ",
"oOXOXX.X...    ",
"oOOXO.X.X..    ",
"oOOXO.X.X...   ",
"oXOOXX.X...    ",
"oOOXO.X.X...   ",
"oOOOO.X.X...   ",
"oXOOXX.X...    ",
"oOOXOXX.X.     ",
"oOOXOXX.X...   ",
"oOXOXX.X...    ",
"oOOOO.X.X. .   ",
"OOOXO.X.X..    ",
"oOXOXX.X....   ",
"OOOOO.X.X...   ",
"oOOOOXX.X...   ",
"oOXOXX.X....   ",
"oOOXO.X.X..    ",
"oXOOO.X.X...   ",
"oOXOXXXX...    ",
"oOOXOXX.X...   ",
"oOOXOXX.X...   ",
"oOOOXX.X....   ",
"oOOXO.X.X..    ",
"oOOOO.X.X...   ",
"oXOOXX.X..     ",
"oOOXO.X.X.     ",
"OXOXO.X.X...   ",
"oOOOXXXX...    ",
"oOOOO.X.X. .   ",
"oOOXO.X.X.     ",
"oOXOXXXX...    ",
"oXOXO.X.X...   ",
"oOOOOXX.X..    ",
"oOXOXX.X....   ",
"oOOXOXX.X..    ",
"oOOOO.X.X...   ",
"oOXOXX.X...    ",
"oXOXO.X.X...   ",
"OOOXO.X.X...   ",
"oXOOXXXX...    ",
"oOOOOXX.X..    ",
"oOOXO.X.X...   ",
"oOOOXX.X...    ",
"oOOXO.X.X...   ",
"oXOXO.X.X...   "
};
