/* XPM */
static char *_052b94ac6c74de7cef5a9b2b272c7c66Q9WuPpeiApLMBUQ[] = {
/* columns rows colors chars-per-pixel */
"15 15 5 1 ",
"  c #0D2624",
". c #1C5352",
"X c #2E7170",
"o c #ADC7C7",
"O c #E9F0F0",
/* pixels */
"oOooooooooOoooo",
"ooooooOOOOOOOOO",
"ooOoOOOOOOOOOXO",
"oooOOOOOOOXOXOO",
"ooOOOOOXOOOXOXO",
"ooXOOOXOXO.XXX.",
"oOOOOOOXX.XXXXX",
"oOOOXOXXXXXX.X.",
"oOOXOXX.XXX.X.X",
"oOOOXO.XXX.X...",
"OXOOOXX.X......",
"oOOOXXXX.X.....",
"oOOXOXX.X... . ",
"oOXOXXXX...    ",
"oOOXO.X.X...   "
};
