/* XPM */
static char *_43d233348a0429c99a22e1da5043bcfedLskHMwO7Bb4rI5[] = {
/* columns rows colors chars-per-pixel */
"45 45 79 1 ",
"  c #00334C",
". c #02344D",
"X c #05374F",
"o c #093A52",
"O c #0B3C53",
"+ c #0D3D55",
"@ c #103F57",
"# c #114057",
"$ c #124158",
"% c #14435A",
"& c #15445A",
"* c #17455C",
"= c #1D495F",
"- c #1D4A60",
"; c #1F4C61",
": c #204C62",
"> c #234E64",
", c #265166",
"< c #285267",
"1 c #295368",
"2 c #2B5569",
"3 c #2D566B",
"4 c #2F586C",
"5 c #335B6E",
"6 c #365E71",
"7 c #3A6073",
"8 c #3B6174",
"9 c #3C6275",
"0 c #3F6476",
"q c #416678",
"w c #44687A",
"e c #4B6D7F",
"r c #527383",
"t c #537484",
"y c #567686",
"u c #597988",
"i c #5D7C8B",
"p c #5F7D8C",
"a c #607E8D",
"s c #6B8794",
"d c #6F8A97",
"f c #77909C",
"g c #7B939F",
"h c #7B94A0",
"j c #7D95A1",
"k c #8097A3",
"l c #8299A4",
"z c #849AA5",
"x c #899FA9",
"c c #8BA0AA",
"v c #8DA1AB",
"b c #8EA2AC",
"n c #93A6AF",
"m c #94A7B0",
"M c #97A9B2",
"N c #98AAB3",
"B c #9AACB4",
"V c #A1B1B9",
"C c #A5B4BC",
"Z c #A9B7BE",
"A c #AAB8BF",
"S c #AEBBC2",
"D c #B2BEC4",
"F c #B7C3C8",
"G c #B8C3C9",
"H c #C2CBCF",
"J c #C5CDD1",
"K c #C8D0D3",
"L c #CDD3D6",
"P c #CED4D7",
"I c #D1D7DA",
"U c #D3D8DB",
"Y c #D9DDDF",
"T c #E0E2E4",
"R c #E2E4E5",
"E c #E5E7E7",
"W c #E6E7E8",
"Q c #E7E8E9",
"! c gray92",
/* pixels */
"!!!!!!!!!!!!!!!!!!!!!!!!!!!!!!!!!!!!!!!!!!!!!",
"!!!!!!!!!!!!!!!!!!!!!!!!!!!!!!!!!!!!!!!!!!!!!",
"!!!!!!!!!!!!!!!!!!!!!!!!!!!!!!!!!!!!!!!!!!!!!",
"!!!!!!!!!!!!!!!!!!!!!!!!!!!!!!!!!!!!!!!!!!!!!",
"!!!!!!!!!!!!!!!!!!!!!!!!!!!!!!!!!!!!!!!!!!!!!",
"!!!!!!!!!!!!!!!!!!!!!!NMo!!!!!!!!!!!!!!!!!!!!",
"!!!!!!!!!!!!!!!!!!!!!C$  !!!!!!!!!!!!!!!!!!!!",
"!!!!!!!!!!!!!!!!!!!!V 8. g!!!!!!!!!!!!!!!!!!!",
"!!!!!!!!!!!!!!!!!!!!@x  Vr!!!!!!!!!!!!!!!!!!!",
"!!!!!!!!!!!!!!!!!!!0f    r!!!!!!!!!!!!!!!!!!!",
"!!!!!!!!!!!!!!!!!!! C8.  r!!!!!!!!!!!!!!!!!!!",
"!!!!!!!!!!!!!!!!!! A     E!!!!!!!!!!!!!!!!!!!",
"!!!!!!!!!!!!!!!!! F2 n.o56!!!!!!!!!!!!!!!!!!!",
"!!!!!!!!!!!!!!!!n*Oyh! =kr!!!!!!!!!!!!!!!!!!!",
"!!!!!!!!!!!!!!WA   s!! =kr!!!!!!!!!!!!!!!!!!!",
"!!!!!!!!!!!!!!! l+hH!! =kr!!!!!!!!!!!!!!!!!!!",
"!!!!!!!!!!!!!!%c  U!!! ,pt!!!!!!!!!!!!!!!!!!!",
"!!!!!!!!!!!!!! v !!!!!.XN5!!!!!!!!!!!!!!!!!!!",
"!!!!!!!!!!!!! ! 5!!!!P  C4!!!!!!!!!!!!!!!!!!!",
"!!!!!!!!!!!!!!<*!!!!!G  C4!!!!!!!!!!!!!!!!!!!",
"!!!!!!!!!!!!!!6z!!!!!G .S4!!!!!!!!!!!!!!!!!!!",
"!!!!!!!!!!!!!! !!!!!!G -!4!!!!!!!!!!!!!!!!!!!",
"!!!!!!!!!!!!!!TQ!!!!!G =!4!!!!!!!!!!!!!!!!!!!",
"!!!!!!!!!!!!!!!!!!!!!G =!4!!!!!!!!!!!!!!!!!!!",
"!!!!!!!!!!!!!!!!!!!!!G :!3!!!!!!!!!!!!!!!!!!!",
"!!!!!!!!!!!!!!!!!!!!!3  pP!!!!!!!!!!!!!!!!!!!",
"!!!!!!!!!!!!!!!!!!!!!   a!!!!!!!!!!!!!!!!!!!!",
"!!!!!!!!!!!!!!!!!!!!!   a!!!!!!!!!!!!!!!!!!!!",
"!!!!!!!!!!!!!!!!!!!!! G a!!!!!!!!!!!!!!!!!!!!",
"!!!!!!!!!!!!!!!!!!!!J ! +!!!!!!!!!!!!!!!!!!!!",
"!!!!!!!!!!!!!!!!!!!!z ! BW!!!!!!!!!!!!!!!!!!!",
"!!!!!!!!!!!!!!!!!!!!n #6z!!!!!!!!!!!!!!!!!!!!",
"!!!!!!!!!!!!!!!!!!!!   9N!!!!&,!!!!!!!!!!!!!!",
"!!!!!!!!!!!!!!!!!!!!Z  :=4ww>!D G!!!!!!!!!!!!",
"!!!!!!!!!!!!!!!!WY! o  qg! ..g!!!!!!!!!!!!!!!",
"!!!!!!!!!!!!!!WbqIK!!  +  i!!!W!!!!!!!!!!!!!!",
"!!!!!!!!!!!!!jc3m             dua!!!!!!!!!!!!",
"!!!!!!!!!!!  8  .   pA  :777 !YY1 !!!!!!!!!!!",
"!!!!!!!!!!!! X   !;. .  +.XX     h!!!!!!!!!!!",
"!!!!!!!!!!!!!!!!!R  eVMMx!!!!Ln!!!!!!!!!!!!!!",
"!!!!!!!!!!!!!!!!!!!!!!!!!!!!!!!!!!!!!!!!!!!!!",
"!!!!!!!!!!!!!!!!!!!!!!!!!!!!!!!!!!!!!!!!!!!!!",
"!!!!!!!!!!!!!!!!!!!!!!!!!!!!!!!!!!!!!!!!!!!!!",
"!!!!!!!!!!!!!!!!!!!!!!!!!!!!!!!!!!!!!!!!!!!!!",
"!!!!!!!!!!!!!!!!!!!!!!!!!!!!!!!!!!!!!!!!!!!!!"
};
