/* XPM */
static char *_1af0f56940f4f84f80b02c741c948d9hFnLMrv2TSiWR1ol[] = {
/* columns rows colors chars-per-pixel */
"45 45 5 1 ",
"  c None",
". c gray15",
"X c #535353",
"o c #717171",
"O c gray94",
/* pixels */
"                                             ",
"                                             ",
"                                             ",
"                                             ",
"                                             ",
"                                             ",
"                                             ",
"                                             ",
"                                             ",
"                                             ",
"                                             ",
"                                             ",
"                                             ",
"                                             ",
"                                             ",
"                                             ",
"                                             ",
"                                             ",
"                        O             O      ",
"                   OOO          OOO          ",
"                 OOoooOO      OOoooOO        ",
"                 OoXXXoO      OoXXXoO        ",
"                OoX...XoO    OoX...XoO       ",
"                OoX...XoO    OoX...XoO       ",
"              O Oo.....oO    Oo.....oO       ",
"                Oo.....oO    Oo.....oO       ",
"               OOo.....oO   OOo.....oOO      ",
"                Oo.....oO    Oo.....oO       ",
"                OX.....XO    OX.....XO       ",
"                OX.....XO    OX.....XO       ",
"                OX.....XO    OX.....XO  O    ",
"              O OX.....XO    OX.....XO       ",
"                OX.....XO    OX.....XO       ",
"                OX.....XO    OX.....XO       ",
"                Oo.....oOO   Oo.....oO       ",
"                Oo.....oO    Oo.....oO       ",
"                Oo.....oOO   Oo.....oO       ",
"                Oo.....oO  O Oo.....oO       ",
"                Oo.....oO    Oo.....oO       ",
"                OoX...XoO    OoX...XoO       ",
"                OoX...XoO    OoX...XoO       ",
"                 OoXXXoO      OoXXXoO        ",
"                OOOoooOO      OOoooOO        ",
"                   OOO          OOO          ",
"                                             "
};
