/* XPM */
static char *_0c7fdc183354039ad433c98c4452869qUTIbQtShXynWFf9[] = {
/* columns rows colors chars-per-pixel */
"45 45 45 1 ",
"  c #00334C",
". c #01344D",
"X c #04364E",
"o c #063750",
"O c #063850",
"+ c #093A52",
"@ c #0B3C53",
"# c #124158",
"$ c #214D62",
"% c #275166",
"& c #2B5569",
"* c #355D70",
"= c #396073",
"- c #45697B",
"; c #486B7D",
": c #4E7081",
"> c #587888",
", c #5D7C8B",
"< c #5F7D8C",
"1 c #698593",
"2 c #6B8794",
"3 c #708B98",
"4 c #758F9B",
"5 c #77909C",
"6 c #78919D",
"7 c #869CA6",
"8 c #8CA1AB",
"9 c #93A6AF",
"0 c #93A6B0",
"q c #94A7B0",
"w c #96A9B2",
"e c #99ABB4",
"r c #9CADB5",
"t c #A2B2BA",
"y c #A8B6BD",
"u c #B4C0C6",
"i c #B9C4C9",
"p c #C1CACE",
"a c #C5CDD1",
"s c #CFD5D8",
"d c #D0D6D9",
"f c #DBDFE0",
"g c #E5E7E7",
"h c #E7E8E9",
"j c gray92",
/* pixels */
"jjjjjjjjjjjjjjjjjjjjjjjjjjjjjjjjjjjjjjjjjjjjj",
"jjjjjjjjjjjjjjjjjjjjjjjjjjjjjjjjjjjjjjjjjjjjj",
"jjhjjjjjjjjjjjjjjjjjjjjjjjjjjjjjjjjjjjjjjjjjj",
"jjjjjjjjjjjjjjjjjjjjjjjjjjjjjjjjjjjjjjjjjjjjj",
"jjjjjjjjjjjjjjjjjjjjjjjjjjjjjjjjjjjjjjjjjjjjj",
"jjjjjjjjjjjjjjjjjjjjjjjjjjjjjjjjjjjjjhjjjjjjj",
"jjjjjjjjjjjjjjjjjjjjjjjjjjjjjjjjjjjjjjjjjjjjj",
"jjjjjjjjjjjjjjjjjjjjjjjjjjjjjjjjjjjjjjjjjjjjj",
"jjjjjjjjjjjjjjjjjjjjjjjjjjjjjjjjjjjjjjjjjjjjj",
"jjjjjjjjjjjjjjjjjjjjjjjjjjjjjjjjjjjjjjjjjjjjj",
"jjjjjjjjjjjjjjjjjjjjjj<<9jjjjjjjjjjjjjjjjjjjj",
"jjjjjjjjjjjjjjjj  X   7h  pdjjjjjjjjjjjjjjjjj",
"jjjjjjjjjjjjjjjj   jj$  $j: jjjjjjjjjjjjjjjjj",
"jjjjjjjjjjjjjjjj  ;pq#&- a 0 jjjjjjjjjjjjjjjj",
"jjjjjjjjjjjjjjjj  ,jjjja1 g<  jjjjjjjjjjjjjjj",
"jjjjjjjjjjjjjjjj  ,jjjjjjj gj rjjjjjjjjjjjjjj",
"jjjjjjjjjjjjjjjj  ,jjjjjjjj  jejjjjjjjjjjjjjj",
"jjjjjjjjjjjjjjjj  ,jjjjjjjj8 jejjjjjjjjjjjjjj",
"jjjjjjjjjjjjjjjj  ,jjjjjjjj7 j%jjjjjjjjjjjjjj",
"jjjjjjjjjjjjjjjj  ,jjjjjjjj7 r jjjjjjjjjjjjjj",
"jjjjjjjjjjjjjjjt. ,jjjjjjjj5 @&jjjjjjjjjjjjjj",
"jjjjjjjjjjjjjjjy  ,jjjjjjj4 %j3jjjjjjjjjjjjjj",
"jjjjjjjjjjjjjjjy  ,jjjjjj6 wu jjjjjjjjjjjjjjj",
"jjjjjjjjjjjjjjjy  ,jjjjj2>=* jjjjjjjjjjjjjjjj",
"jjjjjjjjjjjjjjjy  ,jjsj  oijjjjjjjjjjjjjjjjjj",
"jjjjjjjjjjjjjjjy        jjjjjjjjjjjjjjjjjjjjj",
"jjjjjjjjjjjjjjjy O +rr   jjjjjjjjjjjjjjjjjjjj",
"jjjjjjjjjjjjjjjy            jjjjjjjjjjjjjjjjj",
"jjjjjjjjjjjjjjjy   jjjjj      jjjjjjjjjjjjjjj",
"jjjjjjjjjjjjjjjy   jjjjjjjj    jjjjjjjjjjjjjj",
"jjjjjjjjjjjjjjjy j jjjjjjjjjj   jjjjjjjjjjjjj",
"jjjjjjjjjjjjjjjr.  jjjjjjjjjjj   jjjjjjjjjjjj",
"jjjjjjjjjjjjjjjj  jjjjjjjjjjjj   jjjjjjjjjjjj",
"jjjjjjjjjjjjjjjj  jjjjjjjjjjj  j jjjjjjjjjjjj",
"jjjjjjjjjjjjjjjj  jjjjjjjjjj  jj jjjjjjjjjjjj",
"jjjjjjjjjjjjjjjjj jjjjjjjjj  jjj jjjjjjjjjjjj",
"jjjjjjjjjjjjjjjjj jjjjjjj  jjj  jjjjjjjjjjjjj",
"jjjjjjjjjjjjjjj           j    jjjjjjjjjjjjjj",
"jjjjjjjjjjjjjjjjjjj         jjjjjjjjjjjjjjjjj",
"jjjjjjjjjjjjjjjjjjjjjjjjjjjjjjjjjjjjjjjjjjjjj",
"jjjjjjjjjjjjjjjjjjjjjjjjjjjjjjjjjjjjjjjjjjjjj",
"jjjjjjjjjjjjjjjjjjjjjjjjjjjjjjjjjjjjjjjjjjjjj",
"jjjjjjjjjjjjjjjjjjjjjjjjjjjjjjjjjjjjjjjjjjjjj",
"jjjjjjjjjjjjjjjjjjjjjjjjjjjjjjjjjjjjfjjjjjjjj",
"jjjjjjjjjjjjjjjjjjjjjjjjjjjjjjjjjjjjjjjjjjjjj"
};
