/* XPM */
static char *_92dbd8ede9e42129eb36d8c24f3fe54UjKkFM9LNqNPQ28x[] = {
/* columns rows colors chars-per-pixel */
"45 45 2 1 ",
"  c None",
". c #00334C",
/* pixels */
"                                             ",
"                                             ",
"                                             ",
"                                             ",
"                                             ",
"             .                               ",
"          .........................          ",
"           ...                ..             ",
"           ...                               ",
"           ...                               ",
"           ..                                ",
"           .. .                              ",
"           ....                              ",
"           ....                              ",
"           ....                              ",
"           .. .                              ",
"           .. .                              ",
"           .. .                              ",
"           .. .                              ",
"           .. ..                             ",
"           .....                             ",
"           ......... ..                      ",
"           .....    ...                      ",
"           . ............                    ",
"           . ...                             ",
"            ....                             ",
"            . ..                             ",
"            . .                              ",
"            . .                              ",
"           .. .                              ",
"           ....                              ",
"           ....                              ",
"           ....                              ",
"           ....                              ",
"           ....                              ",
"            ...                              ",
"            .                                ",
"            .                                ",
"            . .....                          ",
"             .....................           ",
"                                             ",
"                                             ",
"                                             ",
"                                             ",
"                                             "
};
