/* XPM */
static char *_6da593bf31f4be9e4f629af2ff0083ahvWpOxUsOQvQeMyw[] = {
/* columns rows colors chars-per-pixel */
"45 45 2 1 ",
"  c None",
". c #00334C",
/* pixels */
"                                             ",
"                                             ",
"  ..                                         ",
"  ......                                     ",
"  .                                        . ",
"  .                                   ...... ",
"  .                                       .. ",
"  .                                       .. ",
"                                          .. ",
"                                             ",
"                      ..                     ",
"                ......  ..                   ",
"                ...  .... ..                 ",
"                ...  .... . .                ",
"                ...     .. ...               ",
"                ...       .  .               ",
"                ...        ..                ",
"                ...         .                ",
"                ...         . .              ",
"                ...         . .              ",
"                ...         ...              ",
"                ...       ... .              ",
"                ...       .  .               ",
"                ...     .....                ",
"                ...    ...                   ",
"                ... ....                     ",
"                ....                         ",
"                ...                          ",
"                ...                          ",
"                ..                           ",
"                . .                          ",
"                . .                          ",
"                ..                           ",
"                ..                           ",
"                ..                           ",
"                 .                           ",
"                                             ",
"                                         .   ",
"                                         .   ",
"                                         .   ",
"   .                                         ",
"   .                                         ",
"   .                                         ",
"   ....                              .....   ",
"                                             "
};
