/* XPM */
static char *e3d15232d83f4abec0de8bb8a6962d347F0KIpz5c7FKrZg3[] = {
/* columns rows colors chars-per-pixel */
"90 15 2 1 ",
"  c #00334C",
". c gray92",
/* pixels */
"..........................................................................................",
"..........................................................................................",
"..........................................................................................",
"...................................................    ...................................",
"........   ...................................      ...  .................................",
".......  .  ................................   .......... ...................        .....",
"....... ...  ......       ........       ... ............  ...          ....  ......  ....",
"....... ..... ....  .....  ......  .....  .  ............. .  .........   .  ........ ....",
"......  ...... .. .........  ...  .......   ..............   ............ . ..............",
"...... ........   ..........  .. ........  ................  ............   ..............",
"...... .........  ...........   ........................... .............  ...............",
"..............................  .........................................  ...............",
".........................................................................  ...............",
"..........................................................................................",
".........................................................................................."
};
