/* XPM */
static char *_ba35b3e4ef144a3d50d523e242cd005tUJHXqrKjI3dI90B[] = {
/* columns rows colors chars-per-pixel */
"90 90 2 1 ",
"  c #00334C",
". c gray92",
/* pixels */
"..........................................................................................",
"..........................................................................................",
"..........................................................................................",
"..........................................................................................",
"..........................................................................................",
"..........................................................................................",
"..........................................................................................",
"..........................................................................................",
"..........................................................................................",
"..........................................................................................",
"..........................................................................................",
"..........................................................................................",
"..........................................................................................",
"..........................................................................................",
"..........................................................................................",
"..........................................................................................",
"..........................................................................................",
"................................................ .........................................",
"............................................     .........................................",
"...........................................      .........................................",
"..........................................  .    .........................................",
".........................................         ........................................",
".........................................      .  ........................................",
"........................................  .  . .  ........................................",
".......................................  .        ........................................",
".......................................           ........................................",
"......................................  .  .      ........................................",
".....................................  .          ........................................",
"....................................  .          .........................................",
"...................................  .     .      ........................................",
"...................................    .  .. . .  ........................................",
"..................................  . .  ... . .  ........................................",
".................................       .... . .  ........................................",
"................................       ..... . .  ........................................",
"...............................  .  .  ..... . .  ........................................",
"...............................      ....... . .  ........................................",
"..............................  .    ....... . .  ........................................",
".............................       ........ .    ........................................",
".............................  .   .........    . ........................................",
"............................  .   ..........    . ........................................",
"............................  .   .........     . ........................................",
"..............................   ..........     . ........................................",
"..............................  ...........     . ........................................",
"..............................  ...........     . ........................................",
".............................  ............  . .. ........................................",
".............................  ............  . .. ........................................",
"............................. .............  . .. ........................................",
"...........................................  . .. ........................................",
"...........................................  . .. ........................................",
"...........................................  . .. ........................................",
"...........................................  . .. ........................................",
"...........................................    .  ........................................",
"..........................................     . .........................................",
"..........................................     . .........................................",
"..........................................     . .........................................",
"..........................................     . .........................................",
"..........................................     . .........................................",
"..........................................  .  . .........................................",
"..........................................  .  . .........................................",
".........................................   .    .........................................",
".........................................   .   ..........................................",
".........................................   .   ..........................................",
".........................................    .  ..........................................",
"........................................     .  ..........................................",
"........................................     .  ........    ..............................",
".........................................    .          ....  ............................",
".........................................       .........     ............................",
"......................................       .  ...      .................................",
"..................................    ....   .     .......................................",
"................................  ........          ......................................",
"............................... ...                       ................................",
"............................                                   ...........................",
"........................                 ..             ......   .........................",
"........................   ..                   .......          .........................",
"..........................         ..                           ..........................",
"....................................    ..       ........   ..............................",
".....................................     ................................................",
"..........................................................................................",
"..........................................................................................",
"..........................................................................................",
"..........................................................................................",
"..........................................................................................",
"..........................................................................................",
"..........................................................................................",
"..........................................................................................",
"..........................................................................................",
"..........................................................................................",
"..........................................................................................",
"..........................................................................................",
".........................................................................................."
};
