/* XPM */
static char *a0cfadeb0a744e10de1f899545da4c6eMKss0XvfsJtcWMHc[] = {
/* columns rows colors chars-per-pixel */
"45 45 5 1 ",
"  c gray15",
". c #535353",
"X c #717171",
"o c gray78",
"O c gray94",
/* pixels */
"     ....XXXXXOOOOOoooooooooooooooooooooooooo",
"     ....XXXXXOOOOOoooooooooooooooooooooooooo",
"     ....XXXXXOOOOOoooooooooooooooooooooooooo",
"     ....XXXXXOOOOOoooooooooooooooooooooooooo",
"     ....XXXXXOOOOOoooooooooooooooooooooooooo",
"     ....XXXXXOOOOOoooooooooooooooooooooooooo",
"     ....XXXXXOOOOOoooooooooooooooooooooooooo",
"     ....XXXXXOOOOOoooooooooooooooooooooooooo",
"     ....XXXXXOOOOOoooooooooooooooooooooooooo",
"     ....XXXXXOOOOOoooooooooooooooooooooooooo",
"     ....XXXXXOOOOOoooooooooooooooooooooooooo",
"     ....XXXXXOOOOOoooooooooooooooooooooooooo",
"     ....XXXXXOOOOOoooooooooooooooooooooooooo",
"     ....XXXXXOOOOOoooooooooooooooooooooooooo",
"     ....XXXXXOOOOOoooooooooooooooooooooooooo",
"     ....XXXXXOOOOOoooooooooooooooooooooooooo",
"     ....XXXXXOOOOOoooooooooooooooooooooooooo",
"     ....XXXXXOOOOOoooooooooooooooooooooooooo",
"     ....XXXXXOOOOOoooooooooooooooooooooooooo",
"     ....XXXXXOOOOOoooooooooooooooooooooooooo",
"     ....XXXXXOOOOOoooooooooooooooooooooooooo",
"     ....XXXXXOOOOOoooooooooooooooooooooooooo",
"     ....XXXXXOOOOOoooooooooooooooooooooooooo",
"     ....XXXXXOOOOOoooooooooooooooooooooooooo",
"     ....XXXXXOOOOOoooooooooooooooooooooooooo",
"     ....XXXXXOOOOOoooooooooooooooooooooooooo",
"     ....XXXXXOOOOOoooooooooooooooooooooooooo",
"     ....XXXXXOOOOOoooooooooooooooooooooooooo",
"     ....XXXXXOOOOOoooooooooooooooooooooooooo",
"     ....XXXXXOOOOOoooooooooooooooooooooooooo",
"     ....XXXXXOOOOOoooooooooooooooooooooooooo",
"     ....XXXXXOOOOOoooooooooooooooooooooooooo",
"     ....XXXXXOOOOOoooooooooooooooooooooooooo",
"     ....XXXXXOOOOOoooooooooooooooooooooooooo",
"     ....XXXXXOOOOOoooooooooooooooooooooooooo",
"     ....XXXXXOOOOOoooooooooooooooooooooooooo",
"     ....XXXXXOOOOOoooooooooooooooooooooooooo",
"     ....XXXXXOOOOOoooooooooooooooooooooooooo",
"     ....XXXXXOOOOOoooooooooooooooooooooooooo",
"     ....XXXXXOOOOOoooooooooooooooooooooooooo",
"     ....XXXXXOOOOOoooooooooooooooooooooooooo",
"     ....XXXXXOOOOOoooooooooooooooooooooooooo",
"     ....XXXXXOOOOOoooooooooooooooooooooooooo",
"     ....XXXXXOOOOOoooooooooooooooooooooooooo",
"     ....XXXXXOOOOOoooooooooooooooooooooooooo"
};
