/* XPM */
static char *a77c08118a1c4f03bfb6e348e4680ff6MM4D9jKrhwlr67IU[] = {
/* columns rows colors chars-per-pixel */
"45 45 5 1 ",
"  c #00131A",
". c #1E594A",
"X c #6CA66C",
"o c #8DBA8D",
"O c #D7F7D7",
/* pixels */
"XXoooooooooooooooooooooooooooooooooooooooooXX",
"XXoooooooooooooooooooooooooooooooooooooooooXX",
"ooXXXXXXXXXXXXXXXXXXXXXXXXXXXXXXXXXXXXXXXXXoo",
"ooXXXXXXXXXXXXXXXXXXXXXXXXXXXXXXXXXXXXXXXXXoo",
"ooXXXXXXXXXXXXXXXXXXXXXXXXXXXXXXXXXXXXXXXXXoo",
"OOOOXX.................OOOOOOOOOOOO....XXXXoo",
"OOOOXX.................OOOOOOOOOOOO....XXXXoo",
"OOOO..XX.............................OO..XXoo",
"OOOO..XX.............................OO..XXoo",
"OOOO..XX.................................XXoo",
"OOOO..XX.................................XXoo",
"OOXXOO..XXXXXX...XX............  .....OOOOXoo",
"OOXXOO..XXXXXX...XX............  .....OOOOXoo",
"  OOOO..XX....OOOOXXX............  .OOOOXXOOo",
"  OOOO..XX....OOOOXXX............  .OOOOXXOOo",
"ooXXOOXXOOOOOO....OOOOOOXXXXXXXXXX..OOOOOOOOo",
"ooXXOOXXOOOOOO....OOOOOOXXXXXXXXXX..OOOOOOOOo",
"ooOOXXOO......OOOO......OOOOOO  ..OOOOXXOOOOo",
"ooOOXXOO......OOOO......OOOOOO  ..OOOOXXOOOOo",
"oo  OO  ..........OOOOOO....XX..XXOOOOOOOOOOo",
"oo  OO  ..........OOOOOO....XX..XXOOOOOOOOOOo",
"ooXX  XX........XX........XXOO..OOXXOOOOOO  o",
"ooXX  XX........XX........XXOO..OOXXOOOOOO  o",
"ooXX..XX......XXXXXX......OOOO..OOOOXXOO  Xoo",
"ooXX..XX......XXXXXX......OOOO..OOOOXXOO  Xoo",
"ooXX..XX..................OOOO  ..OOOOOO.XXoo",
"ooXX..XX..................OOOO  ..OOOOOO.XXoo",
"ooXX..XX..  ..............OOOOXX  OOOO  .XXoo",
"ooXX..XX..  ..............OOOOXX  OOOO  .XXoo",
"ooXX..XX..  ..............OO..XX.     ...XXoo",
"ooXX..XX..  ..............OO..XX.     ...XXoo",
"ooXX..XXOO..........  ....OOOOXX.........XXoo",
"ooXX..XXOO..........  ....OOOOXX.........XXoo",
"ooXX..XX............  ....OO    .........XXoo",
"ooXX..XX............  ....OO    .........XXoo",
"ooXX....  ............OO..OO  ...........XXoo",
"ooXX....  ............OO..OO  ...........XXoo",
"ooXX..XX..      ..........    .......OO..XXoo",
"ooXX..XX..      ..........    .......OO..XXoo",
"ooXXXX..            ....             ..XXXXoo",
"ooXXXX..            ....             ..XXXXoo",
"ooXXXXXXXXXXXXXXXXXX    XXXXXXXXXXXXXXXXXXXoo",
"ooXXXXXXXXXXXXXXXXXX    XXXXXXXXXXXXXXXXXXXoo",
"XXoooooooooooooooooooooooooooooooooooooooooXX",
"XXoooooooooooooooooooooooooooooooooooooooooXX"
};
