/* XPM */
static char *_edf8f0e247245f8f8ac5aa4e76f170cY50gWCJEPmA8UVFU[] = {
/* columns rows colors chars-per-pixel */
"45 45 5 1 ",
"  c #00131A",
". c #1E594A",
"X c #6CA66C",
"o c #8DBA8D",
"O c #D7F7D7",
/* pixels */
"XXoooooooooooooooooooooooooooooooooooooooooXX",
"XXoooooooooooooooooooooooooooooooooooooooooXX",
"ooXXXXXXXXXXXXXXXXXXXXXXXXXXXXXXXXXXXXXXXXXoo",
"ooXXXXXXXXXXXXXXXXXXXXXXXXXXXXXXXXXXXXXXXXXoo",
"ooXXXXXXXXXXXXXXXXXXXXXXXXXXXXXXXXXXXXXXXXXoo",
"OOOOXXXXXXXXXXXXXXXXXXXXXXXXXXXXXXXXXXXXXXXoo",
"OOOOXXXXXXXXXXXXXXXXXXXXXXXXXXXXXXXXXXXXXXXoo",
"OOOO..XXXXXXXXXXXXXXXXXXXXXXXXXXXXXXXXXXXXXoo",
"OOOO..XXXXXXXXXXXXXXXXXXXXXXXXXXXXXXXXXXXXXoo",
"OOOO..XXXXXXXXXXXXXXXXXXXXXXXXXXXXXXXXXXXXXoo",
"OOOO..XXXXXXXXXXXXXXXXXXXXXXXXXXXXXXXXXXXXXoo",
"OOXXOO..XXXXXXXXXXXXXXXXXXXXXXXXXXXXXXOOOOXoo",
"OOXXOO..XXXXXXXXXXXXXXXXXXXXXXXXXXXXXXOOOOXoo",
"ooOOOO..XX....OOOOXXXXXXXXXXXXXXXXXXOOOOXXOOo",
"ooOOOO..XX....OOOOXXXXXXXXXXXXXXXXXXOOOOXXOOo",
"ooXXOOXXOOOOOO....OOOOOOXXXXXXXXXX..OOOOOOOOo",
"ooXXOOXXOOOOOO....OOOOOOXXXXXXXXXX..OOOOOOOOo",
"ooOOXXOO......OOOO......OOOOOOXX..OOOOXXOOOOo",
"ooOOXXOO......OOOO......OOOOOOXX..OOOOXXOOOOo",
"ooXXOOXX..........OOOOOO....XX..XXOOOOOOOOOOo",
"ooXXOOXX..........OOOOOO....XX..XXOOOOOOOOOOo",
"ooXXXXXX........XX........XXOO..OOXXOOOOOOXoo",
"ooXXXXXX........XX........XXOO..OOXXOOOOOOXoo",
"ooXXXXXX......XXXXXX......OOOO..OOOOXXOOXXXoo",
"ooXXXXXX......XXXXXX......OOOO..OOOOXXOOXXXoo",
"ooXXXXXX..................OOOOXX..OOOOOOXXXoo",
"ooXXXXXX..................OOOOXX..OOOOOOXXXoo",
"ooXXXXXX..  ..............OOOOXXXXOOOOXXXXXoo",
"ooXXXXXX..  ..............OOOOXXXXOOOOXXXXXoo",
"ooXXXXXX..  ..............OO..XXXXXXXXXXXXXoo",
"ooXXXXXX..  ..............OO..XXXXXXXXXXXXXoo",
"ooXXXXXXOO..........  ....OOOOXXXXXXXXXXXXXoo",
"ooXXXXXXOO..........  ....OOOOXXXXXXXXXXXXXoo",
"ooXXXXXX............  ....OO  XXXXXXXXXXXXXoo",
"ooXXXXXX............  ....OO  XXXXXXXXXXXXXoo",
"ooXXXXXXXX............OO..OO  XXXXXXXXXXXXXoo",
"ooXXXXXXXX............OO..OO  XXXXXXXXXXXXXoo",
"ooXXXXXXXXXXXXXX..........  XXXXXXXXXXXXXXXoo",
"ooXXXXXXXXXXXXXX..........  XXXXXXXXXXXXXXXoo",
"ooXXXXXXXXXXXXXXXXXX....XXXXXXXXXXXXXXXXXXXoo",
"ooXXXXXXXXXXXXXXXXXX....XXXXXXXXXXXXXXXXXXXoo",
"ooXXXXXXXXXXXXXXXXXXXXXXXXXXXXXXXXXXXXXXXXXoo",
"ooXXXXXXXXXXXXXXXXXXXXXXXXXXXXXXXXXXXXXXXXXoo",
"XXoooooooooooooooooooooooooooooooooooooooooXX",
"XXoooooooooooooooooooooooooooooooooooooooooXX"
};
