/* XPM */
static char *_7a7316b0a704ba4a7df12873f2e7848vc60s6LIME9pqbVv[] = {
/* columns rows colors chars-per-pixel */
"45 45 5 1 ",
"  c #00131A",
". c #1E594A",
"X c #6CA66C",
"o c #8DBA8D",
"O c #D7F7D7",
/* pixels */
"XXoooooooooooooooooooooooooooooooooooooooooXX",
"XXoooooooooooooooooooooooooooooooooooooooooXX",
"ooXXXXXXXXXXXXXXXXXXXXXXXXXXXXXXXXXXXXXXXXXoo",
"ooXXXXXXXXXXXXXXXXXXXXXXXXXXXXXXXXXXXXXXXXXoo",
"ooXXXXXXXXXXXXXXXXXXXXXXXXXXXXXXXXXXXXXXXXXoo",
"ooXXXXXXXXXXXXXXXXXXXXXXXXXXXXXXXXXXXXXXXOOOO",
"ooXXXXXXXXXXXXXXXXXXXXXXXXXXXXXXXXXXXXXXXOOOO",
"ooXXXXXXXXXXXXXXXXXXXXXXXXXXXXXXXXXXXXX..OOOO",
"ooXXXXXXXXXXXXXXXXXXXXXXXXXXXXXXXXXXXXX..OOOO",
"ooXXXXXXXXXXXXXXXXXXXXXXXXXXXXXXXXXXXXX..OOOO",
"ooXXXXXXXXXXXXXXXXXXXXXXXXXXXXXXXXXXXXX..OOOO",
"ooXOOOOXXXXXXXXXXXXXXXXXXXXXXXXXXXXXX..OOXXOO",
"ooXOOOOXXXXXXXXXXXXXXXXXXXXXXXXXXXXXX..OOXXOO",
"oOOXXOOOOXXXXXXXXXXXXXXXXXXOOOO....XX..OOOOoo",
"oOOXXOOOOXXXXXXXXXXXXXXXXXXOOOO....XX..OOOOoo",
"oOOOOOOOO..XXXXXXXXXXOOOOOO....OOOOOOXXOOXXoo",
"oOOOOOOOO..XXXXXXXXXXOOOOOO....OOOOOOXXOOXXoo",
"oOOOOXXOOOO..XXOOOOOO......OOOO......OOXXOOoo",
"oOOOOXXOOOO..XXOOOOOO......OOOO......OOXXOOoo",
"oOOOOOOOOOOXX..XX....OOOOOO..........XXOOXXoo",
"oOOOOOOOOOOXX..XX....OOOOOO..........XXOOXXoo",
"ooXOOOOOOXXOO..OOXX........XX........XXXXXXoo",
"ooXOOOOOOXXOO..OOXX........XX........XXXXXXoo",
"ooXXXOOXXOOOO..OOOO......XXXXXX......XXXXXXoo",
"ooXXXOOXXOOOO..OOOO......XXXXXX......XXXXXXoo",
"ooXXXOOOOOO..XXOOOO..................XXXXXXoo",
"ooXXXOOOOOO..XXOOOO..................XXXXXXoo",
"ooXXXXXOOOOXXXXOOOO..............  ..XXXXXXoo",
"ooXXXXXOOOOXXXXOOOO..............  ..XXXXXXoo",
"ooXXXXXXXXXXXXX..OO..............  ..XXXXXXoo",
"ooXXXXXXXXXXXXX..OO..............  ..XXXXXXoo",
"ooXXXXXXXXXXXXXOOOO....  ..........OOXXXXXXoo",
"ooXXXXXXXXXXXXXOOOO....  ..........OOXXXXXXoo",
"ooXXXXXXXXXXXXX  OO....  ............XXXXXXoo",
"ooXXXXXXXXXXXXX  OO....  ............XXXXXXoo",
"ooXXXXXXXXXXXXX  OO..OO............XXXXXXXXoo",
"ooXXXXXXXXXXXXX  OO..OO............XXXXXXXXoo",
"ooXXXXXXXXXXXXXXX  ..........XXXXXXXXXXXXXXoo",
"ooXXXXXXXXXXXXXXX  ..........XXXXXXXXXXXXXXoo",
"ooXXXXXXXXXXXXXXXXXXX....XXXXXXXXXXXXXXXXXXoo",
"ooXXXXXXXXXXXXXXXXXXX....XXXXXXXXXXXXXXXXXXoo",
"ooXXXXXXXXXXXXXXXXXXXXXXXXXXXXXXXXXXXXXXXXXoo",
"ooXXXXXXXXXXXXXXXXXXXXXXXXXXXXXXXXXXXXXXXXXoo",
"XXoooooooooooooooooooooooooooooooooooooooooXX",
"XXoooooooooooooooooooooooooooooooooooooooooXX"
};
