/* XPM */
static char *_358ad7ade0b4b9ef07aafdcec855a03aLbrHBmBRMpaQXAj[] = {
/* columns rows colors chars-per-pixel */
"45 45 3 1 ",
"  c #00131A",
". c #6CA66C",
"X c #D7F7D7",
/* pixels */
"................XXX..........................",
"..............XX   ................XXXX......",
"..............X   XX...............X  XX.....",
".............X ..  X................X. X.....",
".............X .XX X...............XX.  .....",
".............X..XX X............... X.. .....",
"............XX..XX X.............X  X.. .....",
"............X ..X  X.............XX X.. .....",
"............X ..X X...............XX... .....",
"............X ..X X...............XX... .....",
"............X ..X X...............XX... .....",
"............XX..XXX..............XXX..  .....",
".............X ..X X.............X X.. X.....",
".........XX        XX...........X X.. XX.....",
"........X   XXXXXXX X.........XXX X.. X......",
"........XXXXXXXX  XX X......XX       XX......",
"...XXXXXXXX XXXXXX XXX.....X  XXXXXXX X.XXXXX",
"XXX  .. XXX   XXXXXX        XXXX XX X XX.....",
"X  ....  XX  XXXXXX  ......  XXX XX X   .....",
"  ...... XX  XXXXXX  ....... XXX    X  ......",
".......    X  XX    ........XXXXXXX X .......",
".....  XX .        .........XXXXXX XX........",
".... XX  ...................     XX     .....",
"...  XX  ............. .......      XX   ....",
"..  X    .............  ............  X XX ..",
".. XX   ............................  XX X  .",
".. XXX  ............................  XX  X .",
"..XX  X .....................     ..    X  X.",
". XX  X ....        ......... ...  .    XXX .",
"  X X  .... .................... ...X X   X .",
" X  X  .....   ...............   ...X   XX  .",
" X X  X............................X.X      .",
" X X  X........................... X.XX    X ",
" XX X  ........................... X..XX X   ",
" X     ..... .................... X.....X X  ",
"   X    ....  ..............  ...XX.....XX  X",
" X      ...................... ...........XXX",
" X   X   .................... ...............",
"X   X..X ....   ................X............",
"XXXXX..XX.... .........  ......XX............",
"........X ...   ........  ..  XX.............",
".........X  .............   XX...............",
".........XX   ...........  XX................",
"............XXXXXXXXXXXXXX...................",
"............................................."
};
