/* XPM */
static char *cc2536ceec2e47249e6a723a9a8e670cT8sGCevir31A50hz[] = {
/* columns rows colors chars-per-pixel */
"45 45 5 1 ",
"  c None",
". c #00131A",
"X c #1E594A",
"o c #6CA66C",
"O c #D7F7D7",
/* pixels */
"                                             ",
"                                             ",
"                                             ",
"                                             ",
"                                             ",
"                                             ",
"                                             ",
"                                             ",
"                                             ",
"        XXXXOOXXOOXXOOXXXOOOO                ",
"        XXXXOOXXOOXXOOXXXOOOO                ",
"        XXXXooXXooXXooXXXXXXXOO              ",
"        XXXXooXXooXXooXXXXXXXOO              ",
"        XXXXooXXooXXooXXXXXXXXXOO            ",
"        XXXXooXXooXXooXXXXXXXXXOO            ",
"        XXXXooXXooXXooXXXXXXXXXXXOO          ",
"        XXXXooXXooXXooXXXXXXXXXXXOO          ",
"        XXXXXXXXXXXXXXXXXXXXXXXXXXXOO        ",
"        XXXXXXXXXXXXXXXXXXXXXXXXXXXOO        ",
"        XXXXXXXXXXXXXXXXXXXXXXXXXXXOO        ",
"        XXXXXXXXXXXXXXXXXXXXXXXXXXXOO        ",
"        XXXXXXOOOOOOOOOOOOOOOOOXXXXOO        ",
"        XXXXXXOOOOOOOOOOOOOOOOOXXXXOO        ",
"        XXXXOOOOOO.......OOOOOOOOXXOO        ",
"        XXXXOOOOOO.......OOOOOOOOXXOO        ",
"        XXXXOOOO..OOOOOOO..OOOOOOXXOO        ",
"        XXXXOOOO..OOOOOOO..OOOOOOXXOO        ",
"        ..XXOOOO.........OOOOOOOOXXOO        ",
"        ..XXOOOO.........OOOOOOOOXXOO        ",
"        ..XXOOOO..OOOOOOOOO..OOOOXXOO        ",
"        ..XXOOOO..OOOOOOOOO..OOOOXXOO        ",
"        ..XXOOOOOO.........OOOOOOXXOO        ",
"        ..XXOOOOOO.........OOOOOOXXOO        ",
"        ..XXXXOOOOOOOOOOOOOOOOOXXXXOO        ",
"        ..XXXXOOOOOOOOOOOOOOOOOXXXXOO        ",
"        ..XXXXXXXXXXXXXXXXXXXXXXXXXOO        ",
"        ..XXXXXXXXXXXXXXXXXXXXXXXXXOO        ",
"          ......XX..XXXXXXXXXXXXXXX..        ",
"          ......XX..XXXXXXXXXXXXXXX..        ",
"                                             ",
"                                             ",
"                                             ",
"                                             ",
"                                             ",
"                                             "
};
