/* XPM */
static char *b6a25b33f4f943fe940389ab398b0ebeyDNoVTwOOj9Sov2d[] = {
/* columns rows colors chars-per-pixel */
"45 45 2 1 ",
"  c #6CA66C",
". c #8DBA8D",
/* pixels */
" ........................................... ",
".                                           .",
".                                           .",
".                                           .",
".                                           .",
".                                           .",
".                                           .",
".                                           .",
".                                           .",
".                                           .",
".                                           .",
".                                           .",
".                                           .",
".                                           .",
".                                           .",
".                                           .",
".                                           .",
".                                           .",
".                                           .",
".                                           .",
".                                           .",
".                                           .",
".                                           .",
".                                           .",
".                                           .",
".                                           .",
".                                           .",
".                                           .",
".                                           .",
".                                           .",
".                                           .",
".                                           .",
".                                           .",
".                                           .",
".                                           .",
".                                           .",
".                                           .",
".                                           .",
".                                           .",
".                                           .",
".                                           .",
".                                           .",
".                                           .",
".                                           .",
" ........................................... "
};
