/* XPM */
static char *cb393296bbc645cbbb00d8972cc750b9qdRwp1GsFkvh8Ol7[] = {
/* columns rows colors chars-per-pixel */
"45 45 2 1 ",
"  c #6CA66C",
". c #8DBA8D",
/* pixels */
"  .........................................  ",
"  .........................................  ",
"..                                         ..",
"..                                         ..",
"..                                         ..",
"..                                         ..",
"..                                         ..",
"..                                         ..",
"..                                         ..",
"..                                         ..",
"..                                         ..",
"..                                         ..",
"..                                         ..",
"..                                         ..",
"..                                         ..",
"..                                         ..",
"..                                         ..",
"..                                         ..",
"..                                         ..",
"..                                         ..",
"..                                         ..",
"..                                         ..",
"..                                         ..",
"..                                         ..",
"..                                         ..",
"..                                         ..",
"..                                         ..",
"..                                         ..",
"..                                         ..",
"..                                         ..",
"..                                         ..",
"..                                         ..",
"..                                         ..",
"..                                         ..",
"..                                         ..",
"..                                         ..",
"..                                         ..",
"..                                         ..",
"..                                         ..",
"..                                         ..",
"..                                         ..",
"..                                         ..",
"..                                         ..",
"  .........................................  ",
"  .........................................  "
};
