/* XPM */
static char *cff15a991a0946639629733467a054f3ZkNCZjen1Co9o6xH[] = {
/* columns rows colors chars-per-pixel */
"45 45 5 1 ",
"  c None",
". c #00131A",
"X c #1E594A",
"o c #6CA66C",
"O c #D7F7D7",
/* pixels */
"                                             ",
"                                             ",
"                                             ",
"                                             ",
"                                             ",
"      XXXXXXXXXXXXXXXXXOOOOOOOOOOOOXXXX      ",
"      XXXXXXXXXXXXXXXXXOOOOOOOOOOOOXXXX      ",
"    XXOOXXXXXXXXXXXXXXXXXXXXXXXXXXXXXOOXX    ",
"    XXOOXXXXXXXXXXXXXXXXXXXXXXXXXXXXXOOXX    ",
"    XXXXXXXXX..XXooXXXXXXXXXXXX..XXXXXXXX    ",
"    XXXXXXXXX..XXooXXXXXXXXXXXX..XXXXXXXX    ",
"    XXXXXXoooooooooooOOooooOOOOooooXXXXXX    ",
"    XXXXXXoooooooooooOOooooOOOOooooXXXXXX    ",
"    XXXXXXXXXXXXXXXXX............XXXXXXXX    ",
"    XXXXXXXXXXXXXXXXX............XXXXXXXX    ",
"  XXXXXXXX..XXXXXXXooXXXXXXXXXXXX..XXXXXXXX  ",
"  XXXXXXXX..XXXXXXXooXXXXXXXXXXXX..XXXXXXXX  ",
"  XXXXXXXXoooooooooooooooOOOOOOooooXXXXXXXX  ",
"  XXXXXXXXoooooooooooooooOOOOOOooooXXXXXXXX  ",
"  XXXXXXXXXXXXXXXXXXXXXXXXXXXXXXXXXXXXXXXXX  ",
"  XXXXXXXXXXXXXXXXXXXXXXXXXXXXXXXXXXXXXXXXX  ",
"  XXXXXXXX..ooooXXXooooooooXXXXXX..XXXXXXXX  ",
"  XXXXXXXX..ooooXXXooooooooXXXXXX..XXXXXXXX  ",
"  XXooXXXXXX.....................XXXXXXOOXX  ",
"  XXooXXXXXX.....................XXXXXXOOXX  ",
"  XXXXXXXXXXXXXXXXXXXXXXXXXooooooooooooXXXX  ",
"  XXXXXXXXXXXXXXXXXXXXXXXXXooooooooooooXXXX  ",
"    .....................................    ",
"    .....................................    ",
"    XX...................XX............XX    ",
"    XX...................XX............XX    ",
"    XX.........XX............XX........XX    ",
"    XX.........XX............XX........XX    ",
"    XX.......XX................XX......XX    ",
"    XX.......XX................XX......XX    ",
"    XX..XX.......................XX....XX    ",
"    XX..XX.......................XX....XX    ",
"    XXXX.............................XXXX    ",
"    XXXX.............................XXXX    ",
"      XXXXXXXXXXXXXXXXXXXXXXXXXXXXXXXXX      ",
"      XXXXXXXXXXXXXXXXXXXXXXXXXXXXXXXXX      ",
"                                             ",
"                                             ",
"                                             ",
"                                             "
};
