/* XPM */
static char *_1df3fa0e65a4ed7b6771eaf2853e5a32xcHlSJreIyHpThR[] = {
/* columns rows colors chars-per-pixel */
"45 45 5 1 ",
"  c None",
". c #00131A",
"X c #1E594A",
"o c #6CA66C",
"O c #D7F7D7",
/* pixels */
"                                             ",
"                                             ",
"                                             ",
"                                             ",
"                                             ",
"      XXXXXXXXXXXXXXXXXOOOOOOOOOOOOXXXX      ",
"      XXXXXXXXXXXXXXXXXOOOOOOOOOOOOXXXX      ",
"    XXOOXXXXXXXXXXXXXXXXXXXXXXXXXXXXXOOXX    ",
"    XXOOXXXXXXXXXXXXXXXXXXXXXXXXXXXXXOOXX    ",
"    XXXXXXXXXXXXXXXXXXXXXXXXXXXXXXXXXXXXX    ",
"    XXXXXXXXXXXXXXXXXXXXXXXXXXXXXXXXXXXXX    ",
"    XXXXXXXX..XXXooXXXXXXXXXXXX..XXXXXXXX    ",
"    XXXXXXXX..XXXooXXXXXXXXXXXX..XXXXXXXX    ",
"    XXXXXX..XXXXXXXooXXXXXXXXXXXX..XXXXXX    ",
"    XXXXXX..XXXXXXXooXXXXXXXXXXXX..XXXXXX    ",
"    XXXXXXoooooooooooOOooooOOOOooooXXXXXX    ",
"    XXXXXXoooooooooooOOooooOOOOooooXXXXXX    ",
"    XXXXXXXXXXXXXXXXX............XXXXXXXX    ",
"    XXXXXXXXXXXXXXXXX............XXXXXXXX    ",
"    XXXXXXXX..XXXooXXXXXXXXXXXX..XXXXXXXX    ",
"    XXXXXXXX..XXXooXXXXXXXXXXXX..XXXXXXXX    ",
"    XXXXXX..XXXXXXXooXXXXXXXXXXXX..XXXXXX    ",
"    XXXXXX..XXXXXXXooXXXXXXXXXXXX..XXXXXX    ",
"    XXXXXXoooooooooooooooOOOOOOooooXXXXXX    ",
"    XXXXXXoooooooooooooooOOOOOOooooXXXXXX    ",
"    XXXXXXXXXXXXX............XXXXXXXXXXXX    ",
"    XXXXXXXXXXXXX............XXXXXXXXXXXX    ",
"    XXXXXXXX..XXXXXXXooXXXXXXXX..XXXXXXXX    ",
"    XXXXXXXX..XXXXXXXooXXXXXXXX..XXXXXXXX    ",
"    XXXXXX..XXoooXXooXXXXXXXXXXXX..XXXXXX    ",
"    XXXXXX..XXoooXXooXXXXXXXXXXXX..XXXXXX    ",
"    XXXXXXoooooooooooooooooOOooOOooXXXXXX    ",
"    XXXXXXoooooooooooooooooOOooOOooXXXXXX    ",
"    XXXXXXXX.....................XXXXXXXX    ",
"    XXXXXXXX.....................XXXXXXXX    ",
"    XXXXXXXXXXXXXXXXXXXXXXXXXXXXXXXXXXXXX    ",
"    XXXXXXXXXXXXXXXXXXXXXXXXXXXXXXXXXXXXX    ",
"    XXooXXXXXXXXXXXXXXXXXXXXXXXXXXXXXOOXX    ",
"    XXooXXXXXXXXXXXXXXXXXXXXXXXXXXXXXOOXX    ",
"      XX.............................XX      ",
"      XX.............................XX      ",
"                                             ",
"                                             ",
"                                             ",
"                                             "
};
