/* XPM */
static char *cd0c6b5ad24248039480690b074f8ff7QS0xJnMB5qbh0Pb6[] = {
/* columns rows colors chars-per-pixel */
"45 45 5 1 ",
"  c #00131A",
". c #1E594A",
"X c #6CA66C",
"o c #8DBA8D",
"O c #D7F7D7",
/* pixels */
"XXoooooooooooooooooooooooooooooooooooooooooXX",
"XXoooooooooooooooooooooooooooooooooooooooooXX",
"ooXXXXXXXXXXXXXXXXXXXXXXXXXXXXXXXXXXXXXXXXXoo",
"ooXXXXXXXXXXXXXXXXXXXXXXXXXXXXXXXXXXXXXXXXXoo",
"oo.....................OO....OOOOOO........oo",
"oo.....................OO....OOOOOO........oo",
"oo                                         oo",
"oo                                         oo",
"ooXXXXXXXXXXXXXXXXXXXXXXXXXXXXXXXXXXXXXXXXXoo",
"ooXXXXXXXXXXXXXXXXXXXXXXXXXXXXXXXXXXXXXXXXXoo",
"ooXXX  XXOOXXXXXXOOXXXXOOXXOOXXXXXXXXXXXXXXoo",
"ooXXX  XXOOXXXXXXOOXXXXOOXXOOXXXXXXXXXXXXXXoo",
"ooXXX  XX..XXXXXX..XXXX..XX..XXXXXXXXXXXXXXoo",
"ooXXX  XX..XXXXXX..XXXX..XX..XXXXXXXXXXXXXXoo",
"ooXXXXXXX..XXXXXX..XXXX..XX..XXXXXXOOXXXXXXoo",
"ooXXXXXXX..XXXXXX..XXXX..XX..XXXXXXOOXXXXXXoo",
"ooXXXXXXX..XXXXXX..XXXX..XX..XXXXXX..XXXXXXoo",
"ooXXXXXXX..XXXXXX..XXXX..XX..XXXXXX..XXXXXXoo",
"ooXXXXXXX..XXXXXX..XXXX..XX..XXXXXX..XXXXXXoo",
"ooXXXXXXX..XXXXXX..XXXX..XX..XXXXXX..XXXXXXoo",
"ooXXXXXXX..XXXX  ..XX..XXXX..  XXXX..XXXXXXoo",
"ooXXXXXXX..XXXX  ..XX..XXXX..  XXXX..XXXXXXoo",
"ooXXXOOXX..XXXXXXXXXX..XXXXXXXXXXXX..XXXXXXoo",
"ooXXXOOXX..XXXXXXXXXX..XXXXXXXXXXXX..XXXXXXoo",
"ooXXX..XXXX..XXXXXXXX..XXXXXXXXXX  ..XXXXXXoo",
"ooXXX..XXXX..XXXXXXXX..XXXXXXXXXX  ..XXXXXXoo",
"ooXXX..XXXX..XXXXXX..XXXXXXXXXXXXXXXXXXXXXXoo",
"ooXXX..XXXX..XXXXXX..XXXXXXXXXXXXXXXXXXXXXXoo",
"ooXXX..XXXX..XXXX  XXXXXXXXXXXXXXXXXXXX    oo",
"ooXXX..XXXX..XXXX  XXXXXXXXXXXXXXXXXXXX    oo",
"ooXXX..XXXXXX..XXXXXXXXXXXXXX  XXXXXXXXXXXXoo",
"ooXXX..XXXXXX..XXXXXXXXXXXXXX  XXXXXXXXXXXXoo",
"ooXXX..  XXXXXX..............XXXXXXXXXX    oo",
"ooXXX..  XXXXXX..............XXXXXXXXXX    oo",
"ooXXXXXXXXXXXXXXXXXXXXXXXXXXXXXXXXXXXXXXXXXoo",
"ooXXXXXXXXXXXXXXXXXXXXXXXXXXXXXXXXXXXXXXXXXoo",
"ooXXXXXXXXXXXXXXXXXXXXXXXXXXXXXXXXXXXXXXXXXoo",
"ooOOOOOOOOOOOOOOOOOOOOOOOOOOOOOOOOOOOOOOOOOoo",
"ooOOOOOOOOOOOOOOOOOOOOOOOOOOOOOOOOOOOOOOOOOoo",
"oo                                         oo",
"oo                                         oo",
"ooXXXXXXXXXXXXXXXXXXXXXXXXXXXXXXXXXXXXXXXXXoo",
"ooXXXXXXXXXXXXXXXXXXXXXXXXXXXXXXXXXXXXXXXXXoo",
"XXoooooooooooooooooooooooooooooooooooooooooXX",
"XXoooooooooooooooooooooooooooooooooooooooooXX"
};
