/* XPM */
static char *_2688b082f7d469dae89779971eddbccbm91JbVCMolt5EiQ[] = {
/* columns rows colors chars-per-pixel */
"45 45 5 1 ",
"  c #00131A",
". c #1E594A",
"X c #6CA66C",
"o c #8DBA8D",
"O c #D7F7D7",
/* pixels */
"XXoooooooooooooooooooooooooooooooooooooooooXX",
"XXoooooooooooooooooooooooooooooooooooooooooXX",
"ooXXXXXXXXXXXXXXXXXXXXXXXXXXXXXXXXXXXXXXXXXoo",
"ooXXXXXXXXXXXXXXXXXXXXXXXXXXXXXXXXXXXXXXXXXoo",
"ooXXXX.................OO....OOOOOO....XXXXoo",
"ooXXXX.................OO....OOOOOO....XXXXoo",
"ooXX......                         ......XXoo",
"ooXX......                         ......XXoo",
"ooXX....  XXXXXXXXXXXXXXXXXXXXXXXXX  ....XXoo",
"ooXX....  XXXXXXXXXXXXXXXXXXXXXXXXX  ....XXoo",
"ooXX....XXXXXOOXXOOXXXXOOXXXXXXOOXXXX....XXoo",
"ooXX....XXXXXOOXXOOXXXXOOXXXXXXOOXXXX....XXoo",
"ooXXXX..XXXXX..XX..XXXX..XXXXXX..XXXX....XXoo",
"ooXXXX..XXXXX..XX..XXXX..XXXXXX..XXXX....XXoo",
"ooXXXX..XXXXX..XX..XXXX..XXXXXX..XXXX....XXoo",
"ooXXXX..XXXXX..XX..XXXX..XXXXXX..XXXX....XXoo",
"ooXXXX..XXXXX..XX..XXXX..XXXXXX..XXXX..XXXXoo",
"ooXXXX..XXXXX..XX..XXXX..XXXXXX..XXXX..XXXXoo",
"ooXX....XXXXX..XX..XXXX..XXXXXX..XXXX....XXoo",
"ooXX....XXXXX..XX..XXXX..XXXXXX..XXXX....XXoo",
"ooXXXX..XXX  ..XXXX..XX..  XXXX..XXXX....XXoo",
"ooXXXX..XXX  ..XXXX..XX..  XXXX..XXXX....XXoo",
"ooXX....XXXXXXXXXXX..XXXXXXXXXX..XXXX..XXXXoo",
"ooXX....XXXXXXXXXXX..XXXXXXXXXX..XXXX..XXXXoo",
"ooXX....XXX    XXXX..XXXXXXXX..XXXXXX..XXXXoo",
"ooXX....XXX    XXXX..XXXXXXXX..XXXXXX..XXXXoo",
"ooXX....XXXXXXXXXXXXX..XXXXXX..XXXXXX....XXoo",
"ooXX....XXXXXXXXXXXXX..XXXXXX..XXXXXX....XXoo",
"ooXX....XXXXXXXXXXXXXXX  XXXX..XXXXXX....XXoo",
"ooXX....XXXXXXXXXXXXXXX  XXXX..XXXXXX....XXoo",
"ooXX....XXX  XXXXXXXXXXXXXX..XXXXOOXX....XXoo",
"ooXX....XXX  XXXXXXXXXXXXXX..XXXXOOXX....XXoo",
"ooXX....XXXXX..............XXXX..  XX....XXoo",
"ooXX....XXXXX..............XXXX..  XX....XXoo",
"ooXX....XXXXXXXXXXXXXXXXXXXXXXXXXXXXX....XXoo",
"ooXX....OOXXXXXXXXXXXXXXXXXXXXXXXXXOO....XXoo",
"ooXX....OOXXXXXXXXXXXXXXXXXXXXXXXXXOO....XXoo",
"ooXX......OOOOOOOOOOOOOOOOOOOOOOOOO......XXoo",
"ooXX......OOOOOOOOOOOOOOOOOOOOOOOOO......XXoo",
"ooXXXX                                 XXXXoo",
"ooXXXX                                 XXXXoo",
"ooXXXXXXXXXXXXXXXXXXXXXXXXXXXXXXXXXXXXXXXXXoo",
"ooXXXXXXXXXXXXXXXXXXXXXXXXXXXXXXXXXXXXXXXXXoo",
"XXoooooooooooooooooooooooooooooooooooooooooXX",
"XXoooooooooooooooooooooooooooooooooooooooooXX"
};
