/* XPM */
static char *_778183307aa491fd81bd1eaf58aac15zcYkwO4e0aMxQLtC[] = {
/* columns rows colors chars-per-pixel */
"45 45 2 1 ",
"  c #00131A",
". c #1E594A",
/* pixels */
".............................................",
".............................................",
"  ..... ..........                    .      ",
" ..               .......             .      ",
"..                       .........    .      ",
".............................................",
"  .                                 ..      .",
"  ...                               ....     ",
"    ....                                ..   ",
"     ...                                 .   ",
"    ..                                   .   ",
"   ..                                  ...   ",
" ..                                      ....",
".............................................",
".                  ..........................",
"                                             ",
"                                          ...",
"                                           ..",
"                                            .",
"                               ..............",
".     .........................              ",
".............................................",
".....                                        ",
".   .                                        ",
"                                             ",
"                                         ....",
"                                       ......",
"                         ..............      ",
"               ..........                    ",
"       ........                              ",
" ......                                      ",
".                               .............",
".............................................",
"                                         ....",
".                            ............... ",
" ...              ...........              . ",
"   ..   ..........                         . ",
".............................................",
"...                          ................",
"..             ..............          ...  .",
"...............                        .    .",
"..........                                  .",
".                                           .",
"...                                  ..   .. ",
"............................................."
};
