/* XPM */
static char *_d7ba553b6df40a39b8805d6032fea3bFHHJXAYAOMjcSkQQ[] = {
/* columns rows colors chars-per-pixel */
"45 45 5 1 ",
"  c #00131A",
". c #1E594A",
"X c #6CA66C",
"o c #8DBA8D",
"O c #D7F7D7",
/* pixels */
"XXoooooooooooooooooooooooooooooooooooooooooXX",
"XXoooooooooooooooooooooooooooooooooooooooooXX",
"ooXXXXXXXXXXXXXXXXXXXXXXXXXXXXXXXXXXXXXXXXXoo",
"ooXXXXXXXXXXXXXXXXXXXXXXXXXXXXXXXXXXXXXXXXXoo",
"ooXXXX.................OO....OOOOOOOOOO....oo",
"ooXXXX.................OO....OOOOOOOOOO....oo",
"ooXX......                                 oo",
"ooXX......                                 oo",
"ooXX....  XXXXXXXXXXXXXXXXXXXXXXXXXXXXXXXXXoo",
"ooXX....  XXXXXXXXXXXXXXXXXXXXXXXXXXXXXXXXXoo",
"ooXX....XXXOOXXXXOOXXXXOOXXXXOOXXOOXXXXXXOOoo",
"ooXX....XXXOOXXXXOOXXXXOOXXXXOOXXOOXXXXXXOOoo",
"ooXXXX..XXX..XXXX..XXXX..XXXX..XX..XXXXXX..oo",
"ooXXXX..XXX..XXXX..XXXX..XXXX..XX..XXXXXX..oo",
"ooXXXX..XXX..XXXX..XXXX..XXXX..XX..XXXXXX..oo",
"ooXXXX..XXX..XXXX..XXXX..XXXX..XX..XXXXXX..oo",
"ooXXXX..XXX..XXXX..XXXX..XXXX..XX..XXXX..XXoo",
"ooXXXX..XXX..XXXX..XXXX..XXXX..XX..XXXX..XXoo",
"ooXX....XXX..XXXX  XXXX..XXXX..XX..  XX..XXoo",
"ooXX....XXX..XXXX  XXXX..XXXX..XX..  XX..XXoo",
"ooXXXX..XXX..  XXXXXX..XXXXXX..XXXXXXXX..XXoo",
"ooXXXX..XXX..  XXXXXX..XXXXXX..XXXXXXXX..XXoo",
"ooXX....XXXXXXXXXXXXX..XXXXXX..XXXXXXXX..XXoo",
"ooXX....XXXXXXXXXXXXX..XXXXXX..XXXXXXXX..XXoo",
"ooXX....XXXXXXXXXXX..XXXXXXXX..XXXXXX  XXXXoo",
"ooXX....XXXXXXXXXXX..XXXXXXXX..XXXXXX  XXXXoo",
"ooXX....XXXXX  ....XXXXXXXXXX..XXXXXXXXXXXXoo",
"ooXX....XXXXX  ....XXXXXXXXXX..XXXXXXXXXXXXoo",
"ooXX....XXXXXXXXXXXXXXXXXXX..XXXXXXOOXXXXXXoo",
"ooXX....XXXXXXXXXXXXXXXXXXX..XXXXXXOOXXXXXXoo",
"ooXX....XXXXXXXXXXX  XXXXXX..XXXXXX..XXXX  oo",
"ooXX....XXXXXXXXXXX  XXXXXX..XXXXXX..XXXX  oo",
"ooXX....XXX    XXXXXX......XXXXXX  ..XXXX  oo",
"ooXX....XXX    XXXXXX......XXXXXX  ..XXXX  oo",
"ooXX....XXXXXXXXXXXXXXXXXXXXXXXXXXXXXXXXXXXoo",
"ooXX....OOXXXXXXXXXXXXXXXXXXXXXXXXXXXXXXXXXoo",
"ooXX....OOXXXXXXXXXXXXXXXXXXXXXXXXXXXXXXXXXoo",
"ooXX......OOOOOOOOOOOOOOOOOOOOOOOOOOOOOOOOOoo",
"ooXX......OOOOOOOOOOOOOOOOOOOOOOOOOOOOOOOOOoo",
"ooXXXX                                     oo",
"ooXXXX                                     oo",
"ooXXXXXXXXXXXXXXXXXXXXXXXXXXXXXXXXXXXXXXXXXoo",
"ooXXXXXXXXXXXXXXXXXXXXXXXXXXXXXXXXXXXXXXXXXoo",
"XXoooooooooooooooooooooooooooooooooooooooooXX",
"XXoooooooooooooooooooooooooooooooooooooooooXX"
};
